<svg width="17" height="16" viewBox="0 0 17 16" fill="none" xmlns="http://www.w3.org/2000/svg">
<g clip-path="url(#clip0_5402_45384)">
<path d="M12.5 5.33337C13.6046 5.33337 14.5 4.43794 14.5 3.33337C14.5 2.2288 13.6046 1.33337 12.5 1.33337C11.3954 1.33337 10.5 2.2288 10.5 3.33337C10.5 4.43794 11.3954 5.33337 12.5 5.33337Z" stroke="#6B7280" stroke-width="1.33333" stroke-linecap="round" stroke-linejoin="round"/>
<path d="M4.5 10C5.60457 10 6.5 9.10457 6.5 8C6.5 6.89543 5.60457 6 4.5 6C3.39543 6 2.5 6.89543 2.5 8C2.5 9.10457 3.39543 10 4.5 10Z" stroke="#6B7280" stroke-width="1.33333" stroke-linecap="round" stroke-linejoin="round"/>
<path d="M12.5 14.6666C13.6046 14.6666 14.5 13.7712 14.5 12.6666C14.5 11.5621 13.6046 10.6666 12.5 10.6666C11.3954 10.6666 10.5 11.5621 10.5 12.6666C10.5 13.7712 11.3954 14.6666 12.5 14.6666Z" stroke="#6B7280" stroke-width="1.33333" stroke-linecap="round" stroke-linejoin="round"/>
<path d="M6.22656 9.00671L10.7799 11.66" stroke="#6B7280" stroke-width="1.33333" stroke-linecap="round" stroke-linejoin="round"/>
<path d="M10.7732 4.33997L6.22656 6.9933" stroke="#6B7280" stroke-width="1.33333" stroke-linecap="round" stroke-linejoin="round"/>
</g>
<defs>
<clipPath id="clip0_5402_45384">
<rect width="16" height="16" fill="white" transform="translate(0.5)"/>
</clipPath>
</defs>
</svg>
