<svg width="54" height="54" viewBox="0 0 54 54" fill="none" xmlns="http://www.w3.org/2000/svg">
<path d="M0 27C0 12.0883 12.0883 0 27 0C41.9117 0 54 12.0883 54 27C54 41.9117 41.9117 54 27 54C12.0883 54 0 41.9117 0 27Z" fill="#385C80"/>
<path d="M38 27C38 33.0751 33.0751 38 27 38C20.9249 38 16 33.0751 16 27C16 20.9249 20.9249 16 27 16C33.0751 16 38 20.9249 38 27Z" stroke="#FCFCFC" stroke-width="2"/>
<path d="M27 22V27" stroke="#FCFCFC" stroke-width="2" stroke-linecap="round" stroke-linejoin="round"/>
<path d="M27 31V31.5" stroke="#FCFCFC" stroke-width="2" stroke-linecap="round" stroke-linejoin="round"/>
</svg>
