<svg width="62" height="62" viewBox="0 0 62 62" fill="none" xmlns="http://www.w3.org/2000/svg">
<path d="M0.875977 16.4532L20.8249 1.49157V16.4532L0.875977 31.4149V16.4532Z" fill="#CF4A3C"/>
<path d="M0.875977 46.3715L20.8249 61.3332V46.3715L0.875977 31.4099V46.3715Z" fill="#F55C4B"/>
<path d="M40.7739 46.3715L20.825 61.3332V46.3715L40.7739 31.4099V46.3715Z" fill="#9B3429"/>
<path d="M20.825 46.3715V16.4482L40.7739 31.4099L20.825 46.3715Z" fill="#CF4A3C"/>
<path fill-rule="evenodd" clip-rule="evenodd" d="M20.8249 16.4483V46.3763L0.875977 31.4147L20.8249 16.4483ZM30.7994 38.8907L20.8249 46.3715V38.8907V31.4099L30.7994 38.8907Z" fill="#9B3429"/>
<path d="M40.7736 61.3332L60.7225 46.3715L40.7736 31.4099L20.8247 46.3715L40.7736 61.3332Z" fill="#F55C4B"/>
<path d="M40.7736 31.4099L60.7225 16.4482L40.7736 1.48652L20.8247 16.4482L40.7736 31.4099Z" fill="#F55C4B"/>
</svg>
