<svg width="134" height="29" viewBox="0 0 134 29" fill="none" xmlns="http://www.w3.org/2000/svg">
<path d="M0.171631 8.108L8.83744 1.729V8.108L0.171631 14.487V8.108Z" fill="#B8331E"/>
<path d="M0.171631 20.8638L8.83744 27.2428V20.8638L0.171631 14.4848V20.8638Z" fill="#F54D33"/>
<path d="M17.5033 20.8638L8.83749 27.2428V20.8638L17.5033 14.4848V20.8638Z" fill="#B8331E"/>
<path d="M8.83749 20.8638V8.10583L17.5033 14.4848L8.83749 20.8638Z" fill="#F54D33"/>
<path fill-rule="evenodd" clip-rule="evenodd" d="M8.83744 20.8638V20.8658L0.171631 14.4869L8.83744 8.10583V14.4848L13.1703 17.6743L8.83744 20.8638Z" fill="#B8331E"/>
<path d="M17.5032 27.2428L26.169 20.8638L17.5032 14.4848L8.8374 20.8638L17.5032 27.2428Z" fill="#F66F5A"/>
<path d="M17.5032 14.4849L26.169 8.10587L17.5032 1.72687L8.8374 8.10587L17.5032 14.4849Z" fill="#F66F5A"/>
<path d="M32.5852 8.10583H34.8481V18.0404H32.5852V8.10583ZM40.5817 10.9854L36.8478 14.9449L36.8942 13.0731L40.9024 18.0404H38.0356L34.8857 14.0234L37.5829 10.9854H40.5817Z" fill="#FCFCFC"/>
<path d="M45.6353 18.242C44.9562 18.242 44.3531 18.0956 43.8244 17.8029C43.2965 17.5101 42.8797 17.0854 42.575 16.5287C42.2702 15.9719 42.1174 15.3 42.1174 14.5129C42.1174 13.6874 42.2702 12.9964 42.575 12.4396C42.8797 11.8829 43.2965 11.4654 43.8244 11.187C44.3531 10.9087 44.9562 10.7695 45.6353 10.7695C46.3896 10.7695 47.0415 10.9254 47.5919 11.2374C48.1422 11.5494 48.5661 11.9861 48.8653 12.5476C49.1636 13.1091 49.3132 13.7642 49.3132 14.5129C49.3132 15.0696 49.2284 15.576 49.058 16.0319C48.8885 16.4879 48.6437 16.8814 48.3229 17.2125C48.0022 17.5437 47.6159 17.7981 47.1631 17.9756C46.7104 18.1532 46.2009 18.242 45.6353 18.242ZM46.484 16.0535C46.9616 16.0535 47.3999 16.0079 47.7998 15.9167C48.199 15.8255 48.5189 15.6696 48.7613 15.4488C49.0037 15.228 49.1244 14.9161 49.1244 14.5129C49.1244 14.1002 49.0037 13.7834 48.7613 13.5627C48.5189 13.3419 48.199 13.1883 47.7998 13.1019C47.3999 13.0155 46.9616 12.9724 46.484 12.9724C45.8425 12.9724 45.3458 13.0995 44.9938 13.3539C44.6419 13.6083 44.4659 13.9946 44.4659 14.5129C44.4659 14.8489 44.5443 15.132 44.7019 15.3624C44.8586 15.5928 45.0882 15.7655 45.3898 15.8807C45.6921 15.9959 46.0561 16.0535 46.484 16.0535ZM49.1244 10.9854H51.3873V18.0404H49.2564C49.2564 18.0404 49.2452 17.93 49.2236 17.7093C49.2012 17.4885 49.1796 17.1718 49.1572 16.759C49.1356 16.3463 49.1244 15.8615 49.1244 15.3048V10.9854Z" fill="#FCFCFC"/>
<path d="M53.5462 10.9854H55.8091V18.0404H53.5462V10.9854ZM59.2038 10.7695C59.5749 10.7695 59.9333 10.8295 60.2789 10.9494C60.6252 11.0694 60.9348 11.2734 61.2083 11.5613C61.4819 11.8493 61.7002 12.2429 61.8634 12.742C62.0266 13.2411 62.109 13.8698 62.109 14.6281V18.0404H59.8453V15.06C59.8453 14.3401 59.7229 13.829 59.4774 13.5267C59.2326 13.2243 58.7895 13.0731 58.148 13.0731C57.8088 13.0731 57.48 13.1307 57.1625 13.2459C56.8449 13.3611 56.5602 13.4979 56.309 13.6563C56.0579 13.8146 55.8595 13.9706 55.7147 14.1242L55.6963 13.5771C55.7211 13.4043 55.8075 13.1619 55.9555 12.85C56.1034 12.538 56.3186 12.2237 56.6018 11.9069C56.8841 11.5901 57.2409 11.3214 57.672 11.1006C58.1024 10.8799 58.6135 10.7695 59.2038 10.7695ZM65.3901 10.7695C65.7613 10.7695 66.1196 10.8295 66.4652 10.9494C66.8115 11.0694 67.1211 11.2734 67.3938 11.5613C67.6674 11.8493 67.8858 12.2429 68.0497 12.742C68.2129 13.2411 68.2945 13.8698 68.2945 14.6281V18.0404H66.0316V15.06C66.0316 14.3401 65.9093 13.829 65.6637 13.5267C65.4189 13.2243 64.9758 13.0731 64.3343 13.0731C63.9943 13.0731 63.6664 13.1307 63.3488 13.2459C63.0313 13.3611 62.7465 13.4979 62.4953 13.6563C62.2442 13.8146 62.0458 13.9706 61.901 14.1242L61.8826 13.4331C61.9074 13.2891 62.0018 13.0731 62.165 12.7852C62.3289 12.4972 62.5593 12.1997 62.8585 11.8925C63.1568 11.5853 63.5184 11.3214 63.9431 11.1006C64.3671 10.8799 64.8494 10.7695 65.3901 10.7695Z" fill="#FCFCFC"/>
<path d="M73.8761 18.242C73.1978 18.242 72.5939 18.0956 72.066 17.8029C71.538 17.5101 71.1213 17.0854 70.8165 16.5287C70.5118 15.9719 70.359 15.3 70.359 14.5129C70.359 13.6874 70.5118 12.9964 70.8165 12.4396C71.1213 11.8829 71.538 11.4654 72.066 11.187C72.5939 10.9087 73.1978 10.7695 73.8761 10.7695C74.6304 10.7695 75.2831 10.9254 75.8334 11.2374C76.383 11.5494 76.8077 11.9861 77.106 12.5476C77.4052 13.1091 77.554 13.7642 77.554 14.5129C77.554 15.0696 77.4692 15.576 77.2996 16.0319C77.1301 16.4879 76.8845 16.8814 76.5637 17.2125C76.243 17.5437 75.8566 17.7981 75.4039 17.9756C74.9512 18.1532 74.4424 18.242 73.8761 18.242ZM74.7248 16.0535C75.2031 16.0535 75.6415 16.0079 76.0406 15.9167C76.4397 15.8255 76.7605 15.6696 77.0029 15.4488C77.2444 15.228 77.3652 14.9161 77.3652 14.5129C77.3652 14.1002 77.2444 13.7834 77.0029 13.5627C76.7605 13.3419 76.4397 13.1883 76.0406 13.1019C75.6415 13.0155 75.2031 12.9724 74.7248 12.9724C74.0841 12.9724 73.5874 13.0995 73.2354 13.3539C72.8835 13.6083 72.7067 13.9946 72.7067 14.5129C72.7067 14.8489 72.7859 15.132 72.9426 15.3624C73.1002 15.5928 73.3298 15.7655 73.6314 15.8807C73.9329 15.9959 74.2977 16.0535 74.7248 16.0535ZM77.3652 10.9854H79.6289V18.0404H77.4972C77.4972 18.0404 77.4868 17.93 77.4644 17.7093C77.4428 17.4885 77.4204 17.1718 77.3988 16.759C77.3764 16.3463 77.3652 15.8615 77.3652 15.3048V10.9854Z" fill="#FCFCFC"/>
<path d="M88.1805 18.0404V15.42C88.1805 14.9881 88.1245 14.6233 88.0109 14.3257C87.8981 14.0282 87.6981 13.805 87.4126 13.6563C87.1262 13.5075 86.7223 13.4331 86.2007 13.4331C85.9048 13.4331 85.6176 13.4739 85.3377 13.5555C85.0577 13.6371 84.8065 13.7354 84.5834 13.8506C84.3602 13.9658 84.1826 14.081 84.0507 14.1962L84.0315 13.5051C84.057 13.3611 84.1434 13.1427 84.2906 12.85C84.4386 12.5572 84.6538 12.2501 84.9369 11.9285C85.2201 11.607 85.5768 11.3334 86.0072 11.1078C86.4375 10.8823 86.9487 10.7695 87.5398 10.7695C87.9109 10.7695 88.2693 10.8223 88.6148 10.9278C88.9604 11.0334 89.2699 11.2086 89.5435 11.4534C89.817 11.6981 90.0354 12.0269 90.1986 12.4396C90.3626 12.8524 90.4441 13.3659 90.4441 13.9802V18.0404H88.1805ZM81.8814 18.0404V8.10583H84.145V18.0404H81.8814Z" fill="#FCFCFC"/>
<path d="M96.0257 18.242C95.3466 18.242 94.7435 18.0956 94.2148 17.8029C93.6869 17.5101 93.2701 17.0854 92.9654 16.5287C92.6606 15.9719 92.5079 15.3 92.5079 14.5129C92.5079 13.6874 92.6606 12.9964 92.9654 12.4396C93.2701 11.8829 93.6869 11.4654 94.2148 11.187C94.7435 10.9087 95.3466 10.7695 96.0257 10.7695C96.78 10.7695 97.4319 10.9254 97.9823 11.2374C98.5326 11.5494 98.9565 11.9861 99.2557 12.5476C99.5541 13.1091 99.7036 13.7642 99.7036 14.5129C99.7036 15.0696 99.6188 15.576 99.4485 16.0319C99.2789 16.4879 99.0341 16.8814 98.7134 17.2125C98.3926 17.5437 98.0063 17.7981 97.5535 17.9756C97.1008 18.1532 96.5913 18.242 96.0257 18.242ZM96.8744 16.0535C97.352 16.0535 97.7903 16.0079 98.1902 15.9167C98.5894 15.8255 98.9093 15.6696 99.1517 15.4488C99.3941 15.228 99.5148 14.9161 99.5148 14.5129C99.5148 14.1002 99.3941 13.7834 99.1517 13.5627C98.9093 13.3419 98.5894 13.1883 98.1902 13.1019C97.7903 13.0155 97.352 12.9724 96.8744 12.9724C96.2329 12.9724 95.7362 13.0995 95.3842 13.3539C95.0323 13.6083 94.8563 13.9946 94.8563 14.5129C94.8563 14.8489 94.9347 15.132 95.0923 15.3624C95.2491 15.5928 95.4786 15.7655 95.7802 15.8807C96.0825 15.9959 96.4465 16.0535 96.8744 16.0535ZM99.5148 10.9854H101.778V18.0404H99.6468C99.6468 18.0404 99.6356 17.93 99.614 17.7093C99.5916 17.4885 99.57 17.1718 99.5476 16.759C99.5261 16.3463 99.5148 15.8615 99.5148 15.3048V10.9854Z" fill="#FCFCFC"/>
<path d="M103.937 10.9854H106.2V18.0404H103.937V10.9854ZM108.633 13.6491C108.224 13.6491 107.85 13.7067 107.511 13.8218C107.171 13.937 106.882 14.0738 106.643 14.2322C106.404 14.3906 106.225 14.5465 106.105 14.7001L106.087 14.009C106.105 13.8074 106.156 13.5699 106.237 13.2963C106.319 13.0227 106.429 12.7396 106.567 12.4468C106.706 12.1541 106.875 11.8805 107.077 11.6261C107.278 11.3718 107.509 11.1654 107.77 11.007C108.03 10.8487 108.318 10.7695 108.633 10.7695V13.6491Z" fill="#FCFCFC"/>
<path d="M113.978 18.242C113.299 18.242 112.696 18.0956 112.168 17.8029C111.64 17.5101 111.224 17.0854 110.919 16.5287C110.613 15.9719 110.461 15.3 110.461 14.5129C110.461 13.6874 110.613 12.9964 110.919 12.4396C111.224 11.8829 111.64 11.4654 112.168 11.187C112.696 10.9087 113.299 10.7695 113.978 10.7695C114.733 10.7695 115.385 10.9254 115.935 11.2374C116.485 11.5494 116.91 11.9861 117.208 12.5476C117.507 13.1091 117.656 13.7642 117.656 14.5129C117.656 15.0696 117.571 15.576 117.402 16.0319C117.232 16.4879 116.987 16.8814 116.666 17.2125C116.345 17.5437 115.959 17.7981 115.506 17.9756C115.053 18.1532 114.545 18.242 113.978 18.242ZM114.827 16.0535C115.305 16.0535 115.744 16.0079 116.143 15.9167C116.542 15.8255 116.863 15.6696 117.104 15.4488C117.347 15.228 117.467 14.9161 117.467 14.5129C117.467 14.1002 117.347 13.7834 117.104 13.5627C116.863 13.3419 116.542 13.1883 116.143 13.1019C115.744 13.0155 115.305 12.9724 114.827 12.9724C114.186 12.9724 113.69 13.0995 113.338 13.3539C112.985 13.6083 112.809 13.9946 112.809 14.5129C112.809 14.8489 112.888 15.132 113.045 15.3624C113.202 15.5928 113.431 15.7655 113.734 15.8807C114.035 15.9959 114.4 16.0535 114.827 16.0535ZM117.467 10.9854H119.731V18.0404H117.599C117.599 18.0404 117.589 17.93 117.567 17.7093C117.545 17.4885 117.523 17.1718 117.501 16.759C117.479 16.3463 117.467 15.8615 117.467 15.3048V10.9854Z" fill="#FCFCFC"/>
<path d="M121.889 10.9854H124.153V18.0404H121.889V10.9854ZM127.548 10.7695C127.918 10.7695 128.276 10.8295 128.623 10.9494C128.968 11.0694 129.278 11.2734 129.551 11.5613C129.825 11.8493 130.043 12.2429 130.206 12.742C130.37 13.2411 130.452 13.8698 130.452 14.6281V18.0404H128.188V15.06C128.188 14.3401 128.066 13.829 127.821 13.5267C127.576 13.2243 127.133 13.0731 126.491 13.0731C126.152 13.0731 125.823 13.1307 125.506 13.2459C125.188 13.3611 124.904 13.4979 124.652 13.6563C124.401 13.8146 124.203 13.9706 124.059 14.1242L124.039 13.5771C124.065 13.4043 124.151 13.1619 124.299 12.85C124.446 12.538 124.662 12.2237 124.945 11.9069C125.228 11.5901 125.585 11.3214 126.015 11.1006C126.445 10.8799 126.957 10.7695 127.548 10.7695Z" fill="#FCFCFC"/>
</svg>
