<svg width="22" height="23" viewBox="0 0 22 23" fill="none" xmlns="http://www.w3.org/2000/svg">
<path d="M10.3079 2.38551C10.5645 1.77074 11.4355 1.77074 11.6921 2.38551L13.8937 7.6594C13.9962 7.90509 14.2214 8.07799 14.4852 8.1137L20.2876 8.89902C20.9378 8.98702 21.1695 9.80851 20.6612 10.2233L16.1809 13.8794C15.9594 14.0601 15.86 14.351 15.9244 14.6295L17.3568 20.8194C17.5119 21.4896 16.7583 21.9976 16.1953 21.6024L11.4309 18.2585C11.1723 18.077 10.8277 18.077 10.5691 18.2585L5.8047 21.6024C5.24167 21.9976 4.48807 21.4896 4.64315 20.8194L6.07545 14.6295C6.1399 14.351 6.04042 14.0601 5.81895 13.8794L1.3388 10.2233C0.830477 9.8085 1.06222 8.98702 1.7124 8.89903L7.51479 8.1137C7.77862 8.07799 8.00375 7.90509 8.10631 7.6594L10.3079 2.38551Z" stroke="#14142B" stroke-width="2" stroke-miterlimit="3.3292" stroke-linecap="round" stroke-linejoin="round"/>
</svg>
