<svg width="16" height="16" viewBox="0 0 16 16" fill="none" xmlns="http://www.w3.org/2000/svg">
<path d="M7.30797 2.32466C7.5646 1.70989 8.43556 1.70989 8.6922 2.32466L9.87401 5.15571C9.97657 5.4014 10.2017 5.5743 10.4655 5.61001L13.621 6.03709C14.2712 6.12508 14.5029 6.94657 13.9946 7.36139L11.5746 9.33615C11.3531 9.51689 11.2537 9.80781 11.3181 10.0863L12.0908 13.4252C12.2458 14.0954 11.4923 14.6034 10.9292 14.2082L8.43094 12.4548C8.17237 12.2733 7.82779 12.2733 7.56922 12.4548L5.07091 14.2082C4.50787 14.6034 3.75428 14.0954 3.90935 13.4253L4.68196 10.0863C4.7464 9.80781 4.64693 9.51689 4.42546 9.33616L2.00555 7.36139C1.49722 6.94657 1.72897 6.12509 2.37914 6.03709L5.53463 5.61001C5.79846 5.5743 6.02359 5.4014 6.12615 5.15571L7.30797 2.32466Z" stroke="#B8A888" stroke-width="2" stroke-miterlimit="3.3292" stroke-linecap="round" stroke-linejoin="round"/>
</svg>
