<svg width="25" height="25" viewBox="0 0 25 25" fill="none" xmlns="http://www.w3.org/2000/svg">
<path fill-rule="evenodd" clip-rule="evenodd" d="M13.7872 1.93066C14.1202 2.10206 14.3296 2.44524 14.3296 2.81983V6.80521L20.9108 11.5061C21.1736 11.6938 21.3296 11.9969 21.3296 12.3198V21.8198H22.8296C23.3819 21.8198 23.8296 22.2675 23.8296 22.8198C23.8296 23.3721 23.3819 23.8198 22.8296 23.8198H2.82959C2.27731 23.8198 1.82959 23.3721 1.82959 22.8198C1.82959 22.2675 2.27731 21.8198 2.82959 21.8198H5.32959V7.81983C5.32959 7.49688 5.48556 7.19381 5.74835 7.00609L12.7484 2.00609C13.0532 1.78837 13.4541 1.75926 13.7872 1.93066ZM7.32959 21.8198H12.3296V7.33147C12.3295 7.32315 12.3295 7.31482 12.3296 7.30649V4.76302L7.32959 8.33445V21.8198ZM14.3296 9.26302V21.8198H19.3296V12.8344L14.3296 9.26302Z" fill="#FCFCFC"/>
</svg>
