<svg width="40" height="41" viewBox="0 0 40 41" fill="none" xmlns="http://www.w3.org/2000/svg">
<path d="M0 20.5288C0 9.48311 8.95431 0.528809 20 0.528809C31.0457 0.528809 40 9.48311 40 20.5288C40 31.5745 31.0457 40.5288 20 40.5288C8.95431 40.5288 0 31.5745 0 20.5288Z" fill="white" fill-opacity="0.22"/>
<path d="M28.1488 20.529C28.1488 25.0291 24.5008 28.6772 20.0007 28.6772C15.5006 28.6772 11.8525 25.0291 11.8525 20.529C11.8525 16.0289 15.5006 12.3809 20.0007 12.3809C24.5008 12.3809 28.1488 16.0289 28.1488 20.529Z" stroke="#FCFCFC" stroke-width="2"/>
<path d="M20 16.8252V20.5289" stroke="#FCFCFC" stroke-width="2" stroke-linecap="round" stroke-linejoin="round"/>
<path d="M20 23.4922V23.8626" stroke="#FCFCFC" stroke-width="2" stroke-linecap="round" stroke-linejoin="round"/>
</svg>
