<svg width="216" height="47" viewBox="0 0 216 47" fill="none" xmlns="http://www.w3.org/2000/svg">
<path d="M0.246099 12.439L14.1844 2.17879V12.439L0.246099 22.6991V12.439Z" fill="#FCFCFC"/>
<path d="M0.246094 32.9558L14.1844 43.216V32.9558L0.246094 22.6957V32.9558Z" fill="#FCFCFC"/>
<path d="M28.1228 22.6957L42.0611 12.4355L28.1228 2.17529L14.1845 12.4355V22.6957L21.1536 27.8258L14.1844 32.9558L28.1228 43.2161L42.0611 32.9559L28.1228 22.6957Z" fill="#FCFCFC"/>
<path d="M52.3759 12.4345H56.0152V28.412H52.3759V12.4345ZM65.2364 17.0656L59.2313 23.4335L59.3059 20.4232L65.7522 28.412H61.1416L56.0757 21.9515L60.4135 17.0656H65.2364Z" fill="#FCFCFC"/>
<path d="M73.3641 28.7362C72.2719 28.7362 71.3019 28.5007 70.4516 28.0299C69.6025 27.5591 68.9323 26.876 68.4421 25.9806C67.952 25.0853 67.7063 24.0047 67.7063 22.7388C67.7063 21.4112 67.952 20.2998 68.4421 19.4044C68.9323 18.509 69.6025 17.8375 70.4516 17.3898C71.3019 16.9422 72.2719 16.7183 73.3641 16.7183C74.5772 16.7183 75.6256 16.9692 76.5107 17.4709C77.3957 17.9726 78.0775 18.675 78.5587 19.578C79.0385 20.4811 79.2791 21.5347 79.2791 22.7388C79.2791 23.6342 79.1427 24.4485 78.8687 25.1818C78.596 25.915 78.2023 26.5479 77.6864 27.0805C77.1706 27.6131 76.5493 28.0222 75.8211 28.3078C75.093 28.5934 74.2736 28.7362 73.3641 28.7362ZM74.729 25.2165C75.497 25.2165 76.2019 25.1432 76.8451 24.9965C77.4871 24.8499 78.0016 24.599 78.3914 24.244C78.7812 23.8889 78.9755 23.3872 78.9755 22.7388C78.9755 22.075 78.7812 21.5656 78.3914 21.2105C78.0016 20.8555 77.4871 20.6085 76.8451 20.4695C76.2019 20.3306 75.497 20.2611 74.729 20.2611C73.6972 20.2611 72.8984 20.4657 72.3323 20.8748C71.7663 21.2838 71.4833 21.9052 71.4833 22.7388C71.4833 23.2791 71.6093 23.7345 71.8628 24.105C72.1149 24.4755 72.4841 24.7534 72.9691 24.9386C73.4554 25.1238 74.0407 25.2165 74.729 25.2165ZM78.9755 17.0656H82.6148V28.412H79.1877C79.1877 28.412 79.1697 28.2345 79.135 27.8794C79.099 27.5243 79.0642 27.0149 79.0282 26.3511C78.9935 25.6873 78.9755 24.9077 78.9755 24.0124V17.0656Z" fill="#FCFCFC"/>
<path d="M86.0869 17.0656H89.7262V28.412H86.0869V17.0656ZM95.1858 16.7183C95.7827 16.7183 96.3591 16.8148 96.9148 17.0078C97.4718 17.2007 97.9697 17.5288 98.4096 17.9919C98.8496 18.455 99.2008 19.0879 99.4632 19.8907C99.7256 20.6934 99.8581 21.7045 99.8581 22.9241V28.412H96.2175V23.6187C96.2175 22.4609 96.0207 21.6389 95.6258 21.1526C95.2321 20.6664 94.5195 20.4232 93.4877 20.4232C92.9423 20.4232 92.4135 20.5159 91.9028 20.7011C91.3921 20.8864 90.9342 21.1063 90.5302 21.3611C90.1263 21.6158 89.8072 21.8666 89.5744 22.1136L89.5448 21.2337C89.5847 20.9558 89.7236 20.566 89.9616 20.0643C90.1996 19.5626 90.5456 19.057 91.001 18.5476C91.4552 18.0382 92.0289 17.606 92.7223 17.2509C93.4144 16.8958 94.2364 16.7183 95.1858 16.7183ZM105.135 16.7183C105.732 16.7183 106.308 16.8148 106.864 17.0078C107.421 17.2007 107.919 17.5288 108.358 17.9919C108.798 18.455 109.149 19.0879 109.412 19.8907C109.675 20.6934 109.806 21.7045 109.806 22.9241V28.412H106.167V23.6187C106.167 22.4609 105.97 21.6389 105.575 21.1526C105.181 20.6664 104.469 20.4232 103.437 20.4232C102.89 20.4232 102.363 20.5159 101.852 20.7011C101.341 20.8864 100.883 21.1063 100.479 21.3611C100.076 21.6158 99.7565 21.8666 99.5237 22.1136L99.4941 21.0021C99.5339 20.7706 99.6857 20.4232 99.9482 19.9601C100.212 19.497 100.582 19.0184 101.064 18.5245C101.543 18.0305 102.125 17.606 102.808 17.2509C103.49 16.8958 104.265 16.7183 105.135 16.7183Z" fill="#FCFCFC"/>
<path d="M118.783 28.7362C117.692 28.7362 116.721 28.5007 115.872 28.0299C115.023 27.5591 114.352 26.876 113.862 25.9806C113.372 25.0853 113.126 24.0047 113.126 22.7388C113.126 21.4112 113.372 20.2998 113.862 19.4044C114.352 18.509 115.023 17.8375 115.872 17.3898C116.721 16.9422 117.692 16.7183 118.783 16.7183C119.996 16.7183 121.046 16.9692 121.931 17.4709C122.815 17.9726 123.498 18.675 123.977 19.578C124.459 20.4811 124.698 21.5347 124.698 22.7388C124.698 23.6342 124.562 24.4485 124.289 25.1818C124.016 25.915 123.621 26.5479 123.105 27.0805C122.589 27.6131 121.968 28.0222 121.24 28.3078C120.512 28.5934 119.694 28.7362 118.783 28.7362ZM120.148 25.2165C120.917 25.2165 121.622 25.1432 122.264 24.9965C122.906 24.8499 123.422 24.599 123.812 24.244C124.2 23.8889 124.394 23.3872 124.394 22.7388C124.394 22.075 124.2 21.5656 123.812 21.2105C123.422 20.8555 122.906 20.6085 122.264 20.4695C121.622 20.3306 120.917 20.2611 120.148 20.2611C119.117 20.2611 118.318 20.4657 117.752 20.8748C117.186 21.2838 116.902 21.9052 116.902 22.7388C116.902 23.2791 117.029 23.7345 117.282 24.105C117.535 24.4755 117.904 24.7534 118.389 24.9386C118.874 25.1238 119.461 25.2165 120.148 25.2165ZM124.394 17.0656H128.035V28.412H124.607C124.607 28.412 124.59 28.2345 124.554 27.8794C124.519 27.5243 124.483 27.0149 124.448 26.3511C124.412 25.6873 124.394 24.9077 124.394 24.0124V17.0656Z" fill="#FCFCFC"/>
<path d="M141.788 28.412V24.1976C141.788 23.503 141.698 22.9163 141.515 22.4378C141.334 21.9592 141.012 21.6003 140.553 21.3611C140.093 21.1218 139.443 21.0021 138.604 21.0021C138.128 21.0021 137.666 21.0677 137.216 21.199C136.766 21.3302 136.362 21.4884 136.003 21.6736C135.644 21.8589 135.359 22.0441 135.146 22.2294L135.115 21.1179C135.157 20.8863 135.296 20.5351 135.532 20.0643C135.77 19.5935 136.116 19.0995 136.572 18.5824C137.027 18.0652 137.601 17.6253 138.293 17.2625C138.985 16.8997 139.807 16.7183 140.758 16.7183C141.355 16.7183 141.931 16.8032 142.487 16.973C143.042 17.1428 143.54 17.4246 143.98 17.8182C144.42 18.2119 144.771 18.7406 145.034 19.4044C145.298 20.0682 145.429 20.8941 145.429 21.8821V28.412H141.788ZM131.657 28.412V12.4345H135.298V28.412H131.657Z" fill="#FCFCFC"/>
<path d="M154.405 28.7362C153.313 28.7362 152.343 28.5007 151.493 28.0299C150.644 27.5591 149.974 26.876 149.484 25.9806C148.993 25.0853 148.748 24.0047 148.748 22.7388C148.748 21.4112 148.993 20.2998 149.484 19.4044C149.974 18.509 150.644 17.8375 151.493 17.3898C152.343 16.9422 153.313 16.7183 154.405 16.7183C155.619 16.7183 156.667 16.9692 157.552 17.4709C158.437 17.9726 159.119 18.675 159.6 19.578C160.08 20.4811 160.321 21.5347 160.321 22.7388C160.321 23.6342 160.184 24.4485 159.91 25.1818C159.637 25.915 159.244 26.5479 158.728 27.0805C158.212 27.6131 157.591 28.0222 156.863 28.3078C156.134 28.5934 155.315 28.7362 154.405 28.7362ZM155.77 25.2165C156.538 25.2165 157.243 25.1432 157.887 24.9965C158.529 24.8499 159.043 24.599 159.433 24.244C159.823 23.8889 160.017 23.3872 160.017 22.7388C160.017 22.075 159.823 21.5656 159.433 21.2105C159.043 20.8555 158.529 20.6085 157.887 20.4695C157.243 20.3306 156.538 20.2611 155.77 20.2611C154.739 20.2611 153.94 20.4657 153.374 20.8748C152.808 21.2838 152.525 21.9052 152.525 22.7388C152.525 23.2791 152.651 23.7345 152.904 24.105C153.156 24.4755 153.526 24.7534 154.011 24.9386C154.497 25.1238 155.082 25.2165 155.77 25.2165ZM160.017 17.0656H163.656V28.412H160.229C160.229 28.412 160.211 28.2345 160.176 27.8794C160.14 27.5243 160.106 27.0149 160.07 26.3511C160.035 25.6873 160.017 24.9077 160.017 24.0124V17.0656Z" fill="#FCFCFC"/>
<path d="M167.128 17.0656H170.768V28.412H167.128V17.0656ZM174.681 21.3495C174.024 21.3495 173.422 21.4421 172.876 21.6274C172.331 21.8126 171.865 22.0326 171.48 22.2873C171.097 22.542 170.809 22.7928 170.616 23.0398L170.586 21.9283C170.616 21.6042 170.697 21.2221 170.828 20.7821C170.961 20.3422 171.137 19.8868 171.359 19.4159C171.582 18.9451 171.855 18.5051 172.179 18.0961C172.502 17.687 172.873 17.3551 173.293 17.1004C173.712 16.8457 174.175 16.7183 174.681 16.7183V21.3495Z" fill="#FCFCFC"/>
<path d="M183.278 28.7362C182.186 28.7362 181.216 28.5007 180.367 28.0299C179.517 27.5591 178.848 26.876 178.358 25.9806C177.866 25.0853 177.622 24.0047 177.622 22.7388C177.622 21.4112 177.866 20.2998 178.358 19.4044C178.848 18.509 179.517 17.8375 180.367 17.3898C181.216 16.9422 182.186 16.7183 183.278 16.7183C184.491 16.7183 185.541 16.9692 186.425 17.4709C187.31 17.9726 187.993 18.675 188.473 19.578C188.953 20.4811 189.193 21.5347 189.193 22.7388C189.193 23.6342 189.057 24.4485 188.784 25.1818C188.511 25.915 188.116 26.5479 187.601 27.0805C187.085 27.6131 186.463 28.0222 185.735 28.3078C185.007 28.5934 184.189 28.7362 183.278 28.7362ZM184.643 25.2165C185.412 25.2165 186.117 25.1432 186.759 24.9965C187.401 24.8499 187.917 24.599 188.306 24.244C188.695 23.8889 188.89 23.3872 188.89 22.7388C188.89 22.075 188.695 21.5656 188.306 21.2105C187.917 20.8555 187.401 20.6085 186.759 20.4695C186.117 20.3306 185.412 20.2611 184.643 20.2611C183.613 20.2611 182.814 20.4657 182.248 20.8748C181.68 21.2838 181.397 21.9052 181.397 22.7388C181.397 23.2791 181.525 23.7345 181.777 24.105C182.03 24.4755 182.398 24.7534 182.885 24.9386C183.369 25.1238 183.956 25.2165 184.643 25.2165ZM188.89 17.0656H192.53V28.412H189.102C189.102 28.412 189.085 28.2345 189.049 27.8794C189.014 27.5243 188.978 27.0149 188.944 26.3511C188.908 25.6873 188.89 24.9077 188.89 24.0124V17.0656Z" fill="#FCFCFC"/>
<path d="M196.001 17.0656H199.642V28.412H196.001V17.0656ZM205.101 16.7183C205.697 16.7183 206.273 16.8148 206.83 17.0078C207.386 17.2007 207.884 17.5288 208.324 17.9919C208.764 18.455 209.115 19.0879 209.377 19.8907C209.641 20.6934 209.772 21.7045 209.772 22.9241V28.412H206.132V23.6187C206.132 22.4609 205.935 21.6389 205.541 21.1526C205.146 20.6664 204.434 20.4232 203.402 20.4232C202.856 20.4232 202.328 20.5159 201.817 20.7011C201.306 20.8864 200.85 21.1063 200.444 21.3611C200.04 21.6158 199.721 21.8666 199.49 22.1136L199.459 21.2337C199.5 20.9558 199.639 20.566 199.876 20.0643C200.114 19.5626 200.46 19.057 200.915 18.5476C201.371 18.0382 201.944 17.606 202.636 17.2509C203.329 16.8958 204.151 16.7183 205.101 16.7183Z" fill="#FCFCFC"/>
</svg>
