<svg width="1440" height="544" viewBox="0 0 1440 544" fill="none" xmlns="http://www.w3.org/2000/svg">
<path fill-rule="evenodd" clip-rule="evenodd" d="M1440 543.423V0H1200.66L1203.74 23.1035L1211.32 35.7325V50.8875H1221.42V124.136C1229.84 130.872 1247.69 147.374 1251.73 159.498C1255.77 171.622 1258.47 198.227 1259.31 210.014H1274.46V263.057H1259.31V543.423H1274.46V525.742H1289.62V543.423H1312.35V401.977L1327.51 417.132V376.718L1342.66 396.925L1360.34 333.779L1378.02 396.925L1393.18 376.718V417.132L1408.33 401.977V543.423H1440ZM1196.72 0H936.273L978.942 341.357H989.045L1004.2 432.287H1019.36V396.925H1039.56V432.287H1054.72V396.925H1074.92V432.287H1090.08V396.925H1110.28V432.287H1135.54V263.057H1120.39V210.014H1135.54C1134.7 204.121 1136.05 185.766 1148.17 159.498C1160.3 133.229 1171.75 124.978 1175.96 124.136V50.8875H1186.06V35.7325L1193.64 23.1035L1196.72 0ZM912.683 0L865.28 457.545H799.609V396.925H776.876V364.089H759.196V414.606H728.886L718.782 427.235H690.998V326.202L680.895 341.357L668.266 293.366L655.637 341.357L645.534 326.202V457.545H625.327V194.859L612.698 131.714L600.069 194.859V230.221H584.914V194.859L572.285 131.714L559.656 194.859V230.221H544.501V194.859L531.872 131.714L519.243 194.859V376.718H408.106V260.531H395.477V227.695H380.322V260.531H367.693V336.305H352.538V316.099H337.383V265.582H317.177V316.099H281.815V265.582H261.609V316.099H246.454V336.305H231.299V260.531H218.67V227.695H200.989V260.531H188.36V424.709H155.524V407.028H145.421V424.709H117.637V437.338H89.8528V424.709H64.5945H14.0781V437.338H1.44897V467.648H0V0H912.683Z" fill="#FFE4BC"/>
<path d="M760.411 216.16V262.138H770.628C773.449 262.138 775.736 264.425 775.736 267.246C775.736 270.067 773.449 272.355 770.628 272.355H737.241C736.002 281.019 728.55 287.68 719.542 287.68C710.535 287.68 703.083 281.019 701.843 272.355H668.457C665.635 272.355 663.348 270.067 663.348 267.246C663.348 264.425 665.635 262.138 668.457 262.138H678.674V216.16C678.674 193.589 696.971 175.292 719.542 175.292C742.113 175.292 760.411 193.589 760.411 216.16Z" fill="#FF9800"/>
<circle opacity="0.1" cx="718.628" cy="241.551" r="161.54" stroke="#FFB74D" stroke-width="2.64819" stroke-dasharray="5.3 5.3"/>
<circle opacity="0.9" cx="717.794" cy="240.718" r="96.6591" stroke="#FFB74D" stroke-width="2.64819" stroke-dasharray="5.3 5.3"/>
<circle opacity="0.3" cx="717.958" cy="240.882" r="129.762" stroke="#FFB74D" stroke-width="2.64819" stroke-dasharray="5.3 5.3"/>
</svg>