<svg width="1438" height="573" viewBox="0 0 1438 573" fill="none" xmlns="http://www.w3.org/2000/svg">
<path fill-rule="evenodd" clip-rule="evenodd" d="M1440.1 -0.135254H0.480469V573C169.902 513.282 430.396 475.037 722.54 475.037C1012.11 475.037 1270.58 512.611 1440.1 571.427V-0.135254Z" fill="#B2E7B1"/>
<circle cx="719.36" cy="247.358" r="122.749" fill="#8B9B8B"/>
<path fill-rule="evenodd" clip-rule="evenodd" d="M679.905 206.043C690.235 195.714 704.52 189.316 720.29 189.316C736.059 189.316 750.345 195.714 760.674 206.043C771.004 216.373 777.402 230.658 777.402 246.428C777.402 262.198 771.004 276.483 760.674 286.813C750.345 297.142 736.059 303.541 720.29 303.541C704.52 303.541 690.235 297.142 679.905 286.813C669.576 276.483 663.177 262.198 663.177 246.428C663.177 230.658 669.576 216.373 679.905 206.043ZM749.921 234.523C751.949 232.496 751.949 229.208 749.921 227.181C747.894 225.153 744.606 225.153 742.579 227.181L715.098 254.662L703.193 242.757C701.165 240.729 697.878 240.729 695.85 242.757C693.823 244.784 693.823 248.072 695.85 250.099L711.426 265.676C713.454 267.703 716.741 267.703 718.769 265.676L749.921 234.523Z" fill="#F7FDF7"/>
</svg>