<svg width="1437" height="568" viewBox="0 0 1437 568" fill="none" xmlns="http://www.w3.org/2000/svg">
<path fill-rule="evenodd" clip-rule="evenodd" d="M1436.09 -5.63556H-3.5332V567.5C165.888 507.782 426.383 469.537 718.526 469.537C1008.1 469.537 1266.57 507.111 1436.09 565.927V-5.63556Z" fill="#B7D6F5"/>
<path d="M776.207 260.877L716.277 351.842L656.347 260.877C649.498 250.557 645.536 238.343 645.536 225.253C645.536 188.241 677.208 158.236 716.277 158.236C755.346 158.236 787.018 188.241 787.018 225.253C787.018 238.343 783.056 250.557 776.207 260.877Z" fill="#1A2B3C"/>
<path d="M702.315 199.191C691.177 199.191 682.147 208.22 682.147 219.358C682.147 229.082 687.844 237.972 694.487 244.681C701.159 251.419 709.32 256.503 715.298 258.489C715.934 258.7 716.62 258.7 717.255 258.489C723.233 256.503 731.394 251.419 738.067 244.681C744.71 237.972 750.406 229.082 750.406 219.358C750.406 208.22 741.377 199.191 730.239 199.191C724.818 199.191 719.898 201.331 716.277 204.806C712.656 201.331 707.735 199.191 702.315 199.191Z" fill="#B7D6F5"/>
<circle opacity="0.1" cx="712.554" cy="242.008" r="227.115" stroke="#466D93" stroke-width="3.72319" stroke-dasharray="7.45 7.45"/>
<circle opacity="0.9" cx="712.554" cy="242.008" r="135.897" stroke="#466D93" stroke-width="3.72319" stroke-dasharray="7.45 7.45"/>
<circle opacity="0.3" cx="712.553" cy="242.008" r="182.436" stroke="#466D93" stroke-width="3.72319" stroke-dasharray="7.45 7.45"/>
<path d="M936.861 383.122L890.336 453.74L843.811 383.122C838.494 375.111 835.419 365.629 835.419 355.467C835.419 326.734 860.006 303.44 890.336 303.44C920.666 303.44 945.253 326.734 945.253 355.467C945.253 365.629 942.178 375.111 936.861 383.122Z" fill="#D8E9FA"/>
<rect width="57.8075" height="57.8075" transform="translate(861.432 328.008)" fill="#D8E9FA"/>
<path fill-rule="evenodd" clip-rule="evenodd" d="M875.884 344.868V352.094H871.067C868.406 352.094 866.25 354.251 866.25 356.912V378.589C866.25 381.25 868.406 383.407 871.067 383.407H909.605C912.266 383.407 914.422 381.25 914.422 378.589V356.912C914.422 354.251 912.266 352.094 909.605 352.094H904.788V344.868C904.788 336.887 898.317 330.417 890.336 330.417C882.354 330.417 875.884 336.887 875.884 344.868ZM890.336 335.234C885.015 335.234 880.701 339.547 880.701 344.868V352.094H899.971V344.868C899.971 339.547 895.657 335.234 890.336 335.234ZM892.745 364.138C892.745 362.807 891.666 361.729 890.336 361.729C889.006 361.729 887.927 362.807 887.927 364.138V371.363C887.927 372.694 889.006 373.772 890.336 373.772C891.666 373.772 892.745 372.694 892.745 371.363V364.138Z" fill="#466D93"/>
<path d="M586.015 392.285L545.01 454.524L504.005 392.285C499.319 385.224 496.608 376.867 496.608 367.911C496.608 342.586 518.278 322.057 545.01 322.057C571.741 322.057 593.411 342.586 593.411 367.911C593.411 376.867 590.701 385.224 586.015 392.285Z" fill="#8B9B8B"/>
<path d="M563.771 349.642C564.598 350.474 564.595 351.818 563.763 352.645L561.435 354.96L565.684 359.187C566.085 359.585 566.31 360.127 566.31 360.692C566.31 361.257 566.085 361.799 565.684 362.197L558.961 368.884C558.133 369.708 556.795 369.708 555.967 368.884L551.703 364.642L546.699 369.619C548.885 372.655 549.633 376.54 548.65 380.225C547.481 384.603 544.045 388.042 539.638 389.19C535.244 390.349 530.559 389.079 527.362 385.855L527.346 385.839C522.533 380.882 522.602 372.998 527.501 368.125C531.892 363.757 538.711 363.254 543.66 366.653L550.179 360.169C550.187 360.16 550.196 360.151 550.205 360.142L556.928 353.455C556.936 353.447 556.945 353.438 556.954 353.43L560.769 349.634C561.6 348.808 562.944 348.811 563.771 349.642Z" fill="#535F53"/>
<path d="M685.805 417.909L661.36 455.013L636.914 417.909C634.121 413.7 632.505 408.718 632.505 403.379C632.505 388.281 645.424 376.042 661.36 376.042C677.296 376.042 690.214 388.281 690.214 403.379C690.214 408.718 688.599 413.7 685.805 417.909Z" fill="#F7FDF7"/>
<path d="M655.665 392.748C651.122 392.748 647.439 396.431 647.439 400.974C647.439 404.941 649.762 408.567 652.472 411.303C655.194 414.052 658.523 416.125 660.961 416.936C661.22 417.022 661.5 417.022 661.759 416.936C664.198 416.125 667.526 414.052 670.248 411.303C672.958 408.567 675.281 404.941 675.281 400.974C675.281 396.431 671.598 392.748 667.055 392.748C664.844 392.748 662.837 393.621 661.36 395.038C659.883 393.621 657.876 392.748 655.665 392.748Z" fill="#8B9B8B"/>
</svg>