<svg width="1439" height="592" viewBox="0 0 1439 592" fill="none" xmlns="http://www.w3.org/2000/svg">
<path d="M18.4055 591.858H-1.75V-11.4854H1438.25V585.139H1409.14V459.727L1395.7 473.164V437.332L1382.26 455.248L1366.59 399.26L1350.91 455.248L1337.47 437.332V473.164L1324.04 459.727V585.139H1303.88V569.463H1290.44V585.139H1277.01V336.554H1290.44V289.525H1277.01C1276.26 279.074 1273.87 255.484 1270.29 244.735C1266.7 233.985 1250.88 219.354 1243.41 213.382V148.436H1234.46V134.999L1227.74 123.802L1223.26 90.2091L1218.78 123.802L1212.06 134.999V148.436H1203.1V213.382C1199.37 214.128 1189.22 221.444 1178.47 244.735C1167.72 268.026 1166.52 284.299 1167.27 289.525H1153.83V336.554H1167.27V486.601H1144.88V455.248H1126.96V486.601H1113.52V455.248H1095.61V486.601H1082.17V455.248H1064.25V486.601H1050.82L1037.38 405.979H1028.42L979.152 11.8265L927.643 508.996H869.416V455.248H849.261V426.134H833.584V470.924H806.71L797.752 482.122H773.118V392.542L764.16 405.979L752.962 363.428L741.765 405.979L732.807 392.542V508.996H714.891V276.088L703.693 220.1L692.496 276.088V307.441H679.059V276.088L667.861 220.1L656.664 276.088V307.441H643.227V276.088L632.029 220.1L620.832 276.088V437.332H522.294V334.315H511.096V305.201H497.659V334.315H486.461V401.5H473.024V383.584H459.587V338.794H441.671V383.584H410.318V338.794H392.402V383.584H378.965V401.5H365.528V334.315H354.331V305.201H338.654V334.315H327.457V479.882H298.343V464.206H289.385V479.882H264.751V491.08H240.116V479.882H217.721H172.931V491.08H161.734V517.954H148.297V473.164H139.339V464.206H130.381V446.29H116.944V356.71H110.225L94.5486 318.638V294.004H72.1536V318.638L58.7166 356.71H51.9981V446.29H38.561V464.206H29.603V473.164H18.4055V591.858Z" fill="#F8A399"/>
<path d="M595.298 373.941L572.117 409.126L548.936 373.941C546.287 369.949 544.755 365.225 544.755 360.162C544.755 345.845 557.005 334.24 572.117 334.24C587.229 334.24 599.479 345.845 599.479 360.162C599.479 365.225 597.947 369.949 595.298 373.941Z" fill="#FDE4E1"/>
<path d="M566.717 350.081C562.409 350.081 558.917 353.574 558.917 357.882C558.917 361.643 561.12 365.082 563.689 367.676C566.27 370.283 569.427 372.249 571.739 373.017C571.985 373.099 572.25 373.099 572.496 373.017C574.808 372.249 577.965 370.283 580.546 367.676C583.115 365.082 585.319 361.643 585.319 357.882C585.319 353.574 581.826 350.081 577.518 350.081C575.421 350.081 573.518 350.909 572.118 352.253C570.717 350.909 568.814 350.081 566.717 350.081Z" fill="#F55C4B"/>
</svg>