<svg width="25" height="25" viewBox="0 0 25 25" fill="none" xmlns="http://www.w3.org/2000/svg">
<path d="M22.7471 12.7326C22.7471 11.8693 22.6756 11.2393 22.5209 10.5859H12.4614V14.4826H18.3661C18.2471 15.4509 17.6043 16.9093 16.1757 17.8892L16.1557 18.0197L19.3363 20.4344L19.5566 20.4559C21.5804 18.6242 22.7471 15.9292 22.7471 12.7326Z" fill="#4285F4"/>
<path d="M12.4601 22.9996C15.3529 22.9996 17.7814 22.0662 19.5553 20.4562L16.1743 17.8895C15.2696 18.5078 14.0553 18.9395 12.4601 18.9395C9.62679 18.9395 7.22205 17.1079 6.36483 14.5762L6.23918 14.5866L2.93192 17.095L2.88867 17.2128C4.65055 20.6428 8.26959 22.9996 12.4601 22.9996Z" fill="#34A853"/>
<path d="M6.36656 14.5775C6.14037 13.9241 6.00947 13.2241 6.00947 12.5008C6.00947 11.7774 6.14037 11.0774 6.35466 10.4241L6.34866 10.285L2.99995 7.73633L2.89039 7.7874C2.16423 9.21075 1.74756 10.8091 1.74756 12.5008C1.74756 14.1924 2.16423 15.7907 2.89039 17.2141L6.36656 14.5775Z" fill="#FBBC05"/>
<path d="M12.4601 6.05997C14.472 6.05997 15.8291 6.91163 16.603 7.62335L19.6268 4.73C17.7697 3.03834 15.353 2 12.4601 2C8.26962 2 4.65056 4.35665 2.88867 7.78662L6.35295 10.4233C7.22208 7.89166 9.62682 6.05997 12.4601 6.05997Z" fill="#EB4335"/>
</svg>
