<svg width="33" height="33" viewBox="0 0 33 33" fill="none" xmlns="http://www.w3.org/2000/svg">
<path d="M12.0348 28.5C8.79984 28.5 5.78427 27.5591 3.24609 25.9356C5.40109 26.0751 9.20416 25.7411 11.5697 23.4848C8.01117 23.3215 6.40636 20.5923 6.19703 19.426C6.49939 19.5426 7.9414 19.6826 8.75543 19.356C4.66199 18.3296 4.03402 14.7373 4.17357 13.641C4.94109 14.1775 6.24355 14.3641 6.75523 14.3174C2.94089 11.5882 4.31312 7.48276 4.98761 6.59635C7.72492 10.3887 11.8273 12.5186 16.9025 12.637C16.8068 12.2174 16.7562 11.7804 16.7562 11.3316C16.7562 8.11092 19.3595 5.5 22.5708 5.5C24.2486 5.5 25.7605 6.21275 26.8218 7.35284C27.943 7.09011 29.6304 6.47507 30.4553 5.9432C30.0395 7.43611 28.745 8.68149 27.962 9.14308C27.9556 9.12731 27.9685 9.15878 27.962 9.14308C28.6498 9.03904 30.5109 8.68137 31.2461 8.18256C30.8825 9.02125 29.5101 10.4157 28.3838 11.1964C28.5934 20.4381 21.5226 28.5 12.0348 28.5Z" fill="#47ACDF"/>
</svg>
