<svg width="24" height="24" viewBox="0 0 24 24" fill="none" xmlns="http://www.w3.org/2000/svg">
<path fill-rule="evenodd" clip-rule="evenodd" d="M15.7213 2.37267C15.9111 2.13702 16.1974 2 16.5 2H22C22.385 2 22.7358 2.22104 22.902 2.56833C23.0682 2.91563 23.0203 3.3275 22.7788 3.62733L16.0341 12L22.7788 20.3727C23.0203 20.6725 23.0682 21.0844 22.902 21.4317C22.7358 21.779 22.385 22 22 22H16.5C16.1974 22 15.9111 21.863 15.7213 21.6273L12 17.0079L8.27876 21.6273C8.08893 21.863 7.80261 22 7.50001 22H2.00001C1.61499 22 1.26417 21.779 1.09798 21.4317C0.931778 21.0844 0.979725 20.6725 1.22126 20.3727L7.96591 12L1.22126 3.62733C0.979725 3.3275 0.931778 2.91563 1.09798 2.56833C1.26417 2.22104 1.61499 2 2.00001 2H7.50001C7.80261 2 8.08893 2.13702 8.27876 2.37267L12 6.99215L15.7213 2.37267ZM13.2841 8.58621L14.75 10.4059L19.9104 4H16.9786L13.2841 8.58621ZM9.25001 13.5941L4.08967 20H7.02146L10.7159 15.4138L9.25001 13.5941ZM19.9104 20H16.9786L4.08967 4H7.02146L19.9104 20Z" fill="black" fill-opacity="0.85"/>
</svg>
