<svg width="24" height="24" viewBox="0 0 24 24" fill="none" xmlns="http://www.w3.org/2000/svg">
<path d="M12 1C18.0751 1 23 5.92487 23 12C23 18.0751 18.0751 23 12 23H2C1.44772 23 1 22.5523 1 22V12C1 5.92487 5.92487 1 12 1ZM12 3C7.02943 3 3 7.02943 3 12V21H12C16.8818 21 20.8558 17.1132 20.9962 12.2654L21 12C21 7.02943 16.9706 3 12 3ZM17.2072 8.79289C17.5676 9.15338 17.5954 9.72061 17.2903 10.1129L17.2072 10.2071L10.7072 16.7071C10.3467 17.0676 9.77945 17.0953 9.38716 16.7903L9.29295 16.7071L6.2929 13.7071C5.90237 13.3166 5.90237 12.6834 6.29289 12.2929C6.65337 11.9324 7.2206 11.9047 7.61289 12.2097L7.7071 12.2929L10 14.585L15.7929 8.79289C16.1835 8.40237 16.8166 8.40237 17.2072 8.79289Z" fill="black" fill-opacity="0.85"/>
<path fill-rule="evenodd" clip-rule="evenodd" d="M12 3C7.02943 3 3 7.02943 3 12V21H12C16.8818 21 20.8558 17.1132 20.9962 12.2654L21 12C21 7.02943 16.9706 3 12 3ZM17.2903 10.1129C17.5954 9.72061 17.5676 9.15338 17.2072 8.79289C16.8166 8.40237 16.1835 8.40237 15.7929 8.79289L10 14.585L7.7071 12.2929L7.61289 12.2097C7.2206 11.9047 6.65337 11.9324 6.29289 12.2929C5.90237 12.6834 5.90237 13.3166 6.2929 13.7071L9.29295 16.7071L9.38716 16.7903C9.77945 17.0953 10.3467 17.0676 10.7072 16.7071L17.2072 10.2071L17.2903 10.1129Z" fill="#B5F5EC"/>
</svg>
