<svg width="56" height="56" viewBox="0 0 56 56" fill="none" xmlns="http://www.w3.org/2000/svg">
<path fill-rule="evenodd" clip-rule="evenodd" d="M21.1953 3.00635C18.6784 3.00635 16.638 5.04672 16.638 7.56364V28.0715H12.0807C9.56379 28.0715 7.52342 30.1118 7.52342 32.6287V46.3006H5.24477C3.98631 46.3006 2.96613 47.3208 2.96613 48.5793C2.96613 49.8377 3.98631 50.8579 5.24477 50.8579H12.0807H16.638H21.1953H43.9818H50.8177C52.0761 50.8579 53.0963 49.8377 53.0963 48.5793C53.0963 47.3208 52.0761 46.3006 50.8177 46.3006H48.539V7.56364C48.539 5.04672 46.4987 3.00635 43.9818 3.00635H21.1953ZM43.9818 46.3006V7.56364H21.1953V32.6287V46.3006H43.9818ZM16.638 32.6287H12.0807V39.4647V46.3006H16.638V41.4385C16.3028 41.6324 15.9137 41.7433 15.4987 41.7433H14.3594C13.1009 41.7433 12.0807 40.7231 12.0807 39.4647C12.0807 38.2062 13.1009 37.186 14.3594 37.186H15.4987C15.9137 37.186 16.3028 37.297 16.638 37.4909V32.6287ZM30.3099 12.1209H25.7526V16.6782H30.3099V12.1209ZM34.8672 12.1209H39.4245V16.6782H34.8672V12.1209ZM30.3099 20.0962H25.7526V24.6535H30.3099V20.0962ZM34.8672 20.0962H39.4245V24.6535H34.8672V20.0962ZM39.4245 28.0715H34.8672V32.6287H39.4245V28.0715ZM34.8672 36.0467H39.4245V40.604H34.8672V36.0467Z" fill="#FCFCFC"/>
</svg>
