<svg width="56" height="56" viewBox="0 0 56 56" fill="none" xmlns="http://www.w3.org/2000/svg">
<path d="M48.4766 25.7928C49.735 25.7928 50.7552 26.813 50.7552 28.0715C50.7552 34.1951 48.3255 39.9398 44.0813 44.1838C43.0307 45.2345 41.8797 46.1811 40.6453 47.0089C40.3734 47.1912 40.0977 47.3677 39.8183 47.5381L39.362 47.8022V50.8588C39.3615 52.027 38.482 52.9897 37.349 53.1212L37.0834 53.1366H18.8542C17.5927 53.1366 16.5713 52.1117 16.5755 50.8502L16.5847 47.8068L16.1487 47.556L15.3263 47.0317C14.0789 46.1984 12.9165 45.2441 11.8564 44.1839C7.61209 39.9397 5.18231 34.1951 5.18231 28.0715C5.18231 26.813 6.2025 25.7928 7.46096 25.7928H48.4766ZM46.0521 30.3501H9.88316L9.94754 30.8328C10.4976 34.4529 12.1209 37.7941 14.6034 40.468L15.0789 40.9615C15.928 41.8107 16.8591 42.575 17.8577 43.2421C18.5069 43.6757 19.1828 44.0671 19.8814 44.4136C20.6596 44.7994 21.1507 45.5941 21.1477 46.4627L21.1397 48.5793H34.8047L34.8064 46.4458C34.8067 45.6771 35.1938 44.9675 35.8236 44.549L36.0709 44.4061C36.7744 44.0565 37.4545 43.6615 38.107 43.2239C39.0954 42.5611 40.0172 41.803 40.8587 40.9614C43.6095 38.2107 45.4056 34.6791 45.99 30.8328L46.0521 30.3501ZM32.5261 3.00635C33.7845 3.00635 34.8047 4.02653 34.8047 5.28499C34.8047 6.45356 33.9251 7.41668 32.7918 7.54831L32.5261 7.56364C31.3575 7.56364 30.3944 8.4433 30.2627 9.57655L30.2474 9.83773V21.245C30.2474 22.5034 29.2272 23.5236 27.9688 23.5236C26.8002 23.5236 25.8371 22.644 25.7055 21.5107L25.6901 21.245V9.83773L25.7017 9.44062C25.9096 5.8522 28.8855 3.00635 32.5261 3.00635ZM46.1979 7.56364C47.4564 7.56364 48.4766 8.58382 48.4766 9.84228C48.4766 11.0109 47.5969 11.974 46.4637 12.1056L46.1979 12.1209C45.0294 12.1209 44.0662 13.0006 43.9346 14.1338L43.9193 14.3996V21.245C43.9193 22.5034 42.8991 23.5236 41.6406 23.5236C40.4721 23.5236 39.509 22.644 39.3773 21.5107L39.362 21.245V14.395L39.3736 13.9979C39.5815 10.4095 42.5574 7.56364 46.1979 7.56364ZM16.5755 21.245C16.5755 22.5034 15.5554 23.5236 14.2969 23.5236C13.1283 23.5236 12.1652 22.644 12.0336 21.5107L12.0182 21.245V14.395L12.0299 13.9979C12.2378 10.4095 15.2137 7.56364 18.8542 7.56364C20.1126 7.56364 21.1328 8.58382 21.1328 9.84228C21.1328 11.0109 20.2532 11.974 19.1199 12.1056L18.8542 12.1209C17.6856 12.1209 16.7225 13.0006 16.5909 14.1338L16.5755 14.395V21.245Z" fill="#FCFCFC"/>
</svg>
