<svg width="55" height="56" viewBox="0 0 55 56" fill="none" xmlns="http://www.w3.org/2000/svg">
<path fill-rule="evenodd" clip-rule="evenodd" d="M7.14844 16.2223C7.14844 13.0327 10.0159 10.9814 12.8451 10.9814C15.6743 10.9814 18.5417 13.0328 18.5417 16.2223V22.3747H36.7708V16.2223C36.7708 13.0328 39.6382 10.9814 42.4674 10.9814C45.2967 10.9814 48.1641 13.0328 48.1641 16.2223V16.7885C48.5382 16.7157 48.9201 16.6781 49.3034 16.6781C52.1899 16.6781 55 18.8136 55 21.9949V34.1476C55 37.329 52.1899 39.4645 49.3034 39.4645C48.9201 39.4645 48.5382 39.4269 48.1641 39.3541V39.9202C48.1641 43.1098 45.2967 45.1611 42.4674 45.1611C39.6382 45.1611 36.7708 43.1098 36.7708 39.9202V33.7679H18.5417V39.9202C18.5417 43.1098 15.6743 45.1611 12.8451 45.1611C10.0159 45.1611 7.14844 43.1099 7.14844 39.9202V39.3541C6.77427 39.4269 6.39237 39.4645 6.00911 39.4645C3.12268 39.4645 0.3125 37.329 0.3125 34.1476V21.9949C0.3125 18.8136 3.12268 16.6781 6.00911 16.6781C6.39237 16.6781 6.77427 16.7157 7.14844 16.7885V16.2223ZM11.7057 39.9202C11.7057 39.994 11.7348 40.1319 11.9205 40.2929C12.111 40.4579 12.4309 40.6038 12.8451 40.6038C13.2593 40.6038 13.5792 40.4579 13.7696 40.2929C13.9553 40.1319 13.9844 39.9941 13.9844 39.9202V16.2223C13.9844 16.1485 13.9553 16.0107 13.7696 15.8497C13.5792 15.6846 13.2593 15.5387 12.8451 15.5387C12.4309 15.5387 12.111 15.6846 11.9205 15.8497C11.7348 16.0107 11.7057 16.1486 11.7057 16.2223V39.9202ZM7.14844 21.9949C7.14844 21.8784 7.10042 21.717 6.91213 21.5497C6.71966 21.3786 6.40698 21.2354 6.00911 21.2354C5.61125 21.2354 5.29857 21.3786 5.1061 21.5497C4.91781 21.717 4.86979 21.8784 4.86979 21.9949V34.1476C4.86979 34.2641 4.91781 34.4256 5.1061 34.5929C5.29857 34.764 5.61125 34.9072 6.00911 34.9072C6.40698 34.9072 6.71966 34.764 6.91213 34.5929C7.10042 34.4256 7.14844 34.2641 7.14844 34.1476V21.9949ZM18.5417 29.2106H36.7708V26.932H18.5417V29.2106ZM41.3281 39.9202C41.3281 39.9941 41.3572 40.1319 41.5429 40.2929C41.7333 40.4579 42.0532 40.6038 42.4674 40.6038C42.8817 40.6038 43.2016 40.4579 43.392 40.2929C43.5777 40.1319 43.6068 39.9941 43.6068 39.9202V16.2223C43.6068 16.1485 43.5777 16.0107 43.392 15.8497C43.2016 15.6846 42.8817 15.5387 42.4674 15.5387C42.0532 15.5387 41.7333 15.6846 41.5429 15.8497C41.3572 16.0107 41.3281 16.1485 41.3281 16.2223V39.9202ZM48.1641 34.1476C48.1641 34.2642 48.2121 34.4256 48.4004 34.5929C48.5928 34.764 48.9055 34.9072 49.3034 34.9072C49.7013 34.9072 50.014 34.764 50.2064 34.5929C50.3947 34.4256 50.4427 34.2642 50.4427 34.1476V21.9949C50.4427 21.8784 50.3947 21.717 50.2064 21.5496C50.014 21.3786 49.7013 21.2354 49.3034 21.2354C48.9055 21.2354 48.5928 21.3786 48.4004 21.5496C48.2121 21.717 48.1641 21.8784 48.1641 21.9949V34.1476Z" fill="#FCFCFC"/>
</svg>
