<svg width="55" height="56" viewBox="0 0 55 56" fill="none" xmlns="http://www.w3.org/2000/svg">
<path fill-rule="evenodd" clip-rule="evenodd" d="M36.4583 7.56364C30.166 7.56364 25.0651 12.6646 25.0651 18.9569C25.0651 20.885 25.5423 22.6952 26.3831 24.2821C26.8516 25.1663 26.6884 26.2526 25.9809 26.9602L7.77976 45.1613L10.2539 47.6354L28.455 29.4343C29.1625 28.7268 30.2489 28.5636 31.1331 29.0321C32.72 29.8729 34.5301 30.3501 36.4583 30.3501C42.7506 30.3501 47.8515 25.2492 47.8515 18.9569C47.8515 18.185 47.7751 17.4321 47.6294 16.7049L41.4875 22.8468C40.5977 23.7366 39.1549 23.7366 38.265 22.8468L32.5684 17.1501C31.6786 16.2603 31.6786 14.8175 32.5684 13.9277L38.7103 7.78574C37.9831 7.6401 37.2302 7.56364 36.4583 7.56364ZM20.5078 18.9569C20.5078 10.1476 27.6491 3.00635 36.4583 3.00635C39.1482 3.00635 41.689 3.67407 43.9172 4.85472C44.5561 5.19321 44.9964 5.81479 45.1037 6.52975C45.2111 7.24471 44.9728 7.96821 44.4616 8.47943L37.4022 15.5389L39.8763 18.013L46.9357 10.9536C47.447 10.4423 48.1705 10.2041 48.8854 10.3114C49.6004 10.4188 50.222 10.8591 50.5605 11.498C51.741 13.7262 52.4088 16.2669 52.4088 18.9569C52.4088 27.7661 45.2675 34.9074 36.4583 34.9074C34.376 34.9074 32.3832 34.5072 30.5555 33.7788L11.8651 52.4692C10.9753 53.359 9.53251 53.359 8.64264 52.4692L2.94603 46.7725C2.05616 45.8827 2.05616 44.4399 2.94603 43.55L21.6364 24.8597C20.908 23.032 20.5078 21.0392 20.5078 18.9569Z" fill="#FCFCFC"/>
</svg>
