<svg width="136" height="41" viewBox="0 0 136 41" fill="none" xmlns="http://www.w3.org/2000/svg">
<g clip-path="url(#clip0_6901_30084)">
<path d="M124.749 0.198738H11.2566C10.8429 0.198738 10.4342 0.198738 10.0216 0.200738C9.67621 0.202738 9.33358 0.208548 8.98488 0.213438C8.22733 0.22134 7.47157 0.280415 6.72416 0.390148C5.9778 0.502271 5.25482 0.713654 4.57967 1.01715C3.90534 1.32321 3.2892 1.72091 2.75357 2.19581C2.21514 2.66938 1.76632 3.21675 1.42436 3.8169C1.08145 4.41585 0.843683 5.05768 0.719258 5.72022C0.593649 6.38192 0.526059 7.05126 0.517092 7.72222C0.506622 8.02882 0.505517 8.33644 0.5 8.64308V31.7573C0.505517 32.0678 0.506622 32.3686 0.517092 32.6792C0.526061 33.3502 0.593652 34.0195 0.719258 34.6811C0.843339 35.3441 1.08112 35.9863 1.42436 36.5854C1.76616 37.1836 2.21505 37.7288 2.75357 38.1997C3.28717 38.6768 3.90371 39.0747 4.57967 39.3784C5.25481 39.6827 5.97772 39.8954 6.72416 40.0092C7.4717 40.1181 8.22738 40.1772 8.98488 40.186C9.33358 40.1928 9.67621 40.1967 10.0216 40.1967C10.4342 40.1987 10.843 40.1987 11.2566 40.1987H124.749C125.155 40.1987 125.567 40.1987 125.972 40.1967C126.316 40.1967 126.669 40.1928 127.012 40.186C127.768 40.1777 128.523 40.1186 129.269 40.0092C130.018 39.8946 130.743 39.682 131.421 39.3784C132.097 39.0745 132.713 38.6766 133.246 38.1997C133.783 37.727 134.233 37.1822 134.579 36.5854C134.92 35.9858 135.155 35.3437 135.277 34.6811C135.403 34.0194 135.473 33.3502 135.487 32.6792C135.491 32.3686 135.491 32.0678 135.491 31.7573C135.5 31.394 135.5 31.0327 135.5 30.6635V9.73487C135.5 9.36866 135.5 9.00538 135.491 8.64308C135.491 8.33644 135.491 8.02882 135.487 7.72218C135.473 7.05116 135.403 6.38197 135.277 5.72018C135.155 5.05802 134.919 4.41624 134.579 3.81686C133.883 2.61393 132.778 1.63476 131.421 1.01706C130.743 0.714306 130.018 0.502979 129.269 0.390058C128.523 0.279841 127.769 0.220746 127.012 0.213298C126.669 0.208418 126.316 0.202558 125.972 0.200608C125.567 0.198608 125.155 0.198608 124.749 0.198608V0.198738Z" fill="#A6A6A6"/>
<path d="M9.93001 39.3267C9.58569 39.3267 9.24969 39.3228 8.90807 39.316C8.20037 39.3079 7.49433 39.2533 6.79574 39.1529C6.14433 39.0536 5.5133 38.8689 4.92345 38.6049C4.339 38.343 3.80594 37.9997 3.34469 37.5881C2.87676 37.1813 2.48718 36.7094 2.1914 36.1913C1.89236 35.6698 1.68541 35.1107 1.57775 34.5337C1.46149 33.9137 1.39859 33.2868 1.38959 32.6583C1.38243 32.4474 1.37305 31.745 1.37305 31.745V8.63965C1.37305 8.63965 1.38304 7.94809 1.38965 7.74492C1.39827 7.11747 1.4608 6.49151 1.57671 5.87246C1.68457 5.29386 1.89168 4.73324 2.19088 4.21001C2.48557 3.69222 2.87299 3.22004 3.3381 2.81177C3.80269 2.39963 4.33745 2.05454 4.92289 1.78909C5.51139 1.52591 6.14123 1.34252 6.79132 1.24503C7.49221 1.14358 8.2007 1.08873 8.91085 1.08094L9.93056 1.06873H126.07L127.102 1.08143C127.806 1.08883 128.508 1.14319 129.202 1.24405C129.859 1.34276 130.495 1.52744 131.09 1.79202C132.263 2.32697 133.218 3.17333 133.82 4.21245C134.114 4.73207 134.318 5.28811 134.424 5.86172C134.542 6.48585 134.607 7.11673 134.621 7.74932C134.624 8.03258 134.624 8.33684 134.624 8.63965C134.633 9.01473 134.633 9.37173 134.633 9.73167V30.6647C134.633 31.0281 134.633 31.3827 134.624 31.7401C134.624 32.0654 134.624 32.3634 134.62 32.67C134.607 33.2913 134.542 33.911 134.427 34.5239C134.321 35.1051 134.115 35.6685 133.816 36.1943C133.518 36.7068 133.131 37.1745 132.669 37.5803C132.207 37.9941 131.673 38.3395 131.087 38.603C130.494 38.869 129.858 39.0544 129.202 39.1529C128.504 39.2539 127.797 39.3084 127.09 39.316C126.759 39.3228 126.412 39.3267 126.076 39.3267L124.85 39.3287L9.93001 39.3267Z" fill="black"/>
<path d="M33.2973 20.4993C33.3081 19.6646 33.5298 18.8463 33.9418 18.1203C34.3538 17.3944 34.9428 16.7844 35.6539 16.3472C35.2021 15.7021 34.6062 15.1711 33.9134 14.7966C33.2205 14.422 32.4499 14.2142 31.6627 14.1896C29.9835 14.0133 28.3555 15.1944 27.4998 15.1944C26.6275 15.1944 25.31 14.2071 23.8913 14.2363C22.9736 14.2659 22.0793 14.5328 21.2954 15.0108C20.5115 15.4889 19.8649 16.1618 19.4184 16.9641C17.4844 20.3125 18.927 25.2336 20.7796 27.9402C21.7065 29.2656 22.7898 30.746 24.2072 30.6935C25.5943 30.636 26.1123 29.809 27.7866 29.809C29.4454 29.809 29.9314 30.6935 31.3776 30.6601C32.866 30.636 33.8038 29.3289 34.6981 27.991C35.3641 27.0466 35.8766 26.0029 36.2166 24.8985C35.3518 24.5327 34.6139 23.9206 34.0948 23.1383C33.5757 22.356 33.2983 21.4382 33.2973 20.4993Z" fill="white"/>
<path d="M30.5659 12.4096C31.3774 11.4354 31.7772 10.1832 31.6804 8.91895C30.4406 9.04917 29.2953 9.64172 28.4728 10.5786C28.0707 11.0362 27.7627 11.5687 27.5664 12.1454C27.3702 12.7222 27.2896 13.332 27.3291 13.9399C27.9493 13.9463 28.5628 13.8119 29.1234 13.5468C29.6841 13.2817 30.1773 12.8929 30.5659 12.4096Z" fill="white"/>
<path d="M50.8306 27.3384H46.0972L44.9604 30.6949H42.9556L47.439 18.2769H49.522L54.0054 30.6949H51.9663L50.8306 27.3384ZM46.5874 25.7896H50.3394L48.4898 20.3423H48.438L46.5874 25.7896Z" fill="white"/>
<path d="M63.688 26.1685C63.688 28.982 62.1822 30.7896 59.9097 30.7896C59.334 30.8198 58.7615 30.6871 58.2578 30.407C57.754 30.1269 57.3392 29.7105 57.0611 29.2056H57.0181V33.69H55.1597V21.6412H56.9585V23.1471H56.9927C57.2837 22.6446 57.7054 22.2304 58.213 21.9486C58.7207 21.6667 59.2952 21.5278 59.8755 21.5465C62.1733 21.5465 63.688 23.3629 63.688 26.1685ZM61.7779 26.1685C61.7779 24.3355 60.8306 23.1305 59.3853 23.1305C57.9654 23.1305 57.0103 24.3609 57.0103 26.1685C57.0103 27.9928 57.9654 29.2144 59.3853 29.2144C60.8306 29.2144 61.7779 28.0182 61.7779 26.1685Z" fill="white"/>
<path d="M73.6529 26.1685C73.6529 28.982 72.147 30.7896 69.8745 30.7896C69.2989 30.8197 68.7264 30.6871 68.2226 30.407C67.7188 30.1269 67.3041 29.7105 67.0259 29.2056H66.9829V33.69H65.1245V21.6412H66.9233V23.147H66.9575C67.2485 22.6446 67.6702 22.2304 68.1778 21.9486C68.6855 21.6667 69.26 21.5278 69.8403 21.5465C72.1382 21.5465 73.6529 23.3629 73.6529 26.1685ZM71.7427 26.1685C71.7427 24.3355 70.7954 23.1305 69.3501 23.1305C67.9302 23.1305 66.9751 24.3609 66.9751 26.1685C66.9751 27.9928 67.9302 29.2144 69.3501 29.2144C70.7954 29.2144 71.7427 28.0181 71.7427 26.1685H71.7427Z" fill="white"/>
<path d="M80.2388 27.2349C80.3765 28.4664 81.5728 29.2749 83.2076 29.2749C84.774 29.2749 85.9009 28.4663 85.9009 27.356C85.9009 26.3921 85.2212 25.815 83.6118 25.4194L82.0025 25.0317C79.7222 24.481 78.6636 23.4146 78.6636 21.6841C78.6636 19.5415 80.5308 18.0698 83.1822 18.0698C85.8062 18.0698 87.605 19.5415 87.6656 21.6841H85.7896C85.6773 20.4448 84.6528 19.6968 83.1558 19.6968C81.6587 19.6968 80.6343 20.4536 80.6343 21.5552C80.6343 22.4331 81.2886 22.9497 82.8892 23.3452L84.2573 23.6811C86.8052 24.2837 87.8638 25.3071 87.8638 27.1235C87.8638 29.4467 86.0132 30.9018 83.0698 30.9018C80.3159 30.9018 78.4565 29.4809 78.3364 27.2348L80.2388 27.2349Z" fill="white"/>
<path d="M91.8745 19.4985V21.6411H93.5962V23.1128H91.8745V28.104C91.8745 28.8794 92.2192 29.2407 92.9761 29.2407C93.1805 29.2372 93.3845 29.2228 93.5874 29.1977V30.6606C93.2471 30.7242 92.9013 30.753 92.5552 30.7466C90.7222 30.7466 90.0073 30.0581 90.0073 28.3022V23.1128H88.6909V21.6411H90.0073V19.4985H91.8745Z" fill="white"/>
<path d="M94.5933 26.1685C94.5933 23.3198 96.271 21.5298 98.8872 21.5298C101.512 21.5298 103.182 23.3198 103.182 26.1685C103.182 29.0249 101.521 30.8071 98.8872 30.8071C96.2543 30.8071 94.5933 29.0249 94.5933 26.1685ZM101.289 26.1685C101.289 24.2144 100.393 23.061 98.8872 23.061C97.3813 23.061 96.4868 24.2231 96.4868 26.1685C96.4868 28.1304 97.3813 29.2749 98.8872 29.2749C100.393 29.2749 101.289 28.1304 101.289 26.1685H101.289Z" fill="white"/>
<path d="M104.714 21.6411H106.487V23.1821H106.53C106.65 22.7008 106.932 22.2755 107.328 21.9776C107.725 21.6797 108.212 21.5274 108.708 21.5464C108.922 21.5456 109.135 21.5689 109.344 21.6157V23.354C109.074 23.2714 108.792 23.2334 108.509 23.2417C108.239 23.2307 107.97 23.2783 107.72 23.3812C107.47 23.4841 107.246 23.6398 107.062 23.8377C106.878 24.0356 106.739 24.271 106.654 24.5277C106.57 24.7843 106.542 25.0562 106.573 25.3247V30.6948H104.714L104.714 21.6411Z" fill="white"/>
<path d="M117.913 28.0356C117.663 29.6792 116.062 30.8071 114.014 30.8071C111.38 30.8071 109.746 29.0425 109.746 26.2114C109.746 23.3716 111.389 21.5298 113.936 21.5298C116.441 21.5298 118.016 23.2505 118.016 25.9956V26.6323H111.622V26.7446C111.592 27.0778 111.634 27.4135 111.744 27.7293C111.854 28.0452 112.03 28.334 112.261 28.5765C112.491 28.8191 112.77 29.0098 113.08 29.1361C113.39 29.2624 113.723 29.3214 114.057 29.3091C114.496 29.3502 114.937 29.2485 115.314 29.0191C115.69 28.7896 115.983 28.4447 116.148 28.0356L117.913 28.0356ZM111.63 25.3335H116.157C116.173 25.0339 116.128 24.7341 116.023 24.4529C115.919 24.1717 115.757 23.9151 115.548 23.6994C115.34 23.4836 115.089 23.3133 114.812 23.199C114.534 23.0848 114.236 23.0292 113.936 23.0356C113.633 23.0338 113.333 23.092 113.053 23.2067C112.773 23.3215 112.519 23.4905 112.304 23.7042C112.09 23.9178 111.92 24.1718 111.804 24.4514C111.689 24.7311 111.63 25.0309 111.63 25.3335V25.3335Z" fill="white"/>
<path d="M46.3545 8.92974C46.7441 8.90179 47.1351 8.96065 47.4992 9.10208C47.8633 9.24351 48.1915 9.46399 48.4601 9.74762C48.7286 10.0312 48.9309 10.3709 49.0523 10.7422C49.1737 11.1135 49.2112 11.5071 49.1621 11.8946C49.1621 13.8008 48.1318 14.8966 46.3545 14.8966H44.1992V8.92974H46.3545ZM45.126 14.0527H46.251C46.5294 14.0694 46.808 14.0237 47.0665 13.9191C47.3251 13.8145 47.557 13.6536 47.7455 13.448C47.934 13.2424 48.0743 12.9974 48.1562 12.7308C48.238 12.4642 48.2594 12.1827 48.2187 11.9067C48.2564 11.6319 48.2329 11.3521 48.1498 11.0875C48.0667 10.8228 47.926 10.5798 47.738 10.3759C47.5499 10.1719 47.3191 10.0121 47.062 9.9079C46.8049 9.80367 46.528 9.75758 46.251 9.77295H45.126V14.0527Z" fill="white"/>
<path d="M50.2088 12.6431C50.1805 12.3472 50.2143 12.0487 50.3082 11.7666C50.402 11.4845 50.5538 11.2252 50.7537 11.0052C50.9536 10.7852 51.1974 10.6094 51.4692 10.4892C51.7411 10.3689 52.035 10.3068 52.3323 10.3068C52.6296 10.3068 52.9236 10.3689 53.1954 10.4892C53.4673 10.6094 53.711 10.7852 53.9109 11.0052C54.1109 11.2252 54.2626 11.4845 54.3565 11.7666C54.4503 12.0487 54.4842 12.3472 54.4558 12.6431C54.4847 12.9394 54.4512 13.2383 54.3577 13.5209C54.2641 13.8034 54.1124 14.0632 53.9124 14.2836C53.7124 14.504 53.4685 14.6802 53.1964 14.8007C52.9243 14.9212 52.6299 14.9835 52.3323 14.9835C52.0347 14.9835 51.7404 14.9212 51.4682 14.8007C51.1961 14.6802 50.9522 14.504 50.7522 14.2836C50.5522 14.0632 50.4006 13.8034 50.307 13.5209C50.2134 13.2383 50.1799 12.9394 50.2088 12.6431ZM53.5418 12.6431C53.5418 11.6671 53.1033 11.0963 52.3338 11.0963C51.5613 11.0963 51.1268 11.6671 51.1268 12.6432C51.1268 13.627 51.5613 14.1934 52.3338 14.1934C53.1033 14.1934 53.5418 13.6231 53.5418 12.6431H53.5418Z" fill="white"/>
<path d="M60.1016 14.8965H59.1797L58.249 11.5801H58.1787L57.252 14.8965H56.3389L55.0977 10.3936H55.999L56.8057 13.8296H56.8721L57.7979 10.3936H58.6504L59.5762 13.8296H59.6465L60.4492 10.3936H61.3379L60.1016 14.8965Z" fill="white"/>
<path d="M62.3818 10.3936H63.2373V11.1089H63.3037C63.4164 10.852 63.6064 10.6366 63.8472 10.4928C64.0881 10.349 64.3679 10.2839 64.6475 10.3067C64.8666 10.2902 65.0866 10.3232 65.2912 10.4033C65.4958 10.4834 65.6797 10.6085 65.8294 10.7694C65.9791 10.9302 66.0907 11.1227 66.1559 11.3325C66.2211 11.5423 66.2382 11.7641 66.2061 11.9815V14.8965H65.3174V12.2046C65.3174 11.481 65.0029 11.1211 64.3457 11.1211C64.1969 11.1142 64.0484 11.1395 63.9104 11.1954C63.7723 11.2512 63.648 11.3362 63.5459 11.4446C63.4437 11.553 63.3663 11.6822 63.3187 11.8233C63.2712 11.9644 63.2547 12.1142 63.2705 12.2622V14.8965H62.3818L62.3818 10.3936Z" fill="white"/>
<path d="M67.6221 8.63574H68.5107V14.8965H67.6221V8.63574Z" fill="white"/>
<path d="M69.7459 12.6431C69.7176 12.3472 69.7514 12.0486 69.8453 11.7665C69.9392 11.4844 70.091 11.2251 70.2909 11.0051C70.4909 10.7851 70.7346 10.6093 71.0065 10.489C71.2783 10.3688 71.5724 10.3066 71.8696 10.3066C72.1669 10.3066 72.4609 10.3688 72.7328 10.489C73.0047 10.6093 73.2484 10.7851 73.4484 11.0051C73.6483 11.2251 73.8001 11.4844 73.894 11.7665C73.9878 12.0486 74.0217 12.3472 73.9934 12.6431C74.0222 12.9393 73.9888 13.2383 73.8951 13.5208C73.8015 13.8034 73.6498 14.0632 73.4498 14.2836C73.2498 14.504 73.0059 14.6801 72.7337 14.8007C72.4616 14.9212 72.1673 14.9834 71.8696 14.9834C71.572 14.9834 71.2777 14.9212 71.0055 14.8007C70.7334 14.6801 70.4895 14.504 70.2895 14.2836C70.0895 14.0632 69.9378 13.8034 69.8442 13.5208C69.7505 13.2383 69.7171 12.9393 69.7459 12.6431ZM73.0789 12.6431C73.0789 11.667 72.6404 11.0962 71.8709 11.0962C71.0984 11.0962 70.6639 11.667 70.6639 12.6431C70.6639 13.627 71.0984 14.1934 71.8709 14.1934C72.6404 14.1934 73.0789 13.6231 73.0789 12.6431H73.0789Z" fill="white"/>
<path d="M74.9292 13.623C74.9292 12.8125 75.5327 12.3452 76.604 12.2788L77.8237 12.2085V11.8198C77.8237 11.3442 77.5093 11.0757 76.9019 11.0757C76.4058 11.0757 76.062 11.2578 75.9634 11.5762H75.103C75.1938 10.8027 75.9214 10.3066 76.9429 10.3066C78.0718 10.3066 78.7085 10.8686 78.7085 11.8198V14.8965H77.853V14.2637H77.7827C77.64 14.4907 77.4396 14.6757 77.202 14.7999C76.9643 14.9241 76.698 14.9831 76.4302 14.9707C76.2411 14.9903 76.0501 14.9702 75.8693 14.9115C75.6886 14.8528 75.5221 14.7568 75.3807 14.6299C75.2393 14.5029 75.126 14.3477 75.0483 14.1743C74.9705 14.0009 74.9299 13.8131 74.9292 13.623ZM77.8237 13.2383V12.8618L76.7241 12.9321C76.104 12.9736 75.8227 13.1846 75.8227 13.5815C75.8227 13.9868 76.1743 14.2226 76.6577 14.2226C76.7994 14.237 76.9425 14.2227 77.0785 14.1806C77.2145 14.1385 77.3406 14.0695 77.4494 13.9776C77.5582 13.8858 77.6474 13.773 77.7117 13.646C77.776 13.519 77.8141 13.3803 77.8237 13.2383Z" fill="white"/>
<path d="M79.8765 12.6431C79.8765 11.2202 80.6079 10.3189 81.7456 10.3189C82.027 10.3059 82.3063 10.3733 82.5508 10.5132C82.7954 10.6531 82.995 10.8597 83.1265 11.1089H83.1929V8.63574H84.0815V14.8965H83.23V14.1851H83.1597C83.0181 14.4325 82.8115 14.6366 82.5622 14.7751C82.313 14.9135 82.0306 14.9812 81.7456 14.9707C80.6001 14.9707 79.8765 14.0694 79.8765 12.6431ZM80.7945 12.6431C80.7945 13.5982 81.2447 14.1729 81.9976 14.1729C82.7466 14.1729 83.2095 13.5899 83.2095 12.647C83.2095 11.7085 82.7417 11.1172 81.9976 11.1172C81.2495 11.1172 80.7944 11.6958 80.7944 12.6431H80.7945Z" fill="white"/>
<path d="M87.7581 12.6431C87.7298 12.3472 87.7636 12.0487 87.8575 11.7666C87.9513 11.4845 88.1031 11.2252 88.303 11.0052C88.503 10.7852 88.7467 10.6094 89.0185 10.4892C89.2904 10.3689 89.5844 10.3068 89.8816 10.3068C90.1789 10.3068 90.4729 10.3689 90.7447 10.4892C91.0166 10.6094 91.2603 10.7852 91.4602 11.0052C91.6602 11.2252 91.8119 11.4845 91.9058 11.7666C91.9996 12.0487 92.0335 12.3472 92.0052 12.6431C92.034 12.9394 92.0006 13.2383 91.907 13.5209C91.8134 13.8034 91.6617 14.0632 91.4617 14.2836C91.2617 14.504 91.0178 14.6802 90.7457 14.8007C90.4736 14.9212 90.1793 14.9835 89.8816 14.9835C89.584 14.9835 89.2897 14.9212 89.0175 14.8007C88.7454 14.6802 88.5015 14.504 88.3015 14.2836C88.1015 14.0632 87.9499 13.8034 87.8563 13.5209C87.7627 13.2383 87.7292 12.9394 87.7581 12.6431ZM91.0911 12.6431C91.0911 11.6671 90.6526 11.0963 89.8831 11.0963C89.1106 11.0963 88.6761 11.6671 88.6761 12.6432C88.6761 13.627 89.1107 14.1934 89.8831 14.1934C90.6526 14.1934 91.0911 13.6231 91.0911 12.6431Z" fill="white"/>
<path d="M93.1978 10.3936H94.0532V11.1089H94.1196C94.2323 10.852 94.4223 10.6366 94.6632 10.4928C94.904 10.349 95.1838 10.2839 95.4634 10.3067C95.6825 10.2902 95.9025 10.3232 96.1071 10.4033C96.3117 10.4834 96.4956 10.6085 96.6453 10.7694C96.795 10.9302 96.9066 11.1227 96.9718 11.3325C97.037 11.5423 97.0541 11.7641 97.022 11.9815V14.8965H96.1333V12.2046C96.1333 11.481 95.8189 11.1211 95.1616 11.1211C95.0129 11.1142 94.8644 11.1395 94.7263 11.1954C94.5883 11.2512 94.4639 11.3362 94.3618 11.4446C94.2597 11.553 94.1822 11.6822 94.1346 11.8233C94.0871 11.9644 94.0707 12.1142 94.0864 12.2622V14.8965H93.1978V10.3936Z" fill="white"/>
<path d="M102.043 9.27246V10.4141H103.019V11.1626H102.043V13.478C102.043 13.9497 102.238 14.1562 102.68 14.1562C102.793 14.1559 102.907 14.149 103.019 14.1357V14.876C102.859 14.9045 102.698 14.9197 102.536 14.9214C101.547 14.9214 101.154 14.5737 101.154 13.7056V11.1626H100.439V10.414H101.154V9.27246H102.043Z" fill="white"/>
<path d="M104.233 8.63574H105.114V11.1172H105.184C105.302 10.8579 105.497 10.6413 105.743 10.4969C105.989 10.3526 106.273 10.2875 106.557 10.3106C106.775 10.2987 106.993 10.3351 107.195 10.4171C107.397 10.4992 107.579 10.6248 107.727 10.7852C107.875 10.9455 107.986 11.1366 108.052 11.3447C108.118 11.5528 108.137 11.7729 108.108 11.9893V14.8965H107.218V12.2085C107.218 11.4893 106.883 11.125 106.255 11.125C106.103 11.1125 105.949 11.1335 105.805 11.1865C105.661 11.2396 105.531 11.3234 105.423 11.4321C105.315 11.5409 105.232 11.6719 105.18 11.816C105.128 11.9602 105.108 12.1139 105.122 12.2666V14.8965H104.233L104.233 8.63574Z" fill="white"/>
<path d="M113.29 13.6806C113.169 14.0922 112.907 14.4481 112.551 14.6863C112.194 14.9244 111.765 15.0296 111.339 14.9833C111.042 14.9912 110.747 14.9344 110.475 14.8168C110.202 14.6993 109.958 14.5239 109.76 14.3027C109.563 14.0816 109.415 13.82 109.328 13.5362C109.242 13.2524 109.218 12.9531 109.258 12.6591C109.219 12.3642 109.243 12.0643 109.33 11.7796C109.416 11.495 109.563 11.2322 109.76 11.0091C109.957 10.7861 110.199 10.6079 110.471 10.4867C110.743 10.3655 111.037 10.3041 111.335 10.3066C112.588 10.3066 113.343 11.1626 113.343 12.5766V12.8867H110.164V12.9365C110.15 13.1017 110.171 13.2681 110.225 13.4248C110.279 13.5816 110.365 13.7253 110.478 13.8467C110.591 13.9682 110.728 14.0647 110.88 14.1301C111.033 14.1955 111.197 14.2283 111.363 14.2265C111.576 14.252 111.791 14.2137 111.982 14.1165C112.172 14.0193 112.33 13.8676 112.434 13.6806L113.29 13.6806ZM110.164 12.2294H112.438C112.449 12.0783 112.429 11.9265 112.378 11.7838C112.327 11.6411 112.247 11.5106 112.142 11.4007C112.038 11.2909 111.912 11.2041 111.772 11.1459C111.632 11.0877 111.481 11.0595 111.33 11.0629C111.176 11.061 111.023 11.0899 110.881 11.1478C110.739 11.2058 110.609 11.2916 110.501 11.4003C110.392 11.509 110.306 11.6384 110.248 11.7808C110.191 11.9232 110.162 12.0757 110.164 12.2294H110.164Z" fill="white"/>
</g>
<defs>
<clipPath id="clip0_6901_30084">
<rect width="135" height="40" fill="white" transform="translate(0.5 0.19873)"/>
</clipPath>
</defs>
</svg>
