<svg width="136" height="41" viewBox="0 0 136 41" fill="none" xmlns="http://www.w3.org/2000/svg">
<rect x="1" y="0.69873" width="134" height="39" rx="4.5" fill="black"/>
<rect x="1" y="0.69873" width="134" height="39" rx="4.5" stroke="#A6A6A6"/>
<path d="M68.636 21.9498C66.284 21.9498 64.367 23.7389 64.367 26.2029C64.367 28.6519 66.284 30.4558 68.636 30.4558C70.989 30.4558 72.906 28.6519 72.906 26.2029C72.905 23.7389 70.988 21.9498 68.636 21.9498ZM68.636 28.7818C67.347 28.7818 66.236 27.7189 66.236 26.2039C66.236 24.6729 67.348 23.6258 68.636 23.6258C69.925 23.6258 71.036 24.6729 71.036 26.2039C71.036 27.7179 69.925 28.7818 68.636 28.7818ZM59.322 21.9498C56.97 21.9498 55.053 23.7389 55.053 26.2029C55.053 28.6519 56.97 30.4558 59.322 30.4558C61.675 30.4558 63.592 28.6519 63.592 26.2029C63.592 23.7389 61.675 21.9498 59.322 21.9498ZM59.322 28.7818C58.033 28.7818 56.922 27.7189 56.922 26.2039C56.922 24.6729 58.034 23.6258 59.322 23.6258C60.611 23.6258 61.722 24.6729 61.722 26.2039C61.723 27.7179 60.611 28.7818 59.322 28.7818ZM48.244 23.2558V25.0598H52.562C52.433 26.0749 52.095 26.8158 51.579 27.3308C50.951 27.9588 49.968 28.6518 48.244 28.6518C45.586 28.6518 43.508 26.5089 43.508 23.8509C43.508 21.1929 45.586 19.0498 48.244 19.0498C49.678 19.0498 50.725 19.6138 51.498 20.3388L52.771 19.0659C51.691 18.0349 50.258 17.2459 48.244 17.2459C44.603 17.2459 41.542 20.2099 41.542 23.8509C41.542 27.4918 44.603 30.4558 48.244 30.4558C50.209 30.4558 51.692 29.8108 52.851 28.6028C54.043 27.4108 54.414 25.7348 54.414 24.3818C54.414 23.9638 54.382 23.5768 54.317 23.2548H48.244V23.2558ZM93.552 24.6568C93.198 23.7069 92.118 21.9498 89.911 21.9498C87.72 21.9498 85.899 23.6739 85.899 26.2029C85.899 28.5869 87.704 30.4558 90.12 30.4558C92.069 30.4558 93.197 29.2639 93.665 28.5709L92.215 27.6038C91.732 28.3128 91.071 28.7799 90.12 28.7799C89.17 28.7799 88.493 28.3448 88.058 27.4908L93.745 25.1388L93.552 24.6568ZM87.752 26.0748C87.704 24.4308 89.025 23.5939 89.976 23.5939C90.717 23.5939 91.345 23.9649 91.555 24.4959L87.752 26.0748ZM83.129 30.1988H84.997V17.6979H83.129V30.1988ZM80.067 22.9008H80.003C79.584 22.4008 78.778 21.9498 77.764 21.9498C75.637 21.9498 73.688 23.8188 73.688 26.2198C73.688 28.6038 75.637 30.4568 77.764 30.4568C78.779 30.4568 79.584 30.0058 80.003 29.4908H80.067V30.1028C80.067 31.7298 79.197 32.5999 77.796 32.5999C76.652 32.5999 75.943 31.7789 75.653 31.0859L74.026 31.7628C74.493 32.8898 75.733 34.2758 77.796 34.2758C79.987 34.2758 81.84 32.9868 81.84 29.8448V22.2088H80.068V22.9008H80.067ZM77.925 28.7818C76.636 28.7818 75.557 27.7018 75.557 26.2198C75.557 24.7208 76.636 23.6258 77.925 23.6258C79.197 23.6258 80.196 24.7208 80.196 26.2198C80.196 27.7018 79.197 28.7818 77.925 28.7818ZM102.306 17.6979H97.835V30.1988H99.7V25.4628H102.305C104.373 25.4628 106.407 23.9658 106.407 21.5808C106.407 19.1958 104.374 17.6979 102.306 17.6979ZM102.354 23.7228H99.7V19.4378H102.354C103.749 19.4378 104.541 20.5928 104.541 21.5808C104.541 22.5488 103.749 23.7228 102.354 23.7228ZM113.886 21.9278C112.535 21.9278 111.136 22.5229 110.557 23.8419L112.213 24.5328C112.567 23.8418 113.227 23.6158 113.918 23.6158C114.883 23.6158 115.864 24.1949 115.88 25.2239V25.3528C115.542 25.1598 114.818 24.8709 113.934 24.8709C112.149 24.8709 110.331 25.8518 110.331 27.6848C110.331 29.3579 111.795 30.4348 113.435 30.4348C114.689 30.4348 115.381 29.8719 115.815 29.2119H115.879V30.1769H117.681V25.3839C117.682 23.1659 116.024 21.9278 113.886 21.9278ZM113.66 28.7789C113.05 28.7789 112.197 28.4729 112.197 27.7169C112.197 26.7519 113.259 26.3818 114.176 26.3818C114.995 26.3818 115.382 26.5589 115.88 26.7999C115.735 27.9589 114.738 28.7789 113.66 28.7789ZM124.243 22.2008L122.104 27.6209H122.04L119.82 22.2008H117.81L121.139 29.7758L119.241 33.9898H121.187L126.318 22.2008H124.243ZM107.437 30.1988H109.302V17.6979H107.437V30.1988Z" fill="white"/>
<path d="M47.918 10.4417C47.918 11.2797 47.6701 11.9467 47.173 12.4447C46.609 13.0367 45.8731 13.3327 44.9691 13.3327C44.1031 13.3327 43.3661 13.0327 42.7611 12.4327C42.1551 11.8317 41.8521 11.0877 41.8521 10.1997C41.8521 9.31067 42.1551 8.56667 42.7611 7.96667C43.3661 7.36567 44.1031 7.06567 44.9691 7.06567C45.3991 7.06567 45.8101 7.14967 46.2001 7.31667C46.5911 7.48467 46.904 7.70767 47.1381 7.98667L46.611 8.51467C46.214 8.03967 45.667 7.80267 44.968 7.80267C44.336 7.80267 43.79 8.02467 43.329 8.46867C42.868 8.91267 42.6381 9.48967 42.6381 10.1987C42.6381 10.9077 42.868 11.4847 43.329 11.9287C43.79 12.3727 44.336 12.5947 44.968 12.5947C45.638 12.5947 46.1971 12.3717 46.6441 11.9247C46.9341 11.6337 47.102 11.2287 47.147 10.7097H44.968V9.98867H47.875C47.905 10.1457 47.918 10.2967 47.918 10.4417Z" fill="white"/>
<path d="M52.5281 7.93573H49.7961V9.83773H52.2601V10.5587H49.7961V12.4607H52.5281V13.1987H49.0251V7.19873H52.5281V7.93573Z" fill="white"/>
<path d="M55.779 13.1987H55.008V7.93573H53.332V7.19873H57.455V7.93573H55.779V13.1987Z" fill="white"/>
<path d="M60.438 13.1987V7.19873H61.209V13.1987H60.438Z" fill="white"/>
<path d="M64.6281 13.1987H63.8572V7.93573H62.1812V7.19873H66.3042V7.93573H64.6281V13.1987Z" fill="white"/>
<path d="M74.1089 12.4237C73.5189 13.0297 72.7859 13.3327 71.9089 13.3327C71.0319 13.3327 70.2989 13.0297 69.7099 12.4237C69.1199 11.8177 68.8259 11.0757 68.8259 10.1987C68.8259 9.32172 69.1199 8.57972 69.7099 7.97372C70.2989 7.36772 71.0319 7.06372 71.9089 7.06372C72.7809 7.06372 73.5129 7.36872 74.1049 7.97772C74.6969 8.58672 74.9929 9.32672 74.9929 10.1987C74.9929 11.0757 74.6979 11.8177 74.1089 12.4237ZM70.2789 11.9207C70.7229 12.3707 71.2659 12.5947 71.9089 12.5947C72.5519 12.5947 73.0959 12.3697 73.5389 11.9207C73.9829 11.4707 74.2059 10.8967 74.2059 10.1987C74.2059 9.50072 73.9829 8.92672 73.5389 8.47672C73.0959 8.02672 72.5519 7.80272 71.9089 7.80272C71.2659 7.80272 70.7229 8.02772 70.2789 8.47672C69.8359 8.92672 69.6129 9.50072 69.6129 10.1987C69.6129 10.8967 69.8359 11.4707 70.2789 11.9207Z" fill="white"/>
<path d="M76.0749 13.1987V7.19873H77.013L79.929 11.8657H79.9619L79.929 10.7097V7.19873H80.6999V13.1987H79.8949L76.844 8.30473H76.8109L76.844 9.46073V13.1987H76.0749Z" fill="white"/>
<path d="M47.918 10.4417C47.918 11.2797 47.6701 11.9467 47.173 12.4447C46.609 13.0367 45.8731 13.3327 44.9691 13.3327C44.1031 13.3327 43.3661 13.0327 42.7611 12.4327C42.1551 11.8317 41.8521 11.0877 41.8521 10.1997C41.8521 9.31067 42.1551 8.56667 42.7611 7.96667C43.3661 7.36567 44.1031 7.06567 44.9691 7.06567C45.3991 7.06567 45.8101 7.14967 46.2001 7.31667C46.5911 7.48467 46.904 7.70767 47.1381 7.98667L46.611 8.51467C46.214 8.03967 45.667 7.80267 44.968 7.80267C44.336 7.80267 43.79 8.02467 43.329 8.46867C42.868 8.91267 42.6381 9.48967 42.6381 10.1987C42.6381 10.9077 42.868 11.4847 43.329 11.9287C43.79 12.3727 44.336 12.5947 44.968 12.5947C45.638 12.5947 46.1971 12.3717 46.6441 11.9247C46.9341 11.6337 47.102 11.2287 47.147 10.7097H44.968V9.98867H47.875C47.905 10.1457 47.918 10.2967 47.918 10.4417Z" stroke="white" stroke-width="0.2" stroke-miterlimit="10"/>
<path d="M52.5281 7.93573H49.7961V9.83773H52.2601V10.5587H49.7961V12.4607H52.5281V13.1987H49.0251V7.19873H52.5281V7.93573Z" stroke="white" stroke-width="0.2" stroke-miterlimit="10"/>
<path d="M55.779 13.1987H55.008V7.93573H53.332V7.19873H57.455V7.93573H55.779V13.1987Z" stroke="white" stroke-width="0.2" stroke-miterlimit="10"/>
<path d="M60.438 13.1987V7.19873H61.209V13.1987H60.438Z" stroke="white" stroke-width="0.2" stroke-miterlimit="10"/>
<path d="M64.6281 13.1987H63.8572V7.93573H62.1812V7.19873H66.3042V7.93573H64.6281V13.1987Z" stroke="white" stroke-width="0.2" stroke-miterlimit="10"/>
<path d="M74.1089 12.4237C73.5189 13.0297 72.7859 13.3327 71.9089 13.3327C71.0319 13.3327 70.2989 13.0297 69.7099 12.4237C69.1199 11.8177 68.8259 11.0757 68.8259 10.1987C68.8259 9.32172 69.1199 8.57972 69.7099 7.97372C70.2989 7.36772 71.0319 7.06372 71.9089 7.06372C72.7809 7.06372 73.5129 7.36872 74.1049 7.97772C74.6969 8.58672 74.9929 9.32672 74.9929 10.1987C74.9929 11.0757 74.6979 11.8177 74.1089 12.4237ZM70.2789 11.9207C70.7229 12.3707 71.2659 12.5947 71.9089 12.5947C72.5519 12.5947 73.0959 12.3697 73.5389 11.9207C73.9829 11.4707 74.2059 10.8967 74.2059 10.1987C74.2059 9.50072 73.9829 8.92672 73.5389 8.47672C73.0959 8.02672 72.5519 7.80272 71.9089 7.80272C71.2659 7.80272 70.7229 8.02772 70.2789 8.47672C69.8359 8.92672 69.6129 9.50072 69.6129 10.1987C69.6129 10.8967 69.8359 11.4707 70.2789 11.9207Z" stroke="white" stroke-width="0.2" stroke-miterlimit="10"/>
<path d="M76.0749 13.1987V7.19873H77.013L79.929 11.8657H79.9619L79.929 10.7097V7.19873H80.6999V13.1987H79.8949L76.844 8.30473H76.8109L76.844 9.46073V13.1987H76.0749Z" stroke="white" stroke-width="0.2" stroke-miterlimit="10"/>
<g filter="url(#filter0_ii_6901_30076)">
<path d="M10.9361 7.7367C10.6451 8.0447 10.4731 8.5227 10.4731 9.1417V31.2577C10.4731 31.8777 10.6451 32.3547 10.9361 32.6627L11.0101 32.7347L23.3991 20.3457V20.1997V20.0537L11.0101 7.6637L10.9361 7.7367Z" fill="url(#paint0_linear_6901_30076)"/>
<path d="M27.5279 24.4767L23.3989 20.3457V20.1997V20.0537L27.5289 15.9237L27.6219 15.9767L32.5149 18.7567C33.9119 19.5507 33.9119 20.8497 32.5149 21.6447L27.6219 24.4247L27.5279 24.4767Z" fill="url(#paint1_linear_6901_30076)"/>
<g filter="url(#filter1_i_6901_30076)">
<path d="M27.622 24.4237L23.398 20.1997L10.936 32.6627C11.396 33.1507 12.157 33.2107 13.014 32.7247L27.622 24.4237Z" fill="url(#paint2_linear_6901_30076)"/>
</g>
<path d="M27.622 15.9757L13.014 7.67567C12.157 7.18867 11.396 7.24968 10.936 7.73768L23.399 20.2007L27.622 15.9757Z" fill="url(#paint3_linear_6901_30076)"/>
</g>
<defs>
<filter id="filter0_ii_6901_30076" x="10.4731" y="7.3396" width="23.0894" height="25.7208" filterUnits="userSpaceOnUse" color-interpolation-filters="sRGB">
<feFlood flood-opacity="0" result="BackgroundImageFix"/>
<feBlend mode="normal" in="SourceGraphic" in2="BackgroundImageFix" result="shape"/>
<feColorMatrix in="SourceAlpha" type="matrix" values="0 0 0 0 0 0 0 0 0 0 0 0 0 0 0 0 0 0 127 0" result="hardAlpha"/>
<feOffset dy="-0.15"/>
<feComposite in2="hardAlpha" operator="arithmetic" k2="-1" k3="1"/>
<feColorMatrix type="matrix" values="0 0 0 0 0 0 0 0 0 0 0 0 0 0 0 0 0 0 0.12 0"/>
<feBlend mode="normal" in2="shape" result="effect1_innerShadow_6901_30076"/>
<feColorMatrix in="SourceAlpha" type="matrix" values="0 0 0 0 0 0 0 0 0 0 0 0 0 0 0 0 0 0 127 0" result="hardAlpha"/>
<feOffset dy="0.15"/>
<feComposite in2="hardAlpha" operator="arithmetic" k2="-1" k3="1"/>
<feColorMatrix type="matrix" values="0 0 0 0 1 0 0 0 0 1 0 0 0 0 1 0 0 0 0.25 0"/>
<feBlend mode="normal" in2="effect1_innerShadow_6901_30076" result="effect2_innerShadow_6901_30076"/>
</filter>
<filter id="filter1_i_6901_30076" x="10.936" y="20.1997" width="16.686" height="12.8607" filterUnits="userSpaceOnUse" color-interpolation-filters="sRGB">
<feFlood flood-opacity="0" result="BackgroundImageFix"/>
<feBlend mode="normal" in="SourceGraphic" in2="BackgroundImageFix" result="shape"/>
<feColorMatrix in="SourceAlpha" type="matrix" values="0 0 0 0 0 0 0 0 0 0 0 0 0 0 0 0 0 0 127 0" result="hardAlpha"/>
<feOffset dy="-0.15"/>
<feComposite in2="hardAlpha" operator="arithmetic" k2="-1" k3="1"/>
<feColorMatrix type="matrix" values="0 0 0 0 0 0 0 0 0 0 0 0 0 0 0 0 0 0 0.08 0"/>
<feBlend mode="normal" in2="shape" result="effect1_innerShadow_6901_30076"/>
</filter>
<linearGradient id="paint0_linear_6901_30076" x1="22.3009" y1="8.9077" x2="5.51895" y2="25.6897" gradientUnits="userSpaceOnUse">
<stop stop-color="#00A0FF"/>
<stop offset="0.0066" stop-color="#00A1FF"/>
<stop offset="0.2601" stop-color="#00BEFF"/>
<stop offset="0.5122" stop-color="#00D2FF"/>
<stop offset="0.7604" stop-color="#00DFFF"/>
<stop offset="1" stop-color="#00E3FF"/>
</linearGradient>
<linearGradient id="paint1_linear_6901_30076" x1="34.3334" y1="20.1997" x2="10.1375" y2="20.1997" gradientUnits="userSpaceOnUse">
<stop stop-color="#FFE000"/>
<stop offset="0.4087" stop-color="#FFBD00"/>
<stop offset="0.7754" stop-color="#FFA500"/>
<stop offset="1" stop-color="#FF9C00"/>
</linearGradient>
<linearGradient id="paint2_linear_6901_30076" x1="25.3281" y1="22.4936" x2="2.56964" y2="45.2521" gradientUnits="userSpaceOnUse">
<stop stop-color="#FF3A44"/>
<stop offset="1" stop-color="#C31162"/>
</linearGradient>
<linearGradient id="paint3_linear_6901_30076" x1="7.79743" y1="0.375475" x2="17.9597" y2="10.5378" gradientUnits="userSpaceOnUse">
<stop stop-color="#32A071"/>
<stop offset="0.0685" stop-color="#2DA771"/>
<stop offset="0.4762" stop-color="#15CF74"/>
<stop offset="0.8009" stop-color="#06E775"/>
<stop offset="1" stop-color="#00F076"/>
</linearGradient>
</defs>
</svg>
