<svg width="32" height="41" viewBox="0 0 32 41" fill="none" xmlns="http://www.w3.org/2000/svg">
<path d="M10.001 2C6.68727 2 4.00098 4.68629 4.00098 8V12C4.00098 12.2403 4.01511 12.4774 4.04259 12.7104C4.01489 12.802 4 12.8993 4 13V21.8258C4 22.6801 5.00212 23.141 5.65079 22.585L10.4383 18.4815C10.8008 18.1708 11.2624 18 11.7398 18H22.001C25.3147 18 28.001 15.3137 28.001 12V8C28.001 4.68629 25.3147 2 22.001 2H10.001Z" stroke="#14142B" stroke-width="2"/>
<path d="M5.27473 33.952H10.1477V34.909H5.27473V33.952ZM10.0267 30.861H11.0937V38H10.0267V30.861ZM4.31773 30.861H5.37373V38H4.31773V30.861ZM17.1453 36.218H18.1463C18.0876 36.5773 17.9483 36.9 17.7283 37.186C17.5083 37.472 17.2186 37.6993 16.8593 37.868C16.5 38.0367 16.0783 38.121 15.5943 38.121C15.0223 38.121 14.5126 38 14.0653 37.758C13.618 37.516 13.266 37.1823 13.0093 36.757C12.7526 36.3317 12.6243 35.8367 12.6243 35.272C12.6243 34.7 12.749 34.2013 12.9983 33.776C13.2476 33.3433 13.5923 33.006 14.0323 32.764C14.4723 32.522 14.9746 32.401 15.5393 32.401C16.1333 32.401 16.632 32.5183 17.0353 32.753C17.4386 32.9877 17.7356 33.336 17.9263 33.798C18.1243 34.2527 18.205 34.821 18.1683 35.503H13.6693C13.706 35.833 13.805 36.1263 13.9663 36.383C14.135 36.6397 14.355 36.8413 14.6263 36.988C14.905 37.1347 15.224 37.208 15.5833 37.208C15.9866 37.208 16.324 37.1163 16.5953 36.933C16.8666 36.7497 17.05 36.5113 17.1453 36.218ZM15.5503 33.303C15.0736 33.303 14.6776 33.4313 14.3623 33.688C14.047 33.9373 13.838 34.271 13.7353 34.689H17.1123C17.083 34.2417 16.9216 33.9007 16.6283 33.666C16.335 33.424 15.9756 33.303 15.5503 33.303ZM19.6404 30.311H20.6964V38H19.6404V30.311ZM25.5902 38.121C25.1649 38.121 24.8092 38.0293 24.5232 37.846C24.2372 37.6627 24.0135 37.4243 23.8522 37.131C23.6909 36.8377 23.5735 36.526 23.5002 36.196C23.4269 35.866 23.3902 35.5543 23.3902 35.261C23.3902 34.865 23.4232 34.4947 23.4892 34.15C23.5625 33.8053 23.6799 33.501 23.8412 33.237C24.0025 32.973 24.2262 32.7677 24.5122 32.621C24.7982 32.4743 25.1575 32.401 25.5902 32.401C26.0669 32.401 26.4959 32.5257 26.8772 32.775C27.2585 33.017 27.5629 33.3543 27.7902 33.787C28.0249 34.2197 28.1422 34.711 28.1422 35.261C28.1422 35.8257 28.0249 36.3243 27.7902 36.757C27.5555 37.1823 27.2439 37.516 26.8552 37.758C26.4739 38 26.0522 38.121 25.5902 38.121ZM25.2932 37.197C25.6452 37.197 25.9569 37.1163 26.2282 36.955C26.4995 36.7863 26.7085 36.559 26.8552 36.273C27.0092 35.9797 27.0862 35.6423 27.0862 35.261C27.0862 34.6963 26.9285 34.2307 26.6132 33.864C26.3052 33.4973 25.8652 33.314 25.2932 33.314C24.9485 33.314 24.6405 33.3947 24.3692 33.556C24.1052 33.7173 23.8962 33.9447 23.7422 34.238C23.5882 34.5313 23.5112 34.8723 23.5112 35.261C23.5112 35.6277 23.5772 35.9577 23.7092 36.251C23.8485 36.537 24.0502 36.768 24.3142 36.944C24.5782 37.1127 24.9045 37.197 25.2932 37.197ZM22.4552 32.511H23.4672L23.5112 33.754V40.2H22.4552V32.511Z" fill="#424144"/>
</svg>
