<svg width="33" height="41" viewBox="0 0 33 41" fill="none" xmlns="http://www.w3.org/2000/svg">
<path d="M7.77216 3.77216C5.40928 6.13503 5.40928 9.96602 7.77216 12.3289L16.937 21.4937L17 21.4307L17.0631 21.4938L26.2279 12.329C28.5908 9.96609 28.5908 6.13511 26.2279 3.77223C23.865 1.40936 20.034 1.40936 17.6712 3.77224L17.3536 4.08978C17.1584 4.28505 16.8418 4.28505 16.6465 4.08978L16.3289 3.77216C13.966 1.40928 10.135 1.40928 7.77216 3.77216Z" stroke="#14142B" stroke-width="2" stroke-linecap="round" stroke-linejoin="round"/>
<path d="M0.744863 35.657H1.75686C1.77886 35.943 1.8742 36.2033 2.04286 36.438C2.21886 36.6653 2.45353 36.845 2.74686 36.977C3.04753 37.109 3.39586 37.175 3.79186 37.175C4.13653 37.175 4.42253 37.1273 4.64986 37.032C4.8772 36.9367 5.04586 36.8083 5.15586 36.647C5.2732 36.4783 5.33186 36.2803 5.33186 36.053C5.33186 35.8257 5.26953 35.646 5.14486 35.514C5.0202 35.3747 4.8332 35.261 4.58386 35.173C4.33453 35.0777 4.02653 34.986 3.65986 34.898C3.3372 34.8173 3.0182 34.722 2.70286 34.612C2.39486 34.4947 2.10886 34.3517 1.84486 34.183C1.5882 34.0143 1.3792 33.8127 1.21786 33.578C1.06386 33.336 0.986863 33.0463 0.986863 32.709C0.986863 32.3497 1.08586 32.0233 1.28386 31.73C1.48186 31.4293 1.77153 31.191 2.15286 31.015C2.54153 30.8317 3.01086 30.74 3.56086 30.74C4.41153 30.74 5.0532 30.9527 5.48586 31.378C5.92586 31.8033 6.13853 32.3717 6.12386 33.083H5.13386C5.11186 32.5843 4.9542 32.2287 4.66086 32.016C4.36753 31.796 3.9862 31.686 3.51686 31.686C3.11353 31.686 2.76886 31.7703 2.48286 31.939C2.19686 32.1003 2.05386 32.357 2.05386 32.709C2.05386 32.863 2.08686 32.9987 2.15286 33.116C2.21886 33.226 2.32886 33.3287 2.48286 33.424C2.63686 33.5193 2.8422 33.611 3.09886 33.699C3.36286 33.787 3.6892 33.8823 4.07786 33.985C4.3712 34.051 4.65353 34.1353 4.92486 34.238C5.20353 34.3407 5.45286 34.469 5.67286 34.623C5.89286 34.777 6.0652 34.975 6.18986 35.217C6.32186 35.459 6.38786 35.756 6.38786 36.108C6.38786 36.482 6.2962 36.823 6.11286 37.131C5.92953 37.4317 5.64353 37.6737 5.25486 37.857C4.87353 38.033 4.37853 38.121 3.76986 38.121C3.28586 38.121 2.8642 38.0587 2.50486 37.934C2.15286 37.8093 1.85586 37.648 1.61386 37.45C1.3792 37.252 1.1922 37.0393 1.05286 36.812C0.920863 36.5847 0.829197 36.3683 0.777863 36.163C0.733863 35.9577 0.722863 35.789 0.744863 35.657ZM10.0357 38.11C9.56633 38.11 9.13733 37.989 8.74866 37.747C8.35999 37.505 8.05199 37.1713 7.82466 36.746C7.59733 36.3133 7.48366 35.8183 7.48366 35.261C7.48366 34.7037 7.59733 34.2123 7.82466 33.787C8.05933 33.3543 8.37833 33.017 8.78166 32.775C9.18499 32.5257 9.63599 32.401 10.1347 32.401C10.6847 32.401 11.11 32.5293 11.4107 32.786C11.7187 33.0427 11.9313 33.3873 12.0487 33.82C12.1733 34.2527 12.2357 34.733 12.2357 35.261C12.2357 35.5543 12.199 35.866 12.1257 36.196C12.0523 36.526 11.935 36.8377 11.7737 37.131C11.6123 37.4243 11.3887 37.6627 11.1027 37.846C10.8167 38.022 10.461 38.11 10.0357 38.11ZM10.3327 37.197C10.7213 37.197 11.0477 37.1127 11.3117 36.944C11.583 36.768 11.7847 36.5333 11.9167 36.24C12.0487 35.9467 12.1147 35.6203 12.1147 35.261C12.1147 34.8723 12.045 34.5313 11.9057 34.238C11.7737 33.9447 11.572 33.7173 11.3007 33.556C11.0367 33.3947 10.714 33.314 10.3327 33.314C9.76066 33.314 9.31699 33.4973 9.00166 33.864C8.69366 34.2307 8.53966 34.6963 8.53966 35.261C8.53966 35.6423 8.61666 35.9797 8.77066 36.273C8.92466 36.559 9.13366 36.7863 9.39766 36.955C9.66899 37.1163 9.98066 37.197 10.3327 37.197ZM12.1147 32.511H13.1707V38H12.2027C12.2027 38 12.1953 37.934 12.1807 37.802C12.166 37.6627 12.1513 37.4977 12.1367 37.307C12.122 37.1163 12.1147 36.9477 12.1147 36.801V32.511ZM17.196 37.186H16.855L18.637 32.511H19.781L17.526 38H16.536L14.303 32.511H15.458L17.196 37.186ZM24.9763 36.218H25.9773C25.9187 36.5773 25.7793 36.9 25.5593 37.186C25.3393 37.472 25.0497 37.6993 24.6903 37.868C24.331 38.0367 23.9093 38.121 23.4253 38.121C22.8533 38.121 22.3437 38 21.8963 37.758C21.449 37.516 21.097 37.1823 20.8403 36.757C20.5837 36.3317 20.4553 35.8367 20.4553 35.272C20.4553 34.7 20.58 34.2013 20.8293 33.776C21.0787 33.3433 21.4233 33.006 21.8633 32.764C22.3033 32.522 22.8057 32.401 23.3703 32.401C23.9643 32.401 24.463 32.5183 24.8663 32.753C25.2697 32.9877 25.5667 33.336 25.7573 33.798C25.9553 34.2527 26.036 34.821 25.9993 35.503H21.5003C21.537 35.833 21.636 36.1263 21.7973 36.383C21.966 36.6397 22.186 36.8413 22.4573 36.988C22.736 37.1347 23.055 37.208 23.4143 37.208C23.8177 37.208 24.155 37.1163 24.4263 36.933C24.6977 36.7497 24.881 36.5113 24.9763 36.218ZM23.3813 33.303C22.9047 33.303 22.5087 33.4313 22.1933 33.688C21.878 33.9373 21.669 34.271 21.5663 34.689H24.9433C24.914 34.2417 24.7527 33.9007 24.4593 33.666C24.166 33.424 23.8067 33.303 23.3813 33.303ZM29.6275 38.11C29.1508 38.11 28.7181 37.989 28.3295 37.747C27.9408 37.505 27.6328 37.1713 27.4055 36.746C27.1855 36.3133 27.0755 35.8183 27.0755 35.261C27.0755 34.7037 27.1855 34.2123 27.4055 33.787C27.6255 33.3543 27.9261 33.017 28.3075 32.775C28.6888 32.5257 29.1288 32.401 29.6275 32.401C30.0601 32.401 30.4195 32.4743 30.7055 32.621C30.9915 32.7677 31.2151 32.973 31.3765 33.237C31.5378 33.501 31.6515 33.8053 31.7175 34.15C31.7908 34.4947 31.8275 34.865 31.8275 35.261C31.8275 35.5543 31.7908 35.866 31.7175 36.196C31.6441 36.526 31.5268 36.8377 31.3655 37.131C31.2041 37.4243 30.9805 37.6627 30.6945 37.846C30.4085 38.022 30.0528 38.11 29.6275 38.11ZM29.9245 37.197C30.3131 37.197 30.6395 37.1127 30.9035 36.944C31.1748 36.768 31.3765 36.5333 31.5085 36.24C31.6405 35.9467 31.7065 35.6203 31.7065 35.261C31.7065 34.8723 31.6368 34.5313 31.4975 34.238C31.3655 33.9447 31.1638 33.7173 30.8925 33.556C30.6285 33.3947 30.3058 33.314 29.9245 33.314C29.3525 33.314 28.9088 33.4973 28.5935 33.864C28.2855 34.2307 28.1315 34.6963 28.1315 35.261C28.1315 35.6423 28.2085 35.9797 28.3625 36.273C28.5165 36.559 28.7255 36.7863 28.9895 36.955C29.2608 37.1163 29.5725 37.197 29.9245 37.197ZM31.7065 30.311H32.7625V38H31.7945C31.7725 37.8387 31.7505 37.6407 31.7285 37.406C31.7138 37.1713 31.7065 36.9697 31.7065 36.801V30.311Z" fill="#424144"/>
</svg>
