<svg width="24" height="22" viewBox="0 0 24 22" fill="none" xmlns="http://www.w3.org/2000/svg">
<path fill-rule="evenodd" clip-rule="evenodd" d="M8.98123 0.000682067C9.41748 0.0167388 9.7929 0.313928 9.90866 0.734849L14.6122 17.8385L17.5693 10.3117C17.7196 9.92906 18.0889 9.67741 18.5 9.67741H23C23.5523 9.67741 24 10.1251 24 10.6774C24 11.2297 23.5523 11.6774 23 11.6774H19.1815L15.3752 21.3657C15.2177 21.7664 14.8215 22.0214 14.3915 21.9986C13.9615 21.9758 13.5944 21.6803 13.4802 21.2652L8.82203 4.32618L6.4421 11.0127C6.30026 11.4112 5.92301 11.6774 5.5 11.6774H1C0.447715 11.6774 0 11.2297 0 10.6774C0 10.1251 0.447715 9.67741 1 9.67741H4.79447L8.00235 0.664685C8.14873 0.253412 8.54498 -0.0153747 8.98123 0.000682067Z" fill="black" fill-opacity="0.85"/>
</svg>
