<svg width="32" height="42" viewBox="0 0 32 42" fill="none" xmlns="http://www.w3.org/2000/svg">
<path d="M7 22L7.16547 20.9362C7.37405 19.5954 8.24842 18.4469 9.54504 18.0466C11.1365 17.5553 13.4905 17 16 17C18.5095 17 20.8635 17.5553 22.455 18.0466C23.7516 18.4469 24.6259 19.5954 24.8345 20.9362L25 22" stroke="#14142B" stroke-width="2" stroke-linecap="round" stroke-linejoin="round"/>
<path d="M16 12.5C18.7614 12.5 21 10.2614 21 7.5C21 4.73858 18.7614 2.5 16 2.5C13.2386 2.5 11 4.73858 11 7.5C11 10.2614 13.2386 12.5 16 12.5Z" stroke="#14142B" stroke-width="2" stroke-linecap="round" stroke-linejoin="round"/>
<path d="M12.8895 31.361L10.1725 36.113V38.5H9.11648V36.113L6.39948 31.361H7.60948L9.91948 35.53H9.41348L11.6795 31.361H12.8895ZM15.7131 38.621C15.1778 38.621 14.6865 38.5073 14.2391 38.28C13.7918 38.0527 13.4361 37.7263 13.1721 37.301C12.9081 36.8757 12.7761 36.366 12.7761 35.772C12.7761 35.1707 12.9081 34.6573 13.1721 34.232C13.4361 33.7993 13.7918 33.4693 14.2391 33.242C14.6865 33.0147 15.1778 32.901 15.7131 32.901C16.2485 32.901 16.7361 33.0147 17.1761 33.242C17.6161 33.4693 17.9681 33.7993 18.2321 34.232C18.4961 34.6573 18.6281 35.1707 18.6281 35.772C18.6281 36.366 18.4961 36.8757 18.2321 37.301C17.9681 37.7263 17.6161 38.0527 17.1761 38.28C16.7361 38.5073 16.2485 38.621 15.7131 38.621ZM15.7131 37.708C16.0431 37.708 16.3475 37.6347 16.6261 37.488C16.9121 37.334 17.1395 37.114 17.3081 36.828C17.4841 36.5347 17.5721 36.1827 17.5721 35.772C17.5721 35.354 17.4841 34.9983 17.3081 34.705C17.1395 34.4117 16.9121 34.188 16.6261 34.034C16.3475 33.88 16.0431 33.803 15.7131 33.803C15.3831 33.803 15.0751 33.88 14.7891 34.034C14.5031 34.1807 14.2721 34.4007 14.0961 34.694C13.9201 34.9873 13.8321 35.3467 13.8321 35.772C13.8321 36.1827 13.9165 36.5347 14.0851 36.828C14.2611 37.114 14.4921 37.334 14.7781 37.488C15.0641 37.6347 15.3758 37.708 15.7131 37.708ZM25.164 38.5H24.119V33.011H25.164V38.5ZM24.174 35.915L24.185 36.245C24.1777 36.3403 24.152 36.4833 24.108 36.674C24.0714 36.8573 24.0054 37.059 23.91 37.279C23.822 37.499 23.6974 37.7117 23.536 37.917C23.382 38.1223 23.184 38.291 22.942 38.423C22.7 38.555 22.4067 38.621 22.062 38.621C21.8274 38.621 21.5854 38.588 21.336 38.522C21.094 38.456 20.8704 38.346 20.665 38.192C20.4597 38.038 20.2947 37.829 20.17 37.565C20.0454 37.2937 19.983 36.9563 19.983 36.553V33.011H21.039V36.333C21.039 36.6703 21.0904 36.9343 21.193 37.125C21.303 37.3157 21.457 37.4513 21.655 37.532C21.853 37.6127 22.0767 37.653 22.326 37.653C22.7074 37.653 23.0264 37.5613 23.283 37.378C23.547 37.1873 23.7524 36.96 23.899 36.696C24.0457 36.4247 24.1374 36.1643 24.174 35.915Z" fill="#424144"/>
</svg>
