<svg width="320" height="284" viewBox="0 0 320 284" fill="none" xmlns="http://www.w3.org/2000/svg">
<path fill-rule="evenodd" clip-rule="evenodd" d="M320 0H0V283.775C37.6592 270.501 95.5621 262 160.5 262C224.866 262 282.32 270.352 320 283.426V0Z" fill="#FBC1BA"/>
<path d="M190.193 140.136L158 189L125.807 140.136C122.128 134.592 120 128.032 120 121C120 101.118 137.013 85 158 85C178.987 85 196 101.118 196 121C196 128.032 193.872 134.592 190.193 140.136Z" fill="#B4403A"/>
<path d="M150.5 107C144.517 107 139.667 111.85 139.667 117.833C139.667 123.057 142.727 127.832 146.295 131.436C149.88 135.056 154.263 137.786 157.475 138.853C157.816 138.967 158.185 138.967 158.526 138.853C161.737 137.786 166.121 135.056 169.705 131.436C173.274 127.832 176.334 123.057 176.334 117.833C176.334 111.85 171.483 107 165.5 107C162.589 107 159.946 108.15 158 110.016C156.055 108.15 153.412 107 150.5 107Z" fill="#FBC1BA"/>
<circle opacity="0.1" cx="156" cy="130" r="122" stroke="#F55C4B" stroke-width="2" stroke-dasharray="4 4"/>
<circle opacity="0.9" cx="156" cy="130" r="73" stroke="#F55C4B" stroke-width="2" stroke-dasharray="4 4"/>
<circle opacity="0.3" cx="156" cy="130" r="98" stroke="#F55C4B" stroke-width="2" stroke-dasharray="4 4"/>
<path d="M276.492 205.803L251.5 243.737L226.508 205.803C223.652 201.499 222 196.406 222 190.947C222 175.512 235.208 163 251.5 163C267.792 163 281 175.512 281 190.947C281 196.406 279.348 201.499 276.492 205.803Z" fill="#FDE4E1"/>
<rect width="31.0526" height="31.0526" transform="translate(235.974 176.197)" fill="#FDE4E1"/>
<path fill-rule="evenodd" clip-rule="evenodd" d="M243.737 185.254V189.136H241.149C239.72 189.136 238.562 190.295 238.562 191.724V203.368C238.562 204.798 239.72 205.956 241.149 205.956H261.851C263.28 205.956 264.439 204.798 264.439 203.368V191.724C264.439 190.295 263.28 189.136 261.851 189.136H259.263V185.254C259.263 180.967 255.788 177.491 251.5 177.491C247.213 177.491 243.737 180.967 243.737 185.254ZM251.5 180.079C248.642 180.079 246.325 182.396 246.325 185.254V189.136H256.676V185.254C256.676 182.396 254.358 180.079 251.5 180.079ZM252.794 195.605C252.794 194.891 252.215 194.311 251.5 194.311C250.786 194.311 250.206 194.891 250.206 195.605V199.487C250.206 200.201 250.786 200.781 251.5 200.781C252.215 200.781 252.794 200.201 252.794 199.487V195.605Z" fill="#F55C4B"/>
<path d="M88.0267 210.725L66 244.158L43.9733 210.725C41.456 206.932 40 202.443 40 197.632C40 184.028 51.6406 173 66 173C80.3594 173 92 184.028 92 197.632C92 202.443 90.544 206.932 88.0267 210.725Z" fill="#F55C4B"/>
<path d="M76.0775 187.818C76.5217 188.265 76.5198 188.987 76.0732 189.431L74.8226 190.675L77.105 192.945C77.3202 193.159 77.4411 193.45 77.4411 193.754C77.4411 194.057 77.3202 194.348 77.105 194.562L73.4938 198.154C73.049 198.597 72.3302 198.597 71.8854 198.154L69.5945 195.875L66.9067 198.549C68.0813 200.18 68.483 202.267 67.9546 204.246C67.3269 206.598 65.481 208.446 63.114 209.062C60.7535 209.685 58.237 209.002 56.5194 207.271L56.5108 207.262C53.9253 204.599 53.9624 200.364 56.5939 197.746C58.9528 195.4 62.6156 195.13 65.2744 196.956L68.7759 193.473C68.7806 193.468 68.7854 193.463 68.7902 193.458L72.4013 189.866C72.406 189.862 72.4106 189.857 72.4154 189.852L74.4648 187.814C74.9113 187.37 75.6334 187.372 76.0775 187.818Z" fill="#FBC1BA"/>
<path d="M141.631 224.49L128.5 244.421L115.369 224.49C113.868 222.228 113 219.552 113 216.684C113 208.574 119.94 202 128.5 202C137.06 202 144 208.574 144 216.684C144 219.552 143.132 222.228 141.631 224.49Z" fill="#F7FDF7"/>
<path d="M125.44 210.974C123 210.974 121.021 212.952 121.021 215.392C121.021 217.523 122.27 219.471 123.725 220.941C125.187 222.417 126.975 223.531 128.285 223.966C128.424 224.013 128.575 224.013 128.714 223.966C130.024 223.531 131.812 222.417 133.274 220.941C134.729 219.471 135.978 217.523 135.978 215.392C135.978 212.952 133.999 210.974 131.559 210.974C130.371 210.974 129.293 211.443 128.5 212.204C127.706 211.443 126.628 210.974 125.44 210.974Z" fill="#F55C4B"/>
</svg>
