<svg width="320" height="293" viewBox="0 0 320 293" fill="none" xmlns="http://www.w3.org/2000/svg">
<path d="M4.5 293H0V-1H321.5V291.5H315V263.5L312 266.5V258.5L309 262.5L305.5 250L302 262.5L299 258.5V266.5L296 263.5V291.5H291.5V288H288.5V291.5H285.5V236H288.5V225.5H285.5C285.333 223.167 284.8 217.9 284 215.5C283.2 213.1 279.667 209.833 278 208.5V194H276V191L274.5 188.5L273.5 181L272.5 188.5L271 191V194H269V208.5C268.167 208.667 265.9 210.3 263.5 215.5C261.1 220.7 260.833 224.333 261 225.5H258V236H261V269.5H256V262.5H252V269.5H249V262.5H245V269.5H242V262.5H238V269.5H235L232 251.5H230L219 163.5L207.5 274.5H194.5V262.5H190V256H186.5V266H180.5L178.5 268.5H173V248.5L171 251.5L168.5 242L166 251.5L164 248.5V274.5H160V222.5L157.5 210L155 222.5V229.5H152V222.5L149.5 210L147 222.5V229.5H144V222.5L141.5 210L139 222.5V258.5H117V235.5H114.5V229H111.5V235.5H109V250.5H106V246.5H103V236.5H99V246.5H92V236.5H88V246.5H85V250.5H82V235.5H79.5V229H76V235.5H73.5V268H67V264.5H65V268H59.5V270.5H54V268H49H39V270.5H36.5V276.5H33.5V266.5H31.5V264.5H29.5V260.5H26.5V240.5H25L21.5 232V226.5H16.5V232L13.5 240.5H12V260.5H9V264.5H7V266.5H4.5V293Z" fill="#FFE4BC"/>
</svg>
