<svg width="320" height="293" viewBox="0 0 320 293" fill="none" xmlns="http://www.w3.org/2000/svg">
<path d="M4.5 293H0V-1H321.5V291.5H315V263.5L312 266.5V258.5L309 262.5L305.5 250L302 262.5L299 258.5V266.5L296 263.5V291.5H291.5V288H288.5V291.5H285.5V236H288.5V225.5H285.5C285.333 223.167 284.8 217.9 284 215.5C283.2 213.1 279.667 209.833 278 208.5V194H276V191L274.5 188.5L273.5 181L272.5 188.5L271 191V194H269V208.5C268.167 208.667 265.9 210.3 263.5 215.5C261.1 220.7 260.833 224.333 261 225.5H258V236H261V269.5H256V262.5H252V269.5H249V262.5H245V269.5H242V262.5H238V269.5H235L232 251.5H230L219 163.5L207.5 274.5H194.5V262.5H190V256H186.5V266H180.5L178.5 268.5H173V248.5L171 251.5L168.5 242L166 251.5L164 248.5V274.5H160V222.5L157.5 210L155 222.5V229.5H152V222.5L149.5 210L147 222.5V229.5H144V222.5L141.5 210L139 222.5V258.5H117V235.5H114.5V229H111.5V235.5H109V250.5H106V246.5H103V236.5H99V246.5H92V236.5H88V246.5H85V250.5H82V235.5H79.5V229H76V235.5H73.5V268H67V264.5H65V268H59.5V270.5H54V268H49H39V270.5H36.5V276.5H33.5V266.5H31.5V264.5H29.5V260.5H26.5V240.5H25L21.5 232V226.5H16.5V232L13.5 240.5H12V260.5H9V264.5H7V266.5H4.5V293Z" fill="#FFE4BC"/>
<path d="M88.6313 195.49L75.5 215.421L62.3687 195.49C60.868 193.228 60 190.552 60 187.684C60 179.574 66.9396 173 75.5 173C84.0604 173 91 179.574 91 187.684C91 190.552 90.132 193.228 88.6313 195.49Z" fill="#FFF2DF"/>
<path d="M72.4403 181.974C69.9999 181.974 68.0215 183.952 68.0215 186.392C68.0215 188.523 69.2696 190.471 70.7251 191.941C72.1872 193.417 73.9753 194.531 75.2852 194.966C75.4243 195.013 75.5748 195.013 75.7139 194.966C77.0238 194.531 78.8119 193.417 80.274 191.941C81.7295 190.471 82.9776 188.523 82.9776 186.392C82.9776 183.952 80.9992 181.974 78.5588 181.974C77.3711 181.974 76.293 182.443 75.4996 183.204C74.7061 182.443 73.628 181.974 72.4403 181.974Z" fill="#FFB74D"/>
<path d="M286.027 131.725L264 165.158L241.973 131.725C239.456 127.932 238 123.443 238 118.632C238 105.028 249.641 94 264 94C278.359 94 290 105.028 290 118.632C290 123.443 288.544 127.932 286.027 131.725Z" fill="#B8A888"/>
<path d="M274.078 108.818C274.522 109.265 274.52 109.987 274.073 110.431L272.823 111.675L275.105 113.945C275.32 114.159 275.441 114.45 275.441 114.754C275.441 115.057 275.32 115.348 275.105 115.562L271.494 119.154C271.049 119.597 270.33 119.597 269.885 119.154L267.595 116.875L264.907 119.549C266.081 121.18 266.483 123.267 265.955 125.246C265.327 127.598 263.481 129.446 261.114 130.062C258.753 130.685 256.237 130.002 254.519 128.271L254.511 128.262C251.925 125.599 251.962 121.364 254.594 118.746C256.953 116.4 260.616 116.13 263.274 117.956L266.776 114.473C266.781 114.468 266.785 114.463 266.79 114.458L270.401 110.866C270.406 110.862 270.411 110.857 270.415 110.852L272.465 108.814C272.911 108.37 273.633 108.372 274.078 108.818Z" fill="#8A7D64"/>
<path d="M182.834 117.125V142.25H188.417C189.959 142.25 191.209 143.5 191.209 145.042C191.209 146.583 189.959 147.833 188.417 147.833H170.172C169.495 152.568 165.423 156.208 160.5 156.208C155.578 156.208 151.506 152.568 150.828 147.833H132.584C131.042 147.833 129.792 146.583 129.792 145.042C129.792 143.5 131.042 142.25 132.584 142.25H138.167V117.125C138.167 104.79 148.166 94.7915 160.5 94.7915C172.835 94.7915 182.834 104.79 182.834 117.125Z" fill="#FF9800"/>
<path d="M70.4919 84.8028L45.5 122.737L20.5081 84.8028C17.652 80.4994 16 75.4061 16 69.9474C16 54.5125 29.2076 42 45.5 42C61.7924 42 75 54.5125 75 69.9474C75 75.4061 73.348 80.4994 70.4919 84.8028Z" fill="#FFB74D"/>
<rect width="31.0526" height="31.0526" transform="translate(29.9736 55.1973)" fill="#FFB74D"/>
<path fill-rule="evenodd" clip-rule="evenodd" d="M37.737 64.2544V68.1359H35.1492C33.7201 68.1359 32.5615 69.2945 32.5615 70.7237V82.3684C32.5615 83.7976 33.7201 84.9561 35.1492 84.9561H55.851C57.2802 84.9561 58.4387 83.7976 58.4387 82.3684V70.7237C58.4387 69.2945 57.2802 68.1359 55.851 68.1359H53.2633V64.2544C53.2633 59.9669 49.7876 56.4912 45.5001 56.4912C41.2127 56.4912 37.737 59.9669 37.737 64.2544ZM45.5001 59.0789C42.6418 59.0789 40.3247 61.3961 40.3247 64.2544V68.1359H50.6756V64.2544C50.6756 61.3961 48.3584 59.0789 45.5001 59.0789ZM46.794 74.6052C46.794 73.8907 46.2147 73.3114 45.5001 73.3114C44.7855 73.3114 44.2063 73.8907 44.2063 74.6052V78.4868C44.2063 79.2014 44.7855 79.7807 45.5001 79.7807C46.2147 79.7807 46.794 79.2014 46.794 78.4868V74.6052Z" fill="#FF9800"/>
<circle opacity="0.1" cx="160" cy="131" r="88.2764" stroke="#FFB74D" stroke-width="1.44715" stroke-dasharray="2.89 2.89"/>
<circle opacity="0.9" cx="159.545" cy="130.545" r="52.8211" stroke="#FFB74D" stroke-width="1.44715" stroke-dasharray="2.89 2.89"/>
<circle opacity="0.3" cx="159.634" cy="130.634" r="70.9106" stroke="#FFB74D" stroke-width="1.44715" stroke-dasharray="2.89 2.89"/>
</svg>
