<svg width="320" height="283" viewBox="0 0 320 283" fill="none" xmlns="http://www.w3.org/2000/svg">
<path fill-rule="evenodd" clip-rule="evenodd" d="M320 -1H0V282.775C37.6592 269.501 95.5621 261 160.5 261C224.866 261 282.32 269.352 320 282.426V-1Z" fill="#B2E7B1"/>
<circle cx="161" cy="132" r="66" fill="#8B9B8B"/>
<path d="M255.631 224.49L242.5 244.421L229.369 224.49C227.868 222.228 227 219.552 227 216.684C227 208.574 233.94 202 242.5 202C251.06 202 258 208.574 258 216.684C258 219.552 257.132 222.228 255.631 224.49Z" fill="#D8E9FA"/>
<path d="M239.44 210.974C237 210.974 235.021 212.952 235.021 215.393C235.021 217.523 236.27 219.471 237.725 220.941C239.187 222.418 240.975 223.531 242.285 223.967C242.424 224.013 242.575 224.013 242.714 223.967C244.024 223.531 245.812 222.418 247.274 220.941C248.729 219.471 249.978 217.523 249.978 215.393C249.978 212.952 247.999 210.974 245.559 210.974C244.371 210.974 243.293 211.443 242.5 212.204C241.706 211.443 240.628 210.974 239.44 210.974Z" fill="#537FAC"/>
<path fill-rule="evenodd" clip-rule="evenodd" d="M139.786 109.786C145.34 104.232 153.021 100.792 161.5 100.792C169.979 100.792 177.66 104.232 183.214 109.786C188.768 115.34 192.209 123.021 192.209 131.5C192.209 139.979 188.768 147.66 183.214 153.214C177.66 158.768 169.979 162.208 161.5 162.208C153.021 162.208 145.34 158.768 139.786 153.214C134.232 147.66 130.792 139.979 130.792 131.5C130.792 123.021 134.232 115.34 139.786 109.786ZM177.433 125.099C178.523 124.009 178.523 122.241 177.433 121.151C176.342 120.061 174.575 120.061 173.485 121.151L158.709 135.927L152.308 129.526C151.217 128.436 149.45 128.436 148.36 129.526C147.269 130.616 147.269 132.384 148.36 133.474L156.735 141.849C157.825 142.939 159.592 142.939 160.683 141.849L177.433 125.099Z" fill="#F7FDF7"/>
<path d="M78.0267 199.725L56 233.158L33.9733 199.725C31.456 195.932 30 191.443 30 186.632C30 173.028 41.6406 162 56 162C70.3594 162 82 173.028 82 186.632C82 191.443 80.544 195.932 78.0267 199.725Z" fill="#B8A888"/>
<path d="M66.0775 176.819C66.5217 177.265 66.5198 177.987 66.0732 178.431L64.8226 179.675L67.105 181.946C67.3202 182.16 67.4411 182.451 67.4411 182.754C67.4411 183.058 67.3202 183.349 67.105 183.563L63.4938 187.155C63.049 187.597 62.3302 187.597 61.8854 187.155L59.5945 184.876L56.9067 187.55C58.0813 189.18 58.483 191.267 57.9546 193.246C57.3269 195.598 55.481 197.446 53.114 198.062C50.7535 198.685 48.237 198.003 46.5194 196.271L46.5108 196.263C43.9253 193.6 43.9624 189.365 46.5939 186.747C48.9528 184.4 52.6156 184.13 55.2744 185.956L58.7759 182.473C58.7806 182.468 58.7854 182.464 58.7902 182.459L62.4013 178.867C62.406 178.862 62.4106 178.857 62.4154 178.853L64.4648 176.814C64.9113 176.37 65.6334 176.372 66.0775 176.819Z" fill="#8A7D64"/>
<path d="M286.492 87.8028L261.5 125.737L236.508 87.8028C233.652 83.4994 232 78.4061 232 72.9474C232 57.5125 245.208 45 261.5 45C277.792 45 291 57.5125 291 72.9474C291 78.4061 289.348 83.4994 286.492 87.8028Z" fill="#F7FDF7"/>
<rect width="31.0526" height="31.0526" transform="translate(245.974 58.1973)" fill="#F7FDF7"/>
<path fill-rule="evenodd" clip-rule="evenodd" d="M253.737 67.2544V71.1359H251.149C249.72 71.1359 248.562 72.2945 248.562 73.7237V85.3684C248.562 86.7976 249.72 87.9561 251.149 87.9561H271.851C273.28 87.9561 274.439 86.7976 274.439 85.3684V73.7237C274.439 72.2945 273.28 71.1359 271.851 71.1359H269.263V67.2544C269.263 62.9669 265.788 59.4912 261.5 59.4912C257.213 59.4912 253.737 62.9669 253.737 67.2544ZM261.5 62.0789C258.642 62.0789 256.325 64.3961 256.325 67.2544V71.1359H266.676V67.2544C266.676 64.3961 264.358 62.0789 261.5 62.0789ZM262.794 77.6052C262.794 76.8907 262.215 76.3114 261.5 76.3114C260.786 76.3114 260.206 76.8907 260.206 77.6052V81.4868C260.206 82.2014 260.786 82.7807 261.5 82.7807C262.215 82.7807 262.794 82.2014 262.794 81.4868V77.6052Z" fill="#8B9B8B"/>
</svg>
