<svg width="320" height="293" viewBox="0 0 320 293" fill="none" xmlns="http://www.w3.org/2000/svg">
<path d="M4.5 293H0V-1H321.5V291.5H315V263.5L312 266.5V258.5L309 262.5L305.5 250L302 262.5L299 258.5V266.5L296 263.5V291.5H291.5V288H288.5V291.5H285.5V236H288.5V225.5H285.5C285.333 223.167 284.8 217.9 284 215.5C283.2 213.1 279.667 209.833 278 208.5V194H276V191L274.5 188.5L273.5 181L272.5 188.5L271 191V194H269V208.5C268.167 208.667 265.9 210.3 263.5 215.5C261.1 220.7 260.833 224.333 261 225.5H258V236H261V269.5H256V262.5H252V269.5H249V262.5H245V269.5H242V262.5H238V269.5H235L232 251.5H230L219 163.5L207.5 274.5H194.5V262.5H190V256H186.5V266H180.5L178.5 268.5H173V248.5L171 251.5L168.5 242L166 251.5L164 248.5V274.5H160V222.5L157.5 210L155 222.5V229.5H152V222.5L149.5 210L147 222.5V229.5H144V222.5L141.5 210L139 222.5V258.5H117V235.5H114.5V229H111.5V235.5H109V250.5H106V246.5H103V236.5H99V246.5H92V236.5H88V246.5H85V250.5H82V235.5H79.5V229H76V235.5H73.5V268H67V264.5H65V268H59.5V270.5H54V268H49H39V270.5H36.5V276.5H33.5V266.5H31.5V264.5H29.5V260.5H26.5V240.5H25L21.5 232V226.5H16.5V232L13.5 240.5H12V260.5H9V264.5H7V266.5H4.5V293Z" fill="#B7D6F5"/>
<path d="M62.6313 224.49L49.5 244.421L36.3687 224.49C34.868 222.228 34 219.552 34 216.684C34 208.574 40.9396 202 49.5 202C58.0604 202 65 208.574 65 216.684C65 219.552 64.132 222.228 62.6313 224.49Z" fill="#D8E9FA"/>
<path d="M46.4403 210.974C43.9999 210.974 42.0215 212.952 42.0215 215.392C42.0215 217.523 43.2696 219.471 44.7251 220.941C46.1872 222.417 47.9753 223.531 49.2852 223.966C49.4243 224.013 49.5748 224.013 49.7139 223.966C51.0238 223.531 52.8119 222.417 54.274 220.941C55.7295 219.471 56.9776 217.523 56.9776 215.392C56.9776 212.952 54.9992 210.974 52.5588 210.974C51.3711 210.974 50.293 211.443 49.4996 212.204C48.7061 211.443 47.628 210.974 46.4403 210.974Z" fill="#537FAC"/>
<path d="M279.492 148.803L254.5 186.737L229.508 148.803C226.652 144.499 225 139.406 225 133.947C225 118.512 238.208 106 254.5 106C270.792 106 284 118.512 284 133.947C284 139.406 282.348 144.499 279.492 148.803Z" fill="#385C80"/>
<rect width="31.0526" height="31.0526" transform="translate(238.974 119.197)" fill="#385C80"/>
<path fill-rule="evenodd" clip-rule="evenodd" d="M246.737 128.254V132.136H244.149C242.72 132.136 241.562 133.295 241.562 134.724V146.368C241.562 147.798 242.72 148.956 244.149 148.956H264.851C266.28 148.956 267.439 147.798 267.439 146.368V134.724C267.439 133.295 266.28 132.136 264.851 132.136H262.263V128.254C262.263 123.967 258.788 120.491 254.5 120.491C250.213 120.491 246.737 123.967 246.737 128.254ZM254.5 123.079C251.642 123.079 249.325 125.396 249.325 128.254V132.136H259.676V128.254C259.676 125.396 257.358 123.079 254.5 123.079ZM255.794 138.605C255.794 137.891 255.215 137.311 254.5 137.311C253.786 137.311 253.206 137.891 253.206 138.605V142.487C253.206 143.201 253.786 143.781 254.5 143.781C255.215 143.781 255.794 143.201 255.794 142.487V138.605Z" fill="#B7D6F5"/>
<path d="M133.193 138.136L101 187L68.8071 138.136C65.128 132.592 63 126.032 63 119C63 99.1178 80.0132 83 101 83C121.987 83 139 99.1178 139 119C139 126.032 136.872 132.592 133.193 138.136Z" fill="#385C80"/>
<path d="M92.6667 101.667C93.5871 101.667 94.3333 102.413 94.3333 103.333V114.682C94.3977 114.659 94.4619 114.634 94.5256 114.607C94.9797 114.418 95.341 114.171 95.584 113.868C95.806 113.59 96 113.18 96 112.5V104.167C96 103.246 96.7462 102.5 97.6667 102.5C98.5871 102.5 99.3333 103.246 99.3333 104.167V112.5C99.3333 113.903 98.9023 115.056 98.1869 115.95C97.4923 116.818 96.6036 117.352 95.8077 117.684C95.2887 117.9 94.7796 118.043 94.3333 118.137V136.667C94.3333 137.587 93.5871 138.333 92.6667 138.333C91.7462 138.333 91 137.587 91 136.667V118.137C90.5537 118.043 90.0446 117.9 89.5256 117.684C88.7297 117.352 87.841 116.818 87.1465 115.95C86.431 115.056 86 113.903 86 112.5V104.167C86 103.246 86.7462 102.5 87.6667 102.5C88.5871 102.5 89.3333 103.246 89.3333 104.167V112.5C89.3333 113.18 89.5273 113.59 89.7494 113.868C89.9923 114.171 90.3536 114.418 90.8077 114.607C90.8714 114.634 90.9357 114.659 91 114.682V103.333C91 102.413 91.7462 101.667 92.6667 101.667Z" fill="#B7D6F5"/>
<path d="M112.667 101.667C113.587 101.667 114.333 102.413 114.333 103.333V136.667C114.333 137.587 113.587 138.333 112.667 138.333C111.746 138.333 111 137.587 111 136.667V119.167H106C105.08 119.167 104.333 118.42 104.333 117.5V110C104.333 108.042 104.828 106.462 105.655 105.221C106.475 103.991 107.557 103.191 108.588 102.676C109.613 102.164 110.617 101.916 111.351 101.793C111.722 101.732 112.035 101.7 112.261 101.684C112.375 101.676 112.468 101.671 112.536 101.669C112.571 101.668 112.599 101.667 112.621 101.667L112.649 101.667L112.659 101.667L112.663 101.667L112.665 101.667C112.665 101.667 112.667 101.667 112.667 103.333V101.667Z" fill="#B7D6F5"/>
<path d="M201.027 175.725L179 209.158L156.973 175.725C154.456 171.932 153 167.443 153 162.632C153 149.028 164.641 138 179 138C193.359 138 205 149.028 205 162.632C205 167.443 203.544 171.932 201.027 175.725Z" fill="#537FAC"/>
<path d="M189.078 152.818C189.522 153.265 189.52 153.987 189.073 154.431L187.823 155.675L190.105 157.945C190.32 158.159 190.441 158.45 190.441 158.754C190.441 159.057 190.32 159.348 190.105 159.562L186.494 163.154C186.049 163.597 185.33 163.597 184.885 163.154L182.595 160.875L179.907 163.549C181.081 165.18 181.483 167.267 180.955 169.246C180.327 171.598 178.481 173.446 176.114 174.062C173.753 174.685 171.237 174.002 169.519 172.271L169.511 172.262C166.925 169.599 166.962 165.364 169.594 162.746C171.953 160.4 175.616 160.13 178.274 161.956L181.776 158.473C181.781 158.468 181.785 158.463 181.79 158.458L185.401 154.866C185.406 154.862 185.411 154.857 185.415 154.852L187.465 152.814C187.911 152.37 188.633 152.372 189.078 152.818Z" fill="#B7D6F5"/>
</svg>
