<svg width="24" height="25" viewBox="0 0 24 25" fill="none" xmlns="http://www.w3.org/2000/svg">
<path d="M11.6533 24.1987H2.05556C0.915141 24.1987 0 23.2706 0 22.1374V2.2601C0 1.12682 0.915135 0.19873 2.05556 0.19873H21.9445C23.0849 0.19873 24 1.12682 24 2.2601V22.1374C24 23.2706 23.0848 24.1987 21.9445 24.1987H15.6743V16.4754H18.7952L19.3308 12.81H15.6743V10.3648C15.6743 9.68978 16.2215 9.14258 16.8965 9.14258H19.3308V4.86475H14.8296L14.7989 4.8649C13.0381 4.88181 11.6244 6.32293 11.6413 8.08378L11.6533 9.33078L11.6104 12.81H8.33337V16.4754H11.6533V24.1987Z" fill="black" fill-opacity="0.85"/>
</svg>
