<svg width="24" height="25" viewBox="0 0 24 25" fill="none" xmlns="http://www.w3.org/2000/svg">
<path fill-rule="evenodd" clip-rule="evenodd" d="M2 7.19873C2 4.43731 4.23858 2.19873 7 2.19873H17C19.7614 2.19873 22 4.43731 22 7.19873V17.1987C22 19.9602 19.7614 22.1987 17 22.1987H7C4.23858 22.1987 2 19.9602 2 17.1987V7.19873ZM17.5 7.69873C18.0523 7.69873 18.5 7.25103 18.5 6.69873C18.5 6.14643 18.0523 5.69873 17.5 5.69873C16.9477 5.69873 16.5 6.14643 16.5 6.69873C16.5 7.25103 16.9477 7.69873 17.5 7.69873ZM12 7.19873C9.23857 7.19873 7 9.4373 7 12.1987C7 14.9602 9.23857 17.1987 12 17.1987C14.7614 17.1987 17 14.9602 17 12.1987C17 9.4373 14.7614 7.19873 12 7.19873Z" fill="black" fill-opacity="0.85"/>
</svg>
