<svg width="24" height="25" viewBox="0 0 24 25" fill="none" xmlns="http://www.w3.org/2000/svg">
<path d="M16.5 2.19873C16.1974 2.19873 15.9111 2.33575 15.7213 2.5714L12 7.19088L8.27876 2.5714C8.08893 2.33575 7.80261 2.19873 7.50001 2.19873H2.00001C1.61499 2.19873 1.26417 2.41977 1.09798 2.76706C0.931778 3.11436 0.979725 3.52623 1.22126 3.82606L7.96591 12.1987L1.22126 20.5714C0.979725 20.8712 0.931778 21.2831 1.09798 21.6304C1.26417 21.9777 1.61499 22.1987 2.00001 22.1987H7.50001C7.80261 22.1987 8.08893 22.0617 8.27876 21.8261L12 17.2066L15.7213 21.8261C15.9111 22.0617 16.1974 22.1987 16.5 22.1987H22C22.385 22.1987 22.7358 21.9777 22.902 21.6304C23.0682 21.2831 23.0203 20.8712 22.7788 20.5714L16.0341 12.1987L22.7788 3.82606C23.0203 3.52623 23.0682 3.11436 22.902 2.76706C22.7358 2.41977 22.385 2.19873 22 2.19873H16.5Z" fill="black" fill-opacity="0.85"/>
</svg>
