<svg width="1440" height="544" viewBox="0 0 1440 544" fill="none" xmlns="http://www.w3.org/2000/svg">
<path d="M1440 543.423V0H1200.66L1203.74 23.1035L1211.32 35.7325V50.8875H1221.42V124.136C1229.84 130.872 1247.69 147.374 1251.73 159.498C1255.77 171.622 1258.47 198.227 1259.31 210.014H1274.46V263.057H1259.31V543.423H1274.46V525.742H1289.62V543.423H1312.35V401.977L1327.51 417.132V376.718L1342.66 396.925L1360.34 333.779L1378.02 396.925L1393.18 376.718V417.132L1408.33 401.977V543.423H1440Z" fill="#FFF2DF"/>
<path d="M1196.72 0H936.273L978.942 341.357H989.045L1004.2 432.287H1019.36V396.925H1039.56V432.287H1054.72V396.925H1074.92V432.287H1090.08V396.925H1110.28V432.287H1135.54V263.057H1120.39V210.014H1135.54C1134.7 204.121 1136.05 185.766 1148.17 159.498C1160.3 133.229 1171.75 124.978 1175.96 124.136V50.8875H1186.06V35.7325L1193.64 23.1035L1196.72 0Z" fill="#FFF2DF"/>
<path d="M912.683 0L865.28 457.545H799.609V396.925H776.876V364.089H759.196V414.606H728.886L718.782 427.235H690.998V326.202L680.895 341.357L668.266 293.366L655.637 341.357L645.534 326.202V457.545H625.327V194.859L612.698 131.714L600.069 194.859V230.221H584.914V194.859L572.285 131.714L559.656 194.859V230.221H544.501V194.859L531.872 131.714L519.243 194.859V376.718H408.106V260.531H395.477V227.695H380.322V260.531H367.693V336.305H352.538V316.099H337.383V265.582H317.177V316.099H281.815V265.582H261.609V316.099H246.454V336.305H231.299V260.531H218.67V227.695H200.989V260.531H188.36V424.709H155.524V407.028H145.421V424.709H117.637V437.338H89.8528V424.709H14.0781V437.338H1.44897V467.648H0V0H912.683Z" fill="#FFF2DF"/>
<path d="M760.411 216.16V262.138H770.628C773.449 262.138 775.736 264.425 775.736 267.246C775.736 270.067 773.449 272.355 770.628 272.355H737.241C736.002 281.019 728.55 287.68 719.542 287.68C710.535 287.68 703.083 281.019 701.843 272.355H668.457C665.635 272.355 663.348 270.067 663.348 267.246C663.348 264.425 665.635 262.138 668.457 262.138H678.674V216.16C678.674 193.589 696.971 175.292 719.542 175.292C742.113 175.292 760.411 193.589 760.411 216.16Z" fill="#FFB74D"/>
<path opacity="0.3" d="M881.47 238.876C881.441 237.095 881.384 235.322 881.299 233.556L879.976 233.62C879.891 231.851 879.777 230.09 879.635 228.336L880.955 228.229C880.811 226.454 880.639 224.686 880.438 222.927L879.123 223.077C878.923 221.322 878.695 219.575 878.439 217.838L879.749 217.645C879.49 215.881 879.202 214.126 878.887 212.38L877.584 212.616C877.269 210.879 876.927 209.151 876.558 207.433L877.853 207.155C877.478 205.414 877.076 203.684 876.647 201.964L875.362 202.285C874.934 200.571 874.479 198.867 873.996 197.175L875.27 196.812C874.782 195.101 874.267 193.401 873.725 191.714L872.464 192.118C871.925 190.438 871.358 188.769 870.766 187.113L872.012 186.667C871.412 184.991 870.786 183.327 870.133 181.677L868.902 182.164C868.253 180.523 867.578 178.896 866.878 177.282L868.092 176.755C867.384 175.123 866.649 173.505 865.89 171.902L864.693 172.469C863.938 170.874 863.156 169.293 862.351 167.728L863.528 167.122C862.714 165.541 861.875 163.975 861.012 162.424L859.855 163.069C858.997 161.528 858.114 160.003 857.208 158.493L858.343 157.811C857.427 156.287 856.487 154.778 855.523 153.287L854.411 154.005C853.454 152.524 852.474 151.06 851.47 149.613L852.559 148.858C851.546 147.398 850.51 145.954 849.451 144.529L848.388 145.318C847.336 143.903 846.262 142.505 845.166 141.126L846.203 140.302C845.097 138.911 843.969 137.538 842.819 136.184L841.81 137.041C840.669 135.697 839.506 134.373 838.323 133.068L839.303 132.178C838.11 130.862 836.895 129.565 835.659 128.288L834.707 129.209C833.482 127.943 832.235 126.697 830.969 125.471L831.89 124.52C830.614 123.284 829.317 122.069 828 120.875L827.111 121.856C825.806 120.672 824.481 119.51 823.138 118.369L823.995 117.359C822.641 116.21 821.268 115.082 819.877 113.976L819.053 115.013C817.673 113.916 816.276 112.842 814.86 111.791L815.65 110.728C814.224 109.669 812.781 108.633 811.32 107.62L810.566 108.708C809.119 107.705 807.654 106.724 806.173 105.767L806.892 104.655C805.4 103.691 803.892 102.751 802.367 101.836L801.685 102.971C800.176 102.064 798.651 101.182 797.11 100.323L797.754 99.1667C796.204 98.3032 794.638 97.4643 793.057 96.6506L792.451 97.8279C790.885 97.0221 789.305 96.2411 787.71 95.4855L788.277 94.2889C786.673 93.5291 785.055 92.7948 783.424 92.0864L782.896 93.301C781.283 92.6005 779.655 91.9256 778.015 91.2767L778.502 90.0454C776.852 89.3927 775.188 88.7662 773.512 88.1663L773.066 89.413C771.41 88.8203 769.741 88.2539 768.06 87.7143L768.465 86.4536C766.777 85.9117 765.078 85.3966 763.366 84.9088L763.003 86.1822C761.311 85.6998 759.608 85.2444 757.894 84.8163L758.214 83.5316C756.495 83.1022 754.764 82.7001 753.024 82.3259L752.745 83.6204C751.028 83.2511 749.3 82.9092 747.562 82.595L747.798 81.292C746.053 80.9764 744.298 80.6886 742.534 80.4291L742.341 81.7391C740.603 81.4835 738.857 81.2556 737.102 81.0558L737.251 79.7402C735.492 79.54 733.725 79.3678 731.949 79.224L731.843 80.5438C730.089 80.4018 728.327 80.2879 726.558 80.2024L726.622 78.8798C724.856 78.7944 723.083 78.7372 721.303 78.7085L721.282 80.0325C720.399 80.0182 719.514 80.0111 718.628 80.0111C717.741 80.0111 716.857 80.0182 715.974 80.0325L715.952 78.7085C714.172 78.7372 712.399 78.7944 710.633 78.8798L710.697 80.2024C708.928 80.2879 707.166 80.4018 705.413 80.5438L705.306 79.224C703.53 79.3678 701.763 79.54 700.004 79.7402L700.154 81.0558C698.398 81.2556 696.652 81.4836 694.914 81.7391L694.722 80.4291C692.957 80.6886 691.202 80.9764 689.457 81.292L689.693 82.595C687.955 82.9092 686.228 83.2511 684.51 83.6204L684.232 82.3259C682.491 82.7002 680.76 83.1022 679.041 83.5317L679.362 84.8163C677.647 85.2444 675.944 85.6999 674.252 86.1822L673.889 84.9089C672.178 85.3967 670.478 85.9117 668.79 86.4536L669.195 87.7143C667.514 88.2539 665.846 88.8203 664.189 89.413L663.743 88.1663C662.067 88.7662 660.404 89.3927 658.753 90.0455L659.24 91.2767C657.6 91.9256 655.973 92.6005 654.359 93.301L653.832 92.0865C652.2 92.7948 650.582 93.5292 648.978 94.2889L649.545 95.4855C647.951 96.2411 646.37 97.0221 644.804 97.8279L644.199 96.6506C642.617 97.4643 641.051 98.3032 639.501 99.1667L640.145 100.323C638.604 101.182 637.079 102.064 635.57 102.971L634.888 101.836C633.363 102.751 631.855 103.691 630.363 104.655L631.082 105.767C629.601 106.724 628.137 107.705 626.689 108.708L625.935 107.62C624.474 108.633 623.031 109.669 621.605 110.728L622.395 111.791C620.98 112.842 619.582 113.916 618.202 115.013L617.379 113.976C615.987 115.082 614.614 116.21 613.26 117.36L614.118 118.369C612.774 119.51 611.449 120.672 610.144 121.856L609.255 120.875C607.938 122.069 606.642 123.284 605.365 124.52L606.286 125.471C605.02 126.697 603.773 127.943 602.548 129.209L601.596 128.288C600.361 129.565 599.146 130.862 597.952 132.178L598.933 133.068C597.749 134.373 596.586 135.697 595.445 137.041L594.436 136.184C593.286 137.538 592.158 138.911 591.053 140.302L592.089 141.126C590.993 142.505 589.919 143.903 588.867 145.318L587.804 144.529C586.746 145.954 585.709 147.398 584.697 148.858L585.785 149.613C584.781 151.06 583.801 152.524 582.844 154.005L581.732 153.287C580.768 154.778 579.828 156.287 578.912 157.811L580.047 158.493C579.141 160.003 578.258 161.528 577.4 163.069L576.243 162.424C575.38 163.975 574.541 165.541 573.727 167.122L574.905 167.728C574.099 169.293 573.318 170.874 572.562 172.469L571.366 171.902C570.606 173.505 569.871 175.123 569.163 176.755L570.378 177.282C569.677 178.896 569.002 180.523 568.353 182.164L567.122 181.677C566.469 183.327 565.843 184.991 565.243 186.667L566.49 187.113C565.897 188.769 565.331 190.438 564.791 192.118L563.53 191.714C562.988 193.401 562.473 195.101 561.985 196.812L563.259 197.175C562.776 198.867 562.321 200.571 561.893 202.285L560.608 201.964C560.179 203.684 559.777 205.414 559.403 207.155L560.697 207.433C560.328 209.151 559.986 210.879 559.672 212.616L558.369 212.381C558.053 214.126 557.765 215.881 557.506 217.645L558.816 217.838C558.56 219.575 558.332 221.322 558.132 223.077L556.817 222.927C556.617 224.686 556.444 226.454 556.301 228.229L557.62 228.336C557.478 230.09 557.365 231.851 557.279 233.62L555.956 233.556C555.871 235.322 555.814 237.095 555.785 238.876L557.109 238.897C557.095 239.78 557.088 240.665 557.088 241.551C557.088 242.437 557.095 243.322 557.109 244.205L555.785 244.226C555.814 246.007 555.871 247.78 555.956 249.546L557.279 249.482C557.365 251.251 557.478 253.012 557.62 254.766L556.301 254.873C556.444 256.648 556.617 258.416 556.817 260.175L558.132 260.025C558.332 261.78 558.56 263.527 558.816 265.264L557.506 265.457C557.765 267.221 558.053 268.976 558.369 270.721L559.672 270.486C559.986 272.223 560.328 273.951 560.697 275.669L559.403 275.947C559.777 277.688 560.179 279.418 560.608 281.138L561.893 280.817C562.321 282.531 562.777 284.235 563.259 285.927L561.986 286.29C562.473 288.001 562.988 289.701 563.53 291.388L564.791 290.984C565.331 292.664 565.897 294.333 566.49 295.989L565.243 296.435C565.843 298.111 566.469 299.775 567.122 301.425L568.353 300.938C569.002 302.579 569.677 304.206 570.378 305.82L569.163 306.347C569.871 307.979 570.606 309.597 571.366 311.2L572.562 310.633C573.318 312.228 574.099 313.809 574.905 315.374L573.727 315.98C574.541 317.561 575.38 319.127 576.243 320.678L577.4 320.033C578.258 321.574 579.141 323.099 580.047 324.609L578.912 325.29C579.828 326.815 580.768 328.324 581.732 329.815L582.844 329.097C583.801 330.578 584.781 332.042 585.785 333.489L584.697 334.244C585.709 335.704 586.746 337.148 587.804 338.573L588.867 337.784C589.919 339.199 590.993 340.597 592.089 341.976L591.053 342.8C592.158 344.191 593.286 345.564 594.436 346.918L595.445 346.061C596.586 347.405 597.749 348.729 598.933 350.034L597.952 350.924C599.146 352.24 600.361 353.537 601.596 354.813L602.548 353.893C603.774 355.159 605.02 356.405 606.286 357.631L605.365 358.582C606.642 359.818 607.938 361.033 609.255 362.227L610.144 361.246C611.45 362.43 612.774 363.592 614.118 364.733L613.261 365.742C614.614 366.892 615.987 368.02 617.379 369.126L618.202 368.089C619.582 369.186 620.98 370.26 622.395 371.311L621.606 372.374C623.031 373.433 624.474 374.469 625.935 375.482L626.689 374.394C628.137 375.397 629.601 376.378 631.082 377.335L630.364 378.447C631.855 379.411 633.364 380.351 634.888 381.266L635.57 380.131C637.079 381.038 638.605 381.92 640.145 382.778L639.501 383.935C641.051 384.799 642.618 385.638 644.199 386.451L644.804 385.274C646.37 386.08 647.951 386.861 649.545 387.616L648.979 388.813C650.582 389.573 652.2 390.307 653.832 391.016L654.359 389.801C655.973 390.501 657.6 391.176 659.24 391.825L658.753 393.056C660.404 393.709 662.067 394.336 663.743 394.936L664.19 393.689C665.846 394.282 667.514 394.848 669.195 395.388L668.79 396.648C670.478 397.19 672.178 397.705 673.889 398.193L674.252 396.92C675.944 397.402 677.647 397.858 679.362 398.286L679.041 399.57C680.76 400 682.491 400.402 684.232 400.776L684.51 399.482C686.228 399.851 687.955 400.193 689.693 400.507L689.457 401.81C691.202 402.126 692.957 402.413 694.722 402.673L694.914 401.363C696.652 401.618 698.399 401.846 700.154 402.046L700.004 403.362C701.763 403.562 703.53 403.734 705.306 403.878L705.413 402.558C707.166 402.7 708.928 402.814 710.697 402.9L710.633 404.222C712.399 404.307 714.172 404.365 715.952 404.393L715.974 403.069C716.857 403.084 717.741 403.091 718.628 403.091C719.514 403.091 720.399 403.084 721.282 403.069L721.303 404.393C723.083 404.365 724.856 404.307 726.622 404.222L726.558 402.9C728.327 402.814 730.089 402.7 731.843 402.558L731.949 403.878C733.725 403.734 735.492 403.562 737.251 403.362L737.102 402.046C738.857 401.846 740.603 401.618 742.341 401.363L742.534 402.673C744.298 402.413 746.053 402.126 747.798 401.81L747.562 400.507C749.3 400.193 751.028 399.851 752.745 399.482L753.024 400.776C754.764 400.402 756.495 400 758.214 399.57L757.894 398.286C759.608 397.858 761.311 397.402 763.003 396.92L763.367 398.193C765.078 397.705 766.777 397.19 768.465 396.648L768.06 395.388C769.741 394.848 771.41 394.282 773.066 393.689L773.512 394.936C775.188 394.336 776.852 393.709 778.502 393.056L778.015 391.825C779.655 391.176 781.283 390.501 782.896 389.801L783.424 391.015C785.055 390.307 786.673 389.573 788.277 388.813L787.71 387.616C789.305 386.861 790.885 386.08 792.451 385.274L793.057 386.451C794.638 385.638 796.204 384.799 797.754 383.935L797.11 382.778C798.651 381.92 800.176 381.038 801.685 380.131L802.367 381.266C803.892 380.351 805.4 379.411 806.892 378.447L806.173 377.335C807.654 376.378 809.119 375.397 810.566 374.394L811.32 375.482C812.781 374.469 814.224 373.433 815.65 372.374L814.86 371.311C816.276 370.26 817.673 369.186 819.053 368.089L819.877 369.126C821.268 368.02 822.641 366.892 823.995 365.742L823.138 364.733C824.481 363.592 825.806 362.43 827.111 361.246L828 362.227C829.317 361.033 830.614 359.818 831.89 358.582L830.969 357.631C832.236 356.405 833.482 355.159 834.708 353.893L835.659 354.813C836.895 353.537 838.11 352.24 839.303 350.924L838.323 350.034C839.506 348.729 840.669 347.404 841.81 346.061L842.819 346.918C843.969 345.564 845.097 344.191 846.203 342.8L845.166 341.976C846.262 340.597 847.336 339.199 848.388 337.783L849.451 338.573C850.51 337.148 851.546 335.704 852.559 334.244L851.471 333.489C852.474 332.042 853.454 330.578 854.411 329.097L855.523 329.815C856.487 328.323 857.427 326.815 858.343 325.29L857.208 324.609C858.114 323.099 858.997 321.574 859.855 320.033L861.012 320.678C861.875 319.127 862.714 317.561 863.528 315.98L862.351 315.374C863.157 313.808 863.938 312.228 864.693 310.633L865.89 311.2C866.649 309.597 867.384 307.979 868.092 306.347L866.878 305.82C867.578 304.206 868.253 302.579 868.902 300.938L870.133 301.425C870.786 299.775 871.412 298.111 872.012 296.435L870.766 295.989C871.358 294.333 871.925 292.664 872.464 290.983L873.725 291.388C874.267 289.701 874.782 288.001 875.27 286.29L873.996 285.927C874.479 284.235 874.934 282.531 875.362 280.817L876.647 281.138C877.076 279.418 877.478 277.688 877.853 275.947L876.558 275.669C876.927 273.951 877.269 272.223 877.584 270.486L878.887 270.721C879.202 268.976 879.49 267.221 879.749 265.457L878.439 265.264C878.695 263.527 878.923 261.78 879.123 260.025L880.438 260.175C880.639 258.416 880.811 256.648 880.955 254.873L879.635 254.766C879.777 253.012 879.891 251.251 879.976 249.482L881.299 249.546C881.384 247.78 881.441 246.006 881.47 244.226L880.146 244.205C880.16 243.322 880.167 242.437 880.167 241.551C880.167 240.665 880.16 239.78 880.146 238.897L881.47 238.876ZM817.102 240.718C817.102 239.846 817.09 238.978 817.068 238.111L814.421 238.18C814.443 239.023 814.453 239.869 814.453 240.718C814.453 241.567 814.443 242.413 814.421 243.256L817.068 243.324C817.09 242.458 817.102 241.589 817.102 240.718ZM816.8 232.92C816.665 231.184 816.486 229.46 816.262 227.749L813.636 228.092C813.854 229.756 814.028 231.435 814.16 233.125L816.8 232.92ZM815.455 222.613C815.14 220.902 814.781 219.206 814.379 217.526L811.803 218.142C812.194 219.777 812.544 221.427 812.851 223.093L815.455 222.613ZM813.036 212.503C812.543 210.836 812.007 209.187 811.43 207.558L808.934 208.442C809.495 210.027 810.017 211.632 810.497 213.254L813.036 212.503ZM809.566 202.704C808.9 201.099 808.194 199.516 807.448 197.955L805.059 199.097C805.785 200.616 806.472 202.157 807.119 203.718L809.566 202.704ZM805.084 193.324C804.254 191.799 803.386 190.298 802.48 188.823L800.223 190.209C801.105 191.645 801.95 193.105 802.758 194.59L805.084 193.324ZM799.644 184.465C798.66 183.036 797.64 181.634 796.584 180.26L794.484 181.874C795.512 183.211 796.505 184.576 797.463 185.966L799.644 184.465ZM793.31 176.222C792.183 174.904 791.023 173.616 789.83 172.359L787.909 174.182C789.07 175.406 790.2 176.66 791.297 177.943L793.31 176.222ZM786.153 168.683C784.896 167.49 783.608 166.329 782.291 165.203L780.57 167.216C781.853 168.312 783.106 169.442 784.33 170.603L786.153 168.683ZM778.252 161.928C776.878 160.873 775.477 159.852 774.048 158.869L772.546 161.05C773.937 162.007 775.301 163.001 776.638 164.028L778.252 161.928ZM769.689 156.033C768.214 155.127 766.713 154.258 765.188 153.428L763.923 155.754C765.407 156.562 766.868 157.407 768.304 158.289L769.689 156.033ZM760.557 151.064C758.996 150.318 757.413 149.612 755.808 148.947L754.794 151.393C756.355 152.04 757.896 152.728 759.415 153.453L760.557 151.064ZM750.955 147.082C749.325 146.505 747.676 145.969 746.009 145.476L745.258 148.016C746.88 148.496 748.485 149.017 750.071 149.578L750.955 147.082ZM740.986 144.134C739.307 143.732 737.611 143.373 735.899 143.057L735.419 145.662C737.085 145.968 738.736 146.318 740.37 146.709L740.986 144.134ZM730.763 142.25C729.053 142.027 727.329 141.847 725.592 141.712L725.387 144.353C727.078 144.484 728.756 144.659 730.421 144.876L730.763 142.25ZM720.401 141.444C719.535 141.422 718.666 141.411 717.794 141.411C716.923 141.411 716.054 141.422 715.188 141.444L715.256 144.091C716.1 144.07 716.946 144.059 717.794 144.059C718.643 144.059 719.489 144.07 720.333 144.091L720.401 141.444ZM709.997 141.712C708.26 141.847 706.536 142.027 704.826 142.25L705.168 144.876C706.833 144.659 708.511 144.484 710.202 144.353L709.997 141.712ZM699.69 143.057C697.978 143.373 696.282 143.732 694.603 144.134L695.219 146.709C696.853 146.318 698.504 145.968 700.169 145.662L699.69 143.057ZM689.58 145.476C687.912 145.969 686.264 146.505 684.634 147.082L685.518 149.578C687.104 149.017 688.708 148.496 690.331 148.016L689.58 145.476ZM679.78 148.947C678.176 149.612 676.592 150.318 675.032 151.064L676.173 153.453C677.692 152.728 679.233 152.04 680.795 151.393L679.78 148.947ZM670.401 153.428C668.876 154.258 667.375 155.127 665.899 156.033L667.285 158.289C668.721 157.407 670.182 156.562 671.666 155.754L670.401 153.428ZM661.541 158.869C660.112 159.852 658.71 160.873 657.337 161.928L658.951 164.028C660.288 163.001 661.652 162.007 663.043 161.05L661.541 158.869ZM653.298 165.203C651.98 166.329 650.692 167.49 649.436 168.683L651.259 170.603C652.482 169.442 653.736 168.312 655.019 167.216L653.298 165.203ZM645.759 172.359C644.566 173.616 643.406 174.904 642.279 176.222L644.292 177.943C645.389 176.66 646.519 175.406 647.68 174.182L645.759 172.359ZM639.005 180.26C637.949 181.634 636.929 183.036 635.945 184.465L638.126 185.966C639.084 184.576 640.077 183.211 641.104 181.874L639.005 180.26ZM633.109 188.823C632.203 190.298 631.335 191.799 630.505 193.324L632.831 194.59C633.639 193.105 634.484 191.645 635.366 190.209L633.109 188.823ZM628.141 197.955C627.395 199.516 626.689 201.099 626.023 202.704L628.469 203.718C629.117 202.157 629.804 200.616 630.53 199.097L628.141 197.955ZM624.159 207.558C623.582 209.187 623.046 210.836 622.553 212.503L625.092 213.254C625.572 211.632 626.093 210.027 626.655 208.442L624.159 207.558ZM621.21 217.526C620.808 219.206 620.449 220.902 620.134 222.613L622.738 223.093C623.045 221.427 623.395 219.777 623.786 218.142L621.21 217.526ZM619.326 227.749C619.103 229.46 618.924 231.184 618.789 232.92L621.429 233.125C621.56 231.435 621.735 229.756 621.952 228.092L619.326 227.749ZM618.521 238.111C618.498 238.978 618.487 239.846 618.487 240.718C618.487 241.589 618.498 242.458 618.521 243.324L621.168 243.256C621.146 242.413 621.135 241.567 621.135 240.718C621.135 239.869 621.146 239.023 621.168 238.18L618.521 238.111ZM618.789 248.516C618.924 250.252 619.103 251.976 619.326 253.687L621.952 253.344C621.735 251.679 621.56 250.001 621.429 248.311L618.789 248.516ZM620.134 258.823C620.449 260.534 620.808 262.23 621.21 263.91L623.786 263.293C623.395 261.659 623.045 260.008 622.738 258.343L620.134 258.823ZM622.553 268.933C623.046 270.6 623.582 272.249 624.159 273.878L626.655 272.994C626.093 271.408 625.572 269.804 625.092 268.182L622.553 268.933ZM626.023 278.732C626.689 280.336 627.395 281.92 628.141 283.481L630.53 282.339C629.804 280.82 629.117 279.279 628.469 277.717L626.023 278.732ZM630.505 288.112C631.335 289.637 632.203 291.137 633.109 292.613L635.366 291.227C634.484 289.791 633.639 288.33 632.831 286.846L630.505 288.112ZM635.945 296.971C636.929 298.4 637.949 299.802 639.005 301.175L641.105 299.562C640.077 298.225 639.084 296.86 638.126 295.469L635.945 296.971ZM642.279 305.214C643.406 306.532 644.566 307.82 645.759 309.077L647.68 307.253C646.519 306.03 645.389 304.776 644.292 303.493L642.279 305.214ZM649.436 312.753C650.692 313.946 651.98 315.107 653.298 316.233L655.019 314.22C653.736 313.124 652.482 311.994 651.259 310.832L649.436 312.753ZM657.337 319.508C658.71 320.563 660.112 321.583 661.541 322.567L663.043 320.386C661.652 319.428 660.288 318.435 658.951 317.408L657.337 319.508ZM665.899 325.403C667.375 326.309 668.876 327.178 670.401 328.007L671.666 325.681C670.182 324.874 668.721 324.028 667.285 323.147L665.899 325.403ZM675.032 330.372C676.592 331.117 678.176 331.824 679.78 332.489L680.795 330.043C679.233 329.395 677.692 328.708 676.173 327.982L675.032 330.372ZM684.634 334.354C686.264 334.931 687.912 335.466 689.58 335.959L690.331 333.42C688.708 332.94 687.104 332.419 685.518 331.857L684.634 334.354ZM694.603 337.302C696.282 337.704 697.978 338.063 699.69 338.378L700.169 335.774C698.504 335.467 696.853 335.118 695.219 334.727L694.603 337.302ZM704.826 339.186C706.536 339.409 708.26 339.589 709.997 339.723L710.202 337.083C708.511 336.952 706.833 336.777 705.168 336.56L704.826 339.186ZM715.188 339.992C716.054 340.014 716.923 340.025 717.794 340.025C718.666 340.025 719.535 340.014 720.401 339.992L720.333 337.344C719.489 337.366 718.643 337.377 717.794 337.377C716.946 337.377 716.1 337.366 715.256 337.344L715.188 339.992ZM725.592 339.723C727.329 339.589 729.053 339.409 730.763 339.186L730.421 336.56C728.756 336.777 727.078 336.952 725.387 337.083L725.592 339.723ZM735.899 338.378C737.611 338.063 739.307 337.704 740.986 337.302L740.37 334.727C738.736 335.118 737.085 335.467 735.42 335.774L735.899 338.378ZM746.009 335.959C747.676 335.466 749.325 334.931 750.955 334.354L750.071 331.857C748.485 332.419 746.88 332.94 745.258 333.42L746.009 335.959ZM755.808 332.489C757.413 331.824 758.996 331.117 760.557 330.372L759.415 327.982C757.896 328.708 756.356 329.395 754.794 330.043L755.808 332.489ZM765.188 328.007C766.713 327.178 768.214 326.309 769.689 325.403L768.304 323.147C766.868 324.028 765.407 324.874 763.923 325.681L765.188 328.007ZM774.048 322.567C775.477 321.583 776.878 320.563 778.252 319.508L776.638 317.408C775.301 318.435 773.937 319.428 772.546 320.386L774.048 322.567ZM782.291 316.233C783.608 315.107 784.896 313.946 786.153 312.753L784.33 310.832C783.106 311.994 781.853 313.124 780.57 314.22L782.291 316.233ZM789.83 309.077C791.023 307.82 792.183 306.532 793.31 305.214L791.297 303.493C790.2 304.776 789.07 306.03 787.909 307.253L789.83 309.077ZM796.584 301.175C797.64 299.802 798.66 298.4 799.644 296.971L797.463 295.469C796.505 296.86 795.512 298.225 794.484 299.562L796.584 301.175ZM802.48 292.613C803.386 291.137 804.254 289.637 805.084 288.112L802.758 286.846C801.95 288.33 801.105 289.791 800.223 291.227L802.48 292.613ZM807.448 283.481C808.194 281.92 808.9 280.336 809.566 278.732L807.119 277.717C806.472 279.279 805.785 280.82 805.059 282.339L807.448 283.481ZM811.43 273.878C812.007 272.249 812.543 270.6 813.036 268.933L810.497 268.182C810.017 269.804 809.495 271.408 808.934 272.994L811.43 273.878ZM814.379 263.91C814.781 262.23 815.14 260.534 815.455 258.823L812.851 258.343C812.544 260.008 812.194 261.659 811.803 263.293L814.379 263.91ZM816.262 253.687C816.486 251.976 816.665 250.252 816.8 248.516L814.16 248.311C814.028 250.001 813.854 251.679 813.636 253.344L816.262 253.687ZM850.368 240.882C850.368 239.964 850.358 239.049 850.34 238.136L847.692 238.19C847.71 239.085 847.72 239.982 847.72 240.882C847.72 241.781 847.71 242.678 847.692 243.573L850.34 243.627C850.358 242.714 850.368 241.799 850.368 240.882ZM850.117 232.671C850.006 230.844 849.857 229.027 849.672 227.221L847.037 227.491C847.219 229.261 847.365 231.042 847.474 232.833L850.117 232.671ZM849.001 221.785C848.739 219.972 848.44 218.171 848.106 216.383L845.503 216.87C845.83 218.622 846.123 220.387 846.38 222.163L849.001 221.785ZM846.987 211.024C846.577 209.241 846.13 207.472 845.648 205.718L843.094 206.42C843.566 208.139 844.004 209.872 844.407 211.619L846.987 211.024ZM844.088 200.473C843.531 198.731 842.938 197.006 842.312 195.297L839.825 196.209C840.439 197.883 841.02 199.574 841.566 201.28L844.088 200.473ZM840.32 190.196C839.62 188.508 838.885 186.836 838.118 185.184L835.716 186.299C836.468 187.918 837.188 189.556 837.874 191.211L840.32 190.196ZM835.71 180.268C834.873 178.644 834.003 177.04 833.101 175.456L830.8 176.767C831.683 178.319 832.536 179.891 833.357 181.482L835.71 180.268ZM830.295 170.757C829.327 169.209 828.327 167.683 827.297 166.178L825.112 167.674C826.121 169.149 827.101 170.645 828.05 172.162L830.295 170.757ZM824.113 161.727C823.021 160.264 821.899 158.825 820.748 157.409L818.694 159.08C819.821 160.467 820.921 161.878 821.992 163.311L824.113 161.727ZM817.209 153.234C816 151.867 814.764 150.525 813.501 149.209L811.59 151.042C812.828 152.332 814.04 153.648 815.225 154.988L817.209 153.234ZM809.631 145.339C808.315 144.075 806.973 142.839 805.605 141.631L803.851 143.615C805.192 144.799 806.507 146.011 807.797 147.249L809.631 145.339ZM801.43 138.091C800.015 136.941 798.576 135.819 797.113 134.726L795.528 136.848C796.962 137.919 798.373 139.018 799.76 140.146L801.43 138.091ZM792.661 131.542C791.157 130.512 789.63 129.513 788.082 128.545L786.678 130.79C788.195 131.739 789.691 132.718 791.165 133.727L792.661 131.542ZM783.383 125.739C781.799 124.837 780.195 123.967 778.572 123.129L777.358 125.483C778.949 126.304 780.521 127.156 782.073 128.04L783.383 125.739ZM773.656 120.722C772.003 119.954 770.332 119.22 768.643 118.52L767.629 120.966C769.284 121.652 770.921 122.372 772.541 123.123L773.656 120.722ZM763.543 116.528C761.834 115.901 760.108 115.309 758.367 114.751L757.56 117.274C759.266 117.82 760.956 118.4 762.631 119.014L763.543 116.528ZM753.122 113.192C751.367 112.71 749.598 112.263 747.815 111.852L747.221 114.433C748.968 114.835 750.701 115.273 752.42 115.746L753.122 113.192ZM742.457 110.734C740.669 110.399 738.868 110.101 737.055 109.839L736.676 112.46C738.453 112.717 740.217 113.009 741.97 113.337L742.457 110.734ZM731.619 109.168C729.813 108.983 727.996 108.834 726.169 108.722L726.007 111.366C727.798 111.475 729.578 111.621 731.349 111.802L731.619 109.168ZM720.704 108.5C719.791 108.481 718.875 108.472 717.958 108.472C717.041 108.472 716.125 108.481 715.212 108.5L715.266 111.147C716.161 111.129 717.059 111.12 717.958 111.12C718.857 111.12 719.755 111.129 720.65 111.147L720.704 108.5ZM709.747 108.722C707.921 108.834 706.104 108.983 704.297 109.168L704.567 111.802C706.338 111.621 708.118 111.475 709.909 111.366L709.747 108.722ZM698.861 109.839C697.049 110.101 695.248 110.399 693.459 110.734L693.946 113.337C695.699 113.009 697.464 112.717 699.24 112.46L698.861 109.839ZM688.101 111.852C686.318 112.263 684.549 112.71 682.794 113.192L683.496 115.746C685.215 115.273 686.949 114.835 688.695 114.433L688.101 111.852ZM677.549 114.751C675.808 115.309 674.082 115.901 672.374 116.528L673.285 119.014C674.96 118.4 676.65 117.82 678.356 117.274L677.549 114.751ZM667.273 118.52C665.584 119.22 663.913 119.954 662.26 120.722L663.376 123.123C664.995 122.372 666.633 121.652 668.287 120.966L667.273 118.52ZM657.344 123.129C655.721 123.967 654.117 124.837 652.533 125.739L653.843 128.04C655.395 127.156 656.967 126.304 658.558 125.483L657.344 123.129ZM647.834 128.545C646.286 129.513 644.759 130.512 643.255 131.542L644.751 133.727C646.225 132.718 647.721 131.739 649.238 130.79L647.834 128.545ZM638.803 134.726C637.341 135.819 635.901 136.941 634.486 138.091L636.157 140.146C637.544 139.018 638.954 137.919 640.388 136.848L638.803 134.726ZM630.311 141.631C628.944 142.839 627.601 144.075 626.285 145.339L628.119 147.249C629.409 146.011 630.724 144.799 632.065 143.615L630.311 141.631ZM622.415 149.209C621.152 150.525 619.916 151.867 618.707 153.234L620.692 154.988C621.876 153.648 623.088 152.332 624.326 151.042L622.415 149.209ZM615.168 157.409C614.017 158.825 612.895 160.264 611.803 161.727L613.924 163.311C614.995 161.878 616.095 160.467 617.222 159.08L615.168 157.409ZM608.619 166.178C607.589 167.683 606.59 169.209 605.621 170.757L607.866 172.162C608.815 170.645 609.795 169.149 610.804 167.674L608.619 166.178ZM602.815 175.456C601.913 177.04 601.043 178.644 600.206 180.268L602.559 181.482C603.38 179.891 604.233 178.319 605.116 176.767L602.815 175.456ZM597.798 185.184C597.031 186.836 596.296 188.508 595.596 190.196L598.042 191.211C598.729 189.556 599.448 187.918 600.2 186.299L597.798 185.184ZM593.604 195.297C592.978 197.006 592.385 198.731 591.828 200.473L594.35 201.28C594.896 199.574 595.477 197.883 596.091 196.209L593.604 195.297ZM590.269 205.718C589.786 207.472 589.34 209.241 588.929 211.024L591.509 211.619C591.912 209.872 592.35 208.139 592.822 206.42L590.269 205.718ZM587.811 216.383C587.476 218.171 587.177 219.972 586.915 221.785L589.536 222.163C589.793 220.387 590.086 218.622 590.414 216.87L587.811 216.383ZM586.245 227.221C586.059 229.027 585.911 230.844 585.799 232.671L588.442 232.833C588.552 231.042 588.698 229.261 588.879 227.491L586.245 227.221ZM585.576 238.136C585.558 239.049 585.548 239.964 585.548 240.882C585.548 241.799 585.558 242.714 585.576 243.627L588.224 243.573C588.206 242.678 588.197 241.781 588.197 240.882C588.197 239.982 588.206 239.085 588.224 238.19L585.576 238.136ZM585.799 249.092C585.911 250.919 586.059 252.736 586.245 254.542L588.879 254.272C588.698 252.502 588.552 250.721 588.442 248.93L585.799 249.092ZM586.915 259.978C587.177 261.791 587.476 263.592 587.811 265.38L590.414 264.893C590.086 263.141 589.793 261.376 589.536 259.6L586.915 259.978ZM588.929 270.739C589.34 272.522 589.787 274.291 590.269 276.045L592.822 275.344C592.35 273.624 591.912 271.891 591.509 270.144L588.929 270.739ZM591.828 281.29C592.385 283.032 592.978 284.757 593.604 286.466L596.091 285.554C595.477 283.88 594.896 282.189 594.35 280.483L591.828 281.29ZM595.596 291.567C596.296 293.255 597.031 294.927 597.798 296.579L600.2 295.464C599.448 293.845 598.729 292.207 598.042 290.552L595.596 291.567ZM600.206 301.495C601.043 303.119 601.913 304.723 602.815 306.307L605.116 304.996C604.233 303.444 603.38 301.872 602.559 300.281L600.206 301.495ZM605.621 311.006C606.59 312.554 607.589 314.08 608.619 315.585L610.804 314.089C609.795 312.615 608.815 311.118 607.866 309.601L605.621 311.006ZM611.803 320.036C612.895 321.499 614.017 322.938 615.168 324.354L617.222 322.683C616.095 321.296 614.995 319.885 613.924 318.452L611.803 320.036ZM618.707 328.529C619.916 329.896 621.152 331.238 622.415 332.554L624.326 330.721C623.088 329.431 621.876 328.115 620.692 326.775L618.707 328.529ZM626.285 336.424C627.601 337.688 628.944 338.924 630.311 340.132L632.065 338.148C630.724 336.964 629.409 335.752 628.119 334.514L626.285 336.424ZM634.486 343.672C635.901 344.822 637.341 345.944 638.803 347.037L640.388 344.915C638.954 343.844 637.544 342.745 636.157 341.617L634.486 343.672ZM643.255 350.221C644.759 351.251 646.286 352.25 647.834 353.218L649.238 350.973C647.721 350.024 646.225 349.045 644.751 348.036L643.255 350.221ZM652.533 356.024C654.117 356.926 655.721 357.796 657.344 358.634L658.558 356.28C656.967 355.46 655.395 354.607 653.843 353.723L652.533 356.024ZM662.26 361.042C663.913 361.809 665.584 362.543 667.273 363.243L668.287 360.797C666.633 360.111 664.995 359.392 663.376 358.64L662.26 361.042ZM672.374 365.235C674.083 365.862 675.808 366.454 677.549 367.012L678.356 364.489C676.65 363.943 674.96 363.363 673.285 362.749L672.374 365.235ZM682.794 368.571C684.549 369.053 686.318 369.5 688.101 369.911L688.695 367.33C686.949 366.928 685.215 366.49 683.496 366.017L682.794 368.571ZM693.459 371.029C695.248 371.364 697.049 371.662 698.861 371.924L699.24 369.303C697.464 369.047 695.699 368.754 693.946 368.426L693.459 371.029ZM704.297 372.595C706.104 372.78 707.921 372.929 709.748 373.041L709.909 370.398C708.119 370.288 706.338 370.142 704.567 369.961L704.297 372.595ZM715.212 373.263C716.125 373.282 717.041 373.291 717.958 373.291C718.875 373.291 719.791 373.282 720.704 373.263L720.65 370.616C719.755 370.634 718.857 370.643 717.958 370.643C717.059 370.643 716.161 370.634 715.266 370.616L715.212 373.263ZM726.169 373.041C727.996 372.929 729.813 372.78 731.619 372.595L731.349 369.961C729.579 370.142 727.798 370.288 726.007 370.398L726.169 373.041ZM737.055 371.924C738.868 371.662 740.669 371.364 742.457 371.029L741.97 368.426C740.217 368.754 738.453 369.047 736.676 369.303L737.055 371.924ZM747.815 369.911C749.598 369.5 751.367 369.053 753.122 368.571L752.42 366.017C750.701 366.49 748.968 366.928 747.221 367.33L747.815 369.911ZM758.367 367.012C760.108 366.454 761.834 365.862 763.543 365.235L762.631 362.749C760.956 363.363 759.266 363.943 757.56 364.489L758.367 367.012ZM768.643 363.243C770.332 362.543 772.003 361.809 773.656 361.042L772.541 358.64C770.921 359.392 769.284 360.111 767.629 360.797L768.643 363.243ZM778.572 358.634C780.195 357.796 781.799 356.926 783.383 356.024L782.073 353.723C780.521 354.607 778.949 355.46 777.358 356.28L778.572 358.634ZM788.082 353.218C789.63 352.25 791.157 351.251 792.661 350.221L791.165 348.036C789.691 349.045 788.195 350.024 786.678 350.973L788.082 353.218ZM797.113 347.037C798.576 345.944 800.015 344.822 801.43 343.672L799.76 341.617C798.373 342.745 796.962 343.844 795.528 344.915L797.113 347.037ZM805.605 340.132C806.973 338.924 808.315 337.688 809.631 336.424L807.797 334.514C806.507 335.752 805.192 336.964 803.852 338.148L805.605 340.132ZM813.501 332.554C814.764 331.238 816 329.896 817.209 328.529L815.225 326.775C814.04 328.115 812.828 329.431 811.59 330.721L813.501 332.554ZM820.748 324.354C821.899 322.938 823.021 321.499 824.113 320.036L821.992 318.452C820.921 319.885 819.821 321.296 818.694 322.683L820.748 324.354ZM827.297 315.585C828.327 314.08 829.327 312.554 830.295 311.006L828.05 309.601C827.101 311.118 826.121 312.615 825.112 314.089L827.297 315.585ZM833.101 306.307C834.003 304.723 834.873 303.119 835.71 301.495L833.357 300.281C832.536 301.872 831.683 303.444 830.8 304.996L833.101 306.307ZM838.118 296.579C838.885 294.927 839.62 293.255 840.32 291.567L837.874 290.552C837.188 292.207 836.468 293.845 835.716 295.464L838.118 296.579ZM842.312 286.466C842.938 284.757 843.531 283.032 844.088 281.29L841.566 280.483C841.02 282.189 840.439 283.88 839.825 285.554L842.312 286.466ZM845.648 276.045C846.13 274.291 846.577 272.522 846.987 270.739L844.407 270.144C844.004 271.891 843.566 273.624 843.094 275.344L845.648 276.045ZM848.106 265.38C848.44 263.592 848.739 261.791 849.001 259.978L846.38 259.6C846.123 261.376 845.83 263.141 845.503 264.893L848.106 265.38ZM849.672 254.542C849.857 252.736 850.006 250.919 850.117 249.092L847.474 248.93C847.365 250.721 847.219 252.502 847.037 254.272L849.672 254.542Z" stroke="#FFB74D" stroke-width="2.64819" stroke-dasharray="5.3 5.3"/>
<path d="M497.402 141.128L451.669 210.545L405.936 141.128C400.709 133.253 397.686 123.933 397.686 113.944C397.686 85.6987 421.855 62.8018 451.669 62.8018C481.483 62.8018 505.652 85.6987 505.652 113.944C505.652 123.933 502.629 133.253 497.402 141.128Z" fill="#FFB74D"/>
<path fill-rule="evenodd" clip-rule="evenodd" d="M437.463 103.525V110.628H432.728C430.112 110.628 427.992 112.749 427.992 115.364V136.673C427.992 139.288 430.112 141.408 432.728 141.408H470.61C473.226 141.408 475.346 139.288 475.346 136.673V115.364C475.346 112.749 473.226 110.628 470.61 110.628H465.875V103.525C465.875 95.6796 459.515 89.3194 451.669 89.3194C443.823 89.3194 437.463 95.6796 437.463 103.525ZM451.669 94.0547C446.439 94.0547 442.198 98.2949 442.198 103.525V110.628H461.14V103.525C461.14 98.2949 456.899 94.0547 451.669 94.0547ZM454.037 122.467C454.037 121.159 452.977 120.099 451.669 120.099C450.361 120.099 449.301 121.159 449.301 122.467V129.57C449.301 130.877 450.361 131.938 451.669 131.938C452.977 131.938 454.037 130.877 454.037 129.57V122.467Z" fill="#FF9800"/>
<path d="M1093.6 309.752L1053.29 370.932L1012.99 309.752C1008.38 302.811 1005.72 294.596 1005.72 285.792C1005.72 260.899 1027.02 240.718 1053.29 240.718C1079.57 240.718 1100.87 260.899 1100.87 285.792C1100.87 294.596 1098.21 302.811 1093.6 309.752Z" fill="#FF9800"/>
<path d="M1071.74 267.834C1072.55 268.652 1072.55 269.973 1071.73 270.786L1069.44 273.062L1073.62 277.217C1074.01 277.608 1074.23 278.141 1074.23 278.696C1074.23 279.251 1074.01 279.784 1073.62 280.176L1067.01 286.749C1066.19 287.559 1064.88 287.559 1064.07 286.749L1059.87 282.579L1054.95 287.471C1057.1 290.455 1057.84 294.275 1056.87 297.896C1055.72 302.2 1052.35 305.581 1048.01 306.709C1043.69 307.849 1039.09 306.6 1035.95 303.432L1035.93 303.416C1031.2 298.543 1031.27 290.793 1036.08 286.003C1040.4 281.709 1047.1 281.215 1051.97 284.556L1058.38 278.182C1058.38 278.173 1058.39 278.164 1058.4 278.156L1065.01 271.582C1065.02 271.574 1065.03 271.566 1065.04 271.557L1068.79 267.827C1069.6 267.014 1070.92 267.017 1071.74 267.834Z" fill="#E65100"/>
<path d="M488.687 314.425L464.658 350.899L440.628 314.425C437.882 310.288 436.294 305.391 436.294 300.142C436.294 285.302 448.993 273.271 464.658 273.271C480.323 273.271 493.022 285.302 493.022 300.142C493.022 305.391 491.433 310.288 488.687 314.425Z" fill="#FFE4BC"/>
<path d="M459.06 289.692C454.594 289.692 450.974 293.312 450.974 297.778C450.974 301.677 453.258 305.242 455.921 307.931C458.597 310.633 461.869 312.671 464.266 313.468C464.521 313.553 464.796 313.553 465.05 313.468C467.447 312.671 470.72 310.633 473.395 307.931C476.059 305.242 478.343 301.677 478.343 297.778C478.343 293.312 474.722 289.692 470.256 289.692C468.083 289.692 466.11 290.55 464.658 291.943C463.206 290.55 461.233 289.692 459.06 289.692Z" fill="#FF9800"/>
</svg>
