<svg width="1438" height="573" viewBox="0 0 1438 573" fill="none" xmlns="http://www.w3.org/2000/svg">
<path d="M1440.6 -0.13501H0.980469V573.001C170.402 513.282 430.896 475.037 723.04 475.037C1012.61 475.037 1271.08 512.611 1440.6 571.427V-0.13501Z" fill="#F7FDF7"/>
<path d="M842.61 247.358C842.61 315.15 787.653 370.107 719.86 370.107C652.068 370.107 597.111 315.15 597.111 247.358C597.111 179.566 652.068 124.609 719.86 124.609C787.653 124.609 842.61 179.566 842.61 247.358Z" fill="#8B9B8B"/>
<path fill-rule="evenodd" clip-rule="evenodd" d="M680.406 206.043C690.735 195.714 705.021 189.316 720.79 189.316C736.56 189.316 750.845 195.714 761.175 206.043C771.504 216.373 777.903 230.658 777.903 246.428C777.903 262.198 771.504 276.483 761.175 286.813C750.845 297.142 736.56 303.541 720.79 303.541C705.021 303.541 690.735 297.142 680.406 286.813C670.076 276.483 663.678 262.198 663.678 246.428C663.678 230.658 670.076 216.373 680.406 206.043ZM750.422 234.523C752.449 232.496 752.449 229.208 750.422 227.181C748.394 225.153 745.107 225.153 743.079 227.181L715.598 254.662L703.693 242.757C701.666 240.729 698.378 240.729 696.351 242.757C694.323 244.784 694.323 248.072 696.351 250.099L711.927 265.676C713.954 267.703 717.242 267.703 719.269 265.676L750.422 234.523Z" fill="#F7FDF7"/>
<path d="M953.254 165.159L906.773 235.71L860.293 165.159C854.981 157.155 851.908 147.682 851.908 137.53C851.908 108.824 876.472 85.5525 906.773 85.5525C937.075 85.5525 961.638 108.824 961.638 137.53C961.638 147.682 958.566 157.155 953.254 165.159Z" fill="#B2E7B1"/>
<path fill-rule="evenodd" clip-rule="evenodd" d="M892.335 126.942V134.161H887.522C884.864 134.161 882.709 136.316 882.709 138.974V160.631C882.709 163.289 884.864 165.444 887.522 165.444H926.024C928.682 165.444 930.837 163.289 930.837 160.631V138.974C930.837 136.316 928.682 134.161 926.024 134.161H921.211V126.942C921.211 118.968 914.747 112.504 906.773 112.504C898.799 112.504 892.335 118.968 892.335 126.942ZM906.773 117.316C901.457 117.316 897.148 121.626 897.148 126.942V134.161H916.398V126.942C916.398 121.626 912.089 117.316 906.773 117.316ZM909.179 146.193C909.179 144.864 908.102 143.786 906.773 143.786C905.444 143.786 904.367 144.864 904.367 146.193V153.412C904.367 154.741 905.444 155.818 906.773 155.818C908.102 155.818 909.179 154.741 909.179 153.412V146.193Z" fill="#8B9B8B"/>
<path d="M565.543 373.314L524.577 435.495L483.611 373.314C478.93 366.26 476.222 357.912 476.222 348.964C476.222 323.663 497.871 303.153 524.577 303.153C551.284 303.153 572.933 323.663 572.933 348.964C572.933 357.912 570.225 366.26 565.543 373.314Z" fill="#8B9B8B"/>
<path d="M543.321 330.713C544.147 331.544 544.143 332.887 543.313 333.713L540.987 336.026L545.232 340.249C545.632 340.647 545.857 341.188 545.857 341.753C545.857 342.317 545.632 342.858 545.232 343.256L538.516 349.937C537.688 350.76 536.352 350.76 535.524 349.937L531.264 345.699L526.265 350.671C528.449 353.704 529.196 357.586 528.214 361.267C527.046 365.64 523.613 369.077 519.211 370.223C514.821 371.382 510.141 370.113 506.946 366.892L506.93 366.876C502.121 361.923 502.191 354.047 507.085 349.178C511.472 344.814 518.284 344.312 523.229 347.708L529.741 341.23C529.75 341.221 529.759 341.212 529.768 341.203L536.484 334.523C536.492 334.514 536.501 334.505 536.51 334.497L540.322 330.705C541.152 329.879 542.495 329.883 543.321 330.713Z" fill="#535F53"/>
<path d="M895.858 419.373L871.436 456.443L847.014 419.373C844.223 415.168 842.609 410.191 842.609 404.857C842.609 389.774 855.515 377.546 871.436 377.546C887.357 377.546 900.264 389.774 900.264 404.857C900.264 410.191 898.649 415.168 895.858 419.373Z" fill="#B2E7B1"/>
<path d="M865.747 394.236C861.208 394.236 857.529 397.916 857.529 402.455C857.529 406.417 859.85 410.04 862.557 412.774C865.276 415.52 868.602 417.591 871.038 418.401C871.297 418.487 871.577 418.487 871.836 418.401C874.272 417.591 877.597 415.52 880.316 412.774C883.023 410.04 885.345 406.417 885.345 402.455C885.345 397.916 881.665 394.236 877.126 394.236C874.918 394.236 872.912 395.108 871.437 396.524C869.961 395.108 867.956 394.236 865.747 394.236Z" fill="#A0ACA0"/>
</svg>
