<svg width="1439" height="592" viewBox="0 0 1439 592" fill="none" xmlns="http://www.w3.org/2000/svg">
<path d="M18.4055 591.858H-1.75V-11.4854H1438.25V585.139H1409.14V459.727L1395.7 473.164V437.332L1382.26 455.248L1366.59 399.26L1350.91 455.248L1337.47 437.332V473.164L1324.04 459.727V585.139H1303.88V569.463H1290.44V585.139H1277.01V336.554H1290.44V289.525H1277.01C1276.26 279.074 1273.87 255.484 1270.29 244.735C1266.7 233.985 1250.88 219.354 1243.41 213.382V148.436H1234.46V134.999L1227.74 123.802L1223.26 90.2091L1218.78 123.802L1212.06 134.999V148.436H1203.1V213.382C1199.37 214.128 1189.22 221.444 1178.47 244.735C1167.72 268.026 1166.52 284.299 1167.27 289.525H1153.83V336.554H1167.27V486.601H1144.88V455.248H1126.96V486.601H1113.52V455.248H1095.61V486.601H1082.17V455.248H1064.25V486.601H1050.82L1037.38 405.979H1028.42L979.152 11.8265L927.643 508.996H869.416V455.248H849.261V426.134H833.584V470.924H806.71L797.752 482.122H773.118V392.542L764.16 405.979L752.962 363.428L741.765 405.979L732.807 392.542V508.996H714.891V276.088L703.693 220.1L692.496 276.088V307.441H679.059V276.088L667.861 220.1L656.664 276.088V307.441H643.227V276.088L632.029 220.1L620.832 276.088V437.332H522.294V334.315H511.096V305.201H497.659V334.315H486.461V401.5H473.024V383.584H459.587V338.794H441.671V383.584H410.318V338.794H392.402V383.584H378.965V401.5H365.528V334.315H354.331V305.201H338.654V334.315H327.457V479.882H298.343V464.206H289.385V479.882H264.751V491.08H240.116V479.882H217.721H172.931V491.08H161.734V517.954H148.297V473.164H139.339V464.206H130.381V446.29H116.944V356.71H110.225L94.5486 318.638V294.004H72.1536V318.638L58.7166 356.71H51.9981V446.29H38.561V464.206H29.603V473.164H18.4055V591.858Z" fill="#D8E9FA"/>
<path d="M595.298 373.94L572.117 409.125L548.936 373.94C546.287 369.949 544.755 365.225 544.755 360.161C544.755 345.845 557.005 334.239 572.117 334.239C587.229 334.239 599.479 345.845 599.479 360.161C599.479 365.225 597.947 369.949 595.298 373.94Z" fill="#D8E9FA"/>
<path d="M566.717 350.081C562.409 350.081 558.916 353.573 558.916 357.881C558.916 361.643 561.12 365.081 563.689 367.676C566.27 370.283 569.427 372.249 571.739 373.017C571.985 373.099 572.25 373.099 572.496 373.017C574.808 372.249 577.965 370.283 580.546 367.676C583.115 365.081 585.318 361.643 585.318 357.881C585.318 353.573 581.826 350.081 577.518 350.081C575.421 350.081 573.518 350.909 572.117 352.253C570.717 350.909 568.814 350.081 566.717 350.081Z" fill="#537FAC"/>
<path d="M1139.79 187.884L1095.67 254.849L1051.55 187.884C1046.51 180.287 1043.59 171.296 1043.59 161.66C1043.59 134.413 1066.91 112.324 1095.67 112.324C1124.43 112.324 1147.74 134.413 1147.74 161.66C1147.74 171.296 1144.83 180.287 1139.79 187.884Z" fill="#385C80"/>
<path fill-rule="evenodd" clip-rule="evenodd" d="M1081.96 151.61V158.462H1077.39C1074.87 158.462 1072.83 160.507 1072.83 163.03V183.587C1072.83 186.109 1074.87 188.155 1077.39 188.155H1113.94C1116.46 188.155 1118.51 186.109 1118.51 183.587V163.03C1118.51 160.507 1116.46 158.462 1113.94 158.462H1109.37V151.61C1109.37 144.041 1103.24 137.905 1095.67 137.905C1088.1 137.905 1081.96 144.041 1081.96 151.61ZM1095.67 142.474C1090.62 142.474 1086.53 146.564 1086.53 151.61V158.462H1104.8V151.61C1104.8 146.564 1100.71 142.474 1095.67 142.474ZM1097.95 169.882C1097.95 168.621 1096.93 167.598 1095.67 167.598C1094.41 167.598 1093.38 168.621 1093.38 169.882V176.734C1093.38 177.996 1094.41 179.018 1095.67 179.018C1096.93 179.018 1097.95 177.996 1097.95 176.734V169.882Z" fill="#B7D6F5"/>
<path d="M485.22 209.656L428.389 295.916L371.559 209.656C365.064 199.87 361.308 188.288 361.308 175.875C361.308 140.777 391.341 112.324 428.389 112.324C465.437 112.324 495.471 140.777 495.471 175.875C495.471 188.288 491.714 199.87 485.22 209.656Z" fill="#385C80"/>
<path d="M413.678 145.276C415.303 145.276 416.62 146.594 416.62 148.219V168.252C416.734 168.211 416.847 168.168 416.96 168.121C417.762 167.787 418.399 167.351 418.828 166.815C419.22 166.325 419.563 165.601 419.563 164.401V149.69C419.563 148.065 420.88 146.747 422.505 146.747C424.13 146.747 425.447 148.065 425.447 149.69V164.401C425.447 166.878 424.686 168.912 423.423 170.491C422.197 172.024 420.628 172.967 419.223 173.552C418.307 173.934 417.408 174.186 416.62 174.353V207.062C416.62 208.687 415.303 210.004 413.678 210.004C412.053 210.004 410.736 208.687 410.736 207.062V174.353C409.948 174.186 409.05 173.934 408.133 173.552C406.728 172.967 405.16 172.024 403.933 170.491C402.67 168.912 401.91 166.878 401.91 164.401V149.69C401.91 148.065 403.227 146.747 404.852 146.747C406.477 146.747 407.794 148.065 407.794 149.69V164.401C407.794 165.601 408.136 166.325 408.528 166.815C408.957 167.351 409.595 167.787 410.397 168.121C410.509 168.168 410.623 168.211 410.736 168.252V148.219C410.736 146.594 412.053 145.276 413.678 145.276Z" fill="#B7D6F5"/>
<path d="M448.984 145.276C450.609 145.276 451.927 146.594 451.927 148.219V207.062C451.927 208.687 450.609 210.004 448.984 210.004C447.359 210.004 446.042 208.687 446.042 207.062V176.169H437.216C435.591 176.169 434.274 174.852 434.274 173.227V159.987C434.274 156.53 435.146 153.742 436.607 151.551C438.055 149.379 439.964 147.968 441.784 147.058C443.593 146.154 445.366 145.716 446.662 145.5C447.317 145.391 447.869 145.335 448.269 145.307C448.47 145.293 448.633 145.285 448.754 145.281C448.815 145.279 448.865 145.278 448.903 145.277L448.953 145.277L448.971 145.276L448.978 145.276L448.981 145.276C448.981 145.276 448.984 145.276 448.984 148.219V145.276Z" fill="#B7D6F5"/>
<path d="M891.37 336.774L852.486 395.794L813.602 336.774C809.158 330.078 806.588 322.154 806.588 313.66C806.588 289.646 827.137 270.178 852.486 270.178C877.835 270.178 898.384 289.646 898.384 313.66C898.384 322.154 895.814 330.078 891.37 336.774Z" fill="#537FAC"/>
<path d="M870.277 296.337C871.061 297.126 871.058 298.4 870.269 299.184L868.062 301.38L872.091 305.388C872.471 305.766 872.684 306.28 872.684 306.815C872.684 307.351 872.471 307.865 872.091 308.243L865.716 314.584C864.931 315.365 863.662 315.365 862.877 314.584L858.833 310.561L854.088 315.281C856.161 318.159 856.87 321.844 855.938 325.338C854.829 329.489 851.571 332.751 847.392 333.839C843.225 334.939 838.783 333.734 835.751 330.677L835.736 330.662C831.171 325.961 831.237 318.485 835.882 313.864C840.047 309.722 846.513 309.245 851.206 312.468L857.387 306.32C857.396 306.311 857.404 306.303 857.413 306.294L863.787 299.953C863.796 299.945 863.804 299.937 863.812 299.929L867.43 296.33C868.218 295.546 869.493 295.549 870.277 296.337Z" fill="#B7D6F5"/>
</svg>
