<svg width="24" height="24" viewBox="0 0 24 24" fill="none" xmlns="http://www.w3.org/2000/svg">
<path d="M5.50022 3.5C5.87899 3.5 6.22525 3.714 6.39465 4.05279L8.38565 8.0348C8.39213 8.0471 8.39836 8.05956 8.40433 8.07216L8.89465 9.05279C9.14164 9.54676 8.94141 10.1474 8.44743 10.3944C7.95345 10.6414 7.35278 10.4412 7.10579 9.94721L6.88218 9.5H4.11825L3.89465 9.94721C3.64766 10.4412 3.04698 10.6414 2.55301 10.3944C2.05903 10.1474 1.8588 9.54676 2.10579 9.05279L2.5961 8.07216C2.60208 8.05956 2.60831 8.0471 2.61479 8.03479L4.60579 4.05279C4.77518 3.714 5.12145 3.5 5.50022 3.5Z" fill="black" fill-opacity="0.85"/>
<path d="M11.0002 4.5C11.0002 3.94772 11.448 3.5 12.0002 3.5H21.0002C21.5525 3.5 22.0002 3.94772 22.0002 4.5C22.0002 5.05228 21.5525 5.5 21.0002 5.5H12.0002C11.448 5.5 11.0002 5.05228 11.0002 4.5Z" fill="black" fill-opacity="0.85"/>
<path d="M11.0002 9.5C11.0002 8.94772 11.448 8.5 12.0002 8.5H21.0002C21.5525 8.5 22.0002 8.94772 22.0002 9.5C22.0002 10.0523 21.5525 10.5 21.0002 10.5H12.0002C11.448 10.5 11.0002 10.0523 11.0002 9.5Z" fill="black" fill-opacity="0.85"/>
<path d="M3.00024 13.5C2.44796 13.5 2.00024 13.9477 2.00024 14.5C2.00024 15.0523 2.44796 15.5 3.00024 15.5H21.0002C21.5525 15.5 22.0002 15.0523 22.0002 14.5C22.0002 13.9477 21.5525 13.5 21.0002 13.5H3.00024Z" fill="black" fill-opacity="0.85"/>
<path d="M2.00024 19.5C2.00024 18.9477 2.44796 18.5 3.00024 18.5H21.0002C21.5525 18.5 22.0002 18.9477 22.0002 19.5C22.0002 20.0523 21.5525 20.5 21.0002 20.5H3.00024C2.44796 20.5 2.00024 20.0523 2.00024 19.5Z" fill="black" fill-opacity="0.85"/>
</svg>
