<svg width="25" height="24" viewBox="0 0 25 24" fill="none" xmlns="http://www.w3.org/2000/svg">
<path d="M9.1129 3.2097L9.20711 3.29289L12.5 6.585L15.7929 3.29289C16.1534 2.93241 16.7206 2.90468 17.1129 3.2097L17.2071 3.29289L23.2071 9.29289C23.5676 9.65338 23.5953 10.2206 23.2903 10.6129L23.2071 10.7071L13.2071 20.7071C13.0569 20.8573 12.8708 20.9497 12.6764 20.9844L12.559 20.9983H12.441C12.2051 20.9844 11.9731 20.8874 11.7929 20.7071L1.79289 10.7071C1.43241 10.3466 1.40468 9.77939 1.7097 9.3871L1.79289 9.29289L7.79289 3.29289C8.12334 2.96245 8.62751 2.91161 9.0114 3.14038L9.1129 3.2097ZM8.5 5.415L3.915 10L12.5 18.585L13.085 18L12.2929 17.2071C11.9024 16.8166 11.9024 16.1834 12.2929 15.7929C12.6534 15.4324 13.2206 15.4047 13.6129 15.7097L13.7071 15.7929L14.5 16.585L15.085 16L14.2929 15.2071C13.9024 14.8166 13.9024 14.1834 14.2929 13.7929C14.6534 13.4324 15.2206 13.4047 15.6129 13.7097L15.7071 13.7929L16.5 14.585L17.085 14L14.5 11.415L12.2071 13.7071C11.9121 14.0021 11.4691 14.0801 11.0953 13.9145L10.9855 13.8575L8.4855 12.3575L8.38841 12.2913L8.29289 12.2071C8.25571 12.1699 8.22208 12.1306 8.19198 12.0894L8.1109 11.958L8.06168 11.8459L8.03751 11.772L8.01593 11.6782L8.00264 11.5729L7.9999 11.4885L8.00266 11.4269L8.01443 11.3293L8.04489 11.2031L8.06251 11.1515C8.0974 11.0575 8.14638 10.9685 8.2097 10.8871L8.29289 10.7929L11.085 8L8.5 5.415ZM16.5 5.415L10.613 11.301L11.344 11.74L13.7929 9.29289C14.1534 8.93241 14.7206 8.90468 15.1129 9.2097L15.2071 9.29289L18.5 12.585L21.085 10L16.5 5.415Z" fill="black" fill-opacity="0.85"/>
</svg>
