<svg width="24" height="24" viewBox="0 0 24 24" fill="none" xmlns="http://www.w3.org/2000/svg">
<path fill-rule="evenodd" clip-rule="evenodd" d="M16 3C13.2386 3 11 5.23858 11 8C11 8.84619 11.2094 9.64057 11.5784 10.337C11.784 10.725 11.7124 11.2018 11.4019 11.5123L3.41421 19.5L4.5 20.5858L12.4877 12.5981C12.7982 12.2876 13.275 12.216 13.663 12.4216C14.3594 12.7906 15.1538 13 16 13C18.7614 13 21 10.7614 21 8C21 7.66128 20.9664 7.33085 20.9025 7.01169L18.2071 9.70711C17.8166 10.0976 17.1834 10.0976 16.7929 9.70711L14.2929 7.20711C13.9024 6.81658 13.9024 6.18342 14.2929 5.79289L16.9883 3.09747C16.6692 3.03356 16.3387 3 16 3ZM9 8C9 4.134 12.134 1 16 1C17.1805 1 18.2955 1.29303 19.2734 1.81117C19.5538 1.95972 19.747 2.23251 19.7941 2.54627C19.8412 2.86004 19.7367 3.17755 19.5123 3.4019L16.4142 6.5L17.5 7.58579L20.5981 4.48769C20.8225 4.26334 21.14 4.15876 21.4537 4.20589C21.7675 4.25302 22.0403 4.44625 22.1888 4.72662C22.7069 5.70447 23 6.81949 23 8C23 11.866 19.866 15 16 15C15.0862 15 14.2116 14.8244 13.4095 14.5047L5.20711 22.7071C4.81658 23.0976 4.18342 23.0976 3.79289 22.7071L1.29289 20.2071C0.902369 19.8166 0.902369 19.1834 1.29289 18.7929L9.49528 10.5905C9.17561 9.78841 9 8.91383 9 8Z" fill="black" fill-opacity="0.85"/>
</svg>
